<svg xmlns="http://www.w3.org/2000/svg" viewBox="0 0 271.8 221.04"><defs><style>.cls-1{fill:#7b53a2}.cls-2{fill:#f2f9fd}.cls-3{fill:#deede8}.cls-4{fill:#794a9e}.cls-5{fill:#5d55a4}.cls-6{fill:#6e68af}.cls-7{fill:#fff}.cls-8{fill:#f1eeeb}.cls-9{fill:#645ba8}.cls-10{fill:#f89938}.cls-11{fill:#f9ab64}.cls-12{fill:#fecc8f}.cls-13{fill:#00adc1}.cls-14{fill:#5d497d}.cls-15{fill:#a764a9}.cls-16{fill:#3bbeb3}.cls-17{fill:#fcd2af}.cls-18{fill:#5fc0a9}.cls-19{fill:#312e34}.cls-20{fill:#434343}.cls-21{fill:#ffcb5e}.cls-22{fill:#f9a55a}.cls-23{fill:#f47c28}</style></defs><title>Asset 3</title><g id="Layer_2" data-name="Layer 2"><g id="Layer_1-2" data-name="Layer 1"><rect class="cls-1" x="154.41" y="75.07" width="117.39" height="145.96" rx="6.39"/><rect class="cls-2" x="159.88" y="79.26" width="105.91" height="137.45" rx="5.77"/><path class="cls-3" d="M226.15 79.26h31.83v137.45h-31.83z"/><path class="cls-4" d="M247.41 67.68h-93.53V221h93.53a6.41 6.41 0 0 0 6.39-6.44V74.11a6.41 6.41 0 0 0-6.39-6.43z"/><path class="cls-1" d="M156.23 67.68H142.8a6.39 6.39 0 0 0-6.39 6.39v139.57a6.39 6.39 0 0 0 6.39 6.36h13.43z"/><path class="cls-5" d="M80.56 178.55H5.06A5.05 5.05 0 0 0 0 183.61V216a5.06 5.06 0 0 0 5.06 5h75.5z"/><path class="cls-6" d="M89.23 212.62V187a2.8 2.8 0 0 1 2.8-2.8h111.7a2.8 2.8 0 0 0 2.8-2.81 2.8 2.8 0 0 0-2.8-2.8H73.59a5.06 5.06 0 0 0-5.06 5.06V216a5.07 5.07 0 0 0 5.06 5h130.14a2.8 2.8 0 0 0 2.8-2.81 2.8 2.8 0 0 0-2.8-2.8H92a2.8 2.8 0 0 1-2.77-2.77z"/><path class="cls-7" d="M85.55 184.16h115.83v31.27H85.55a9.29 9.29 0 0 1-9.29-9.29v-12.69a9.29 9.29 0 0 1 9.29-9.29z"/><path class="cls-8" d="M76.26 204.94v1.2a9.29 9.29 0 0 0 9.29 9.29h115.83v-10.49z"/><path class="cls-9" d="M11.04 193.09h43.21v14.4H11.04z"/><path class="cls-10" d="M99.44 147.9H23.93a5.06 5.06 0 0 0-5.06 5.1v21.3a5.06 5.06 0 0 0 5.06 5.06h75.51V147.9z"/><path class="cls-11" d="M108.1 170.91v-14.6a2.8 2.8 0 0 1 2.81-2.8H222.6a2.8 2.8 0 0 0 2.8-2.81 2.8 2.8 0 0 0-2.8-2.8H92.47a5.05 5.05 0 0 0-5.06 5.1v21.3a5.05 5.05 0 0 0 5.06 5.06H222.6a2.8 2.8 0 0 0 2.8-2.8 2.8 2.8 0 0 0-2.8-2.81H110.91a2.8 2.8 0 0 1-2.81-2.84z"/><path class="cls-7" d="M220.25 173.71H104.42a9.29 9.29 0 0 1-9.29-9.29v-1.62a9.29 9.29 0 0 1 9.29-9.29h115.83z"/><path class="cls-8" d="M95.13 163.23v1.19a9.29 9.29 0 0 0 9.29 9.29h115.83v-10.48z"/><path class="cls-12" d="M28.75 179.32h5.96V147.9h-5.96v31.42z"/><path class="cls-7" d="M218.9 123.39A9.58 9.58 0 0 1 216 119a11.11 11.11 0 0 1 2.15-10.44 9.63 9.63 0 0 1 4.4-2.84 10.9 10.9 0 0 1 5.52-.21 11 11 0 0 1 4.41 1.89 9.07 9.07 0 0 1 2.85 3.42l-4 2.48a5.56 5.56 0 0 0-3.93-3.18 5.36 5.36 0 0 0-2.85.14 4.78 4.78 0 0 0-2.23 1.57 7 7 0 0 0-1.2 5.81 4.81 4.81 0 0 0 1.43 2.33 5.27 5.27 0 0 0 2.56 1.25 5.55 5.55 0 0 0 4.87-1.37l2.7 3.86a9.21 9.21 0 0 1-4 2 11.25 11.25 0 0 1-4.8 0 10.84 10.84 0 0 1-4.98-2.32zm-8.97-11.45a4.35 4.35 0 0 1 .81 2.66 4 4 0 0 1-1.76 3.51 8.72 8.72 0 0 1-5.08 1.24h-9V102h8.5a8.06 8.06 0 0 1 4.84 1.22 3.89 3.89 0 0 1 1.66 3.3 4.23 4.23 0 0 1-.58 2.22 4.09 4.09 0 0 1-1.65 1.54 4.67 4.67 0 0 1 2.26 1.66zm-10.35-6.38v3.34h3.23c1.58 0 2.38-.56 2.38-1.68s-.8-1.66-2.38-1.66zm6.41 8.49c0-1.17-.82-1.76-2.47-1.76h-3.94v3.52h3.94c1.65 0 2.48-.59 2.48-1.76zm-23.73-4.77a5.54 5.54 0 0 1 2.92 1.49 7.89 7.89 0 0 1 1.95 3.25l2.47 7.32-3.68 1.24-1-3-5.06 1.71 1 3-3.62 1.22-2.47-7.32a7.79 7.79 0 0 1-.41-3.77 5.56 5.56 0 0 1 1.42-3 7.68 7.68 0 0 1 6.48-2.18zm1.65 7.34l-.56-1.69a3.44 3.44 0 0 0-1.45-2 2.48 2.48 0 0 0-2.09-.13 2.5 2.5 0 0 0-1.6 1.38 3.41 3.41 0 0 0 .07 2.47l.57 1.68zM191 96s6.77 0 7 1.21-7.11 1.85-7.49 1.09.49-2.3.49-2.3zm12.34-3s6.77 0 7 1.21-7.11 1.85-7.48 1.09.48-2.3.48-2.3z"/><path class="cls-13" d="M181.05 31.71s4-1.05 6.36 3.59-.25 9.62 1.58 14-2.28 6.44-5.75 3-3.94-18.07-2.19-20.59z"/><path class="cls-14" d="M188.88 6.17C186.72.38 180-1.39 174.65 1.1c-2.35 1.09-2.87 3.09-5.37 3.89S164.43 4.1 162 4c-6.27-.14-8.86 7.05-14.1 8.91-5.69 2-12.26-1.35-17 3.66A13.59 13.59 0 0 0 128.12 30c1.84 5.19 7.18 7.29 12.34 7.17a17.21 17.21 0 0 0 7-1.48c2.49-1.24 4.31-3.45 6.55-5.06 2-1.46 4.23-2.28 6.71-1.5s4.13 2.74 6.47 3.61c3.12 1.16 8.37.32 11.17-1.06a23.35 23.35 0 0 0 7.36-5.83c4.44-4.95 5.39-13.27 3.16-19.68z"/><path class="cls-15" d="M168.82 56.76s-4 8.1 3.44 10.72A92.66 92.66 0 0 1 184.57 70s4.2 28 6.09 27.33 2.14-.38 2.3-2.75-1.21-25.42-2.89-27.91S177.91 59 177.91 59l-9.09-2.19"/><path class="cls-15" d="M177.57 56.06s-2.61 9.3 5.09 11.17c7.39.29 11.88.41 11.88.41s6.93 27.46 8.74 26.61 2.09-.59 2-3-3.7-25.19-5.61-27.5-12.86-6.44-12.86-6.44l-10.29-.47"/><path class="cls-16" d="M177.07 29.42s4.81.83 6.17 2.93 1.24 4.1 2.74 6.71-1.15 4.62-.22 8.37.41 3.88 2.35 7.36-.32 4.84-3.1 6.33-13.33 1.9-16.09-2-.2-4.54.82-7.32-1.11-8.9-1.29-13.77 1.48-7.1 5.07-8.2 3.55-.41 3.55-.41z"/><path class="cls-17" d="M183.18 8.34s3.61 8.61.46 14.74c-3 4.92-5.36 4.44-3.47 9.24 0 0-3.92 2.59-7.64-1.67 0 0 3.22-1.71.32-5.42-2.2-2.79-4.5-10.12-3.19-15.14s4.5-6 8-5.57 5.11 2.27 5.52 3.82z"/><path class="cls-18" d="M169.87 32.57a1 1 0 0 0-.42.07c-.8.27-2.56 1.44-4 6.5-1.9 6.73-3.69 9.78-2.79 12.09s13.62 9.49 16 9 1.84-1.86.35-3.28-9.54-5.39-9.52-7.63 6.26-8.82 4.64-12.23"/><path class="cls-19" d="M198.15 59.71s.82 1.15-.71 1.84-19.17 2.38-19.75 2.14-.79-1.44-.79-1.44z"/><path class="cls-20" d="M174.41 49.79a3.93 3.93 0 0 1 3.37-4.3c7.15-1 22-2.76 22.68-1.07.71 1.87-1.08 11.9-1.68 15.12a1.38 1.38 0 0 1-1.19 1.12l-20.34 2.53a1.39 1.39 0 0 1-1.56-1.19z"/><path class="cls-7" d="M189.72 54a2.17 2.17 0 1 1-2-2.31 2.16 2.16 0 0 1 2 2.31z"/><path class="cls-14" d="M163.7 18.29s7.75 2.14 13.85-5.54c4-5.12 11.12-2.58 11.12-2.58s-5-12.73-16.8-5.24c-10.09 6.38-8.46 10.75-8.17 13.36z"/><path class="cls-21" d="M70 72.85v10.59a.6.6 0 0 1-.6.6h-2a.6.6 0 0 1-.6-.6v-8a.6.6 0 0 0-.6-.6h-.9a.6.6 0 0 1-.6-.6v-1.39a.6.6 0 0 1 .6-.6h4.1a.6.6 0 0 1 .6.6zm12.44 8.58v2a.6.6 0 0 1-.6.6h-9.47a.6.6 0 0 1-.6-.6v-1.67a.64.64 0 0 1 .18-.43l5-4.82a5.12 5.12 0 0 0 1-1.25 2.38 2.38 0 0 0 .25-1.05 1.36 1.36 0 0 0-.45-1.09 2 2 0 0 0-1.31-.38 2.91 2.91 0 0 0-1.4.35 3 3 0 0 0-.75.62.59.59 0 0 1-.76.14l-1.86-1.08a.6.6 0 0 1-.18-.88 5.8 5.8 0 0 1 1.88-1.62 7 7 0 0 1 3.42-.8 6.84 6.84 0 0 1 2.77.53 4.32 4.32 0 0 1 1.88 1.52 4 4 0 0 1 .68 2.3 5.14 5.14 0 0 1-.53 2.18 8.38 8.38 0 0 1-1.85 2.34l-1.52 1.46a.6.6 0 0 0 .42 1h3.2a.59.59 0 0 1 .6.63zm12.27-5.54a4.62 4.62 0 0 1 1 3 5.1 5.1 0 0 1-.71 2.72 5.39 5.39 0 0 1-2.29 2 8.6 8.6 0 0 1-3.8.76 13.06 13.06 0 0 1-3.28-.37 10.38 10.38 0 0 1-2.32-.9.61.61 0 0 1-.26-.79l1.1-2.37a.59.59 0 0 1 .83-.27 7.67 7.67 0 0 0 1.52.66 8 8 0 0 0 2.28.35 3.25 3.25 0 0 0 1.82-.45 1.43 1.43 0 0 0 .67-1.26q0-1.59-2.4-1.59h-1.26a.6.6 0 0 1-.6-.6v-2.14a.59.59 0 0 1 .15-.4l1.77-2a.6.6 0 0 0-.45-1h-4.26a.6.6 0 0 1-.6-.6v-2.36a.6.6 0 0 1 .6-.6h10.15a.6.6 0 0 1 .6.6v2.07a.59.59 0 0 1-.16.4l-2.46 2.76a.6.6 0 0 0 .23 1 4.77 4.77 0 0 1 2.13 1.38z"/><path class="cls-10" d="M64.98 125.01h7.66v16.89h-7.66z"/><path class="cls-21" d="M64.51 139.4h9.39a5 5 0 0 1 5 5H59.51a5 5 0 0 1 5-5z"/><path class="cls-22" d="M52.94 144.41h32.53a3.6 3.6 0 0 1 3.6 3.6H49.34a3.6 3.6 0 0 1 3.6-3.6z"/><path class="cls-23" d="M75.15 124.23l.25-.43c.07-.12.13-.25.19-.38l.07-.15a7.64 7.64 0 0 0 .29-.8l.06-.22c.06-.23.1-.46.14-.69v-.4H77v-1.78H61.38v1.78a1 1 0 0 1 .94.77 7 7 0 0 0 10.2 4.75 6.76 6.76 0 0 0 .72-.46l.16-.12c.18-.13.36-.28.53-.43l.14-.13a6.76 6.76 0 0 0 .58-.62v-.07c.22-.2.35-.41.5-.62z"/><path class="cls-10" d="M101.43 88.56a32.23 32.23 0 1 1-64.45 0z"/><rect class="cls-21" x="33.38" y="83.56" width="71.64" height="8.13" rx="4.07"/></g></g></svg>