<svg id="Isolation_Mode" xmlns="http://www.w3.org/2000/svg" viewBox="0 0 500 171.43"><style>.inside-bubble{fill:#fff}</style><ellipse class="inside-bubble" cx="299.19" cy="95.71" rx="8.2" ry="8.21"/><ellipse class="inside-bubble" cx="299.82" cy="146.93" rx="8.2" ry="8.21"/><ellipse class="inside-bubble" cx="298.83" cy="89.1" rx="8.2" ry="8.21"/><ellipse class="inside-bubble" cx="357.15" cy="67.81" rx="8.2" ry="8.21"/><ellipse class="inside-bubble" cx="294.71" cy="153.35" rx="8.2" ry="8.21"/><ellipse class="inside-bubble" cx="305.87" cy="83.01" rx="8.2" ry="8.21"/><ellipse class="inside-bubble" cx="289.64" cy="146.55" rx="8.2" ry="8.21"/><ellipse class="inside-bubble" cx="290.14" cy="87.83" rx="8.2" ry="8.21"/><ellipse class="inside-bubble" cx="341.82" cy="97.47" rx="8.2" ry="8.21"/><ellipse class="inside-bubble" cx="285.41" cy="68.52" rx="8.2" ry="8.21"/><ellipse class="inside-bubble" cx="277.67" cy="93.53" rx="8.2" ry="8.21"/><ellipse class="inside-bubble" cx="289.26" cy="61.27" rx="8.2" ry="8.21"/><ellipse class="inside-bubble" cx="383.92" cy="152.94" rx="8.2" ry="8.21"/><ellipse class="inside-bubble" cx="286.09" cy="138.74" rx="8.2" ry="8.21"/><ellipse class="inside-bubble" cx="298.26" cy="70.33" rx="8.2" ry="8.21"/><ellipse class="inside-bubble" cx="279.08" cy="147.56" rx="8.2" ry="8.21"/><ellipse class="inside-bubble" cx="357.64" cy="70.06" rx="8.2" ry="8.21"/><ellipse class="inside-bubble" cx="299.15" cy="97.1" rx="8.2" ry="8.21"/><ellipse class="inside-bubble" cx="460.86" cy="161.91" rx="8.2" ry="8.21"/><ellipse class="inside-bubble" cx="189.92" cy="72.78" rx="8.2" ry="8.21"/><ellipse class="inside-bubble" cx="274.4" cy="143.45" rx="8.2" ry="8.21"/><ellipse class="inside-bubble" cx="420.62" cy="91.1" rx="8.2" ry="8.21"/><ellipse class="inside-bubble" cx="335.84" cy="107.63" rx="8.2" ry="8.21"/><ellipse class="inside-bubble" cx="314.26" cy="114.58" rx="8.2" ry="8.21"/><ellipse class="inside-bubble" cx="303.42" cy="64.64" rx="8.2" ry="8.21"/><ellipse class="inside-bubble" cx="327" cy="79.24" rx="8.2" ry="8.21"/><ellipse class="inside-bubble" cx="436.86" cy="148.4" rx="8.2" ry="8.21"/><ellipse class="inside-bubble" cx="436.86" cy="76.87" rx="8.2" ry="8.21"/><ellipse class="inside-bubble" cx="352.99" cy="58.07" rx="8.2" ry="8.21"/><ellipse class="inside-bubble" cx="297.88" cy="127.32" rx="8.2" ry="8.21"/><ellipse class="inside-bubble" cx="324.59" cy="142.83" rx="8.2" ry="8.21"/><ellipse class="inside-bubble" cx="331.79" cy="105.39" rx="8.2" ry="8.21"/><ellipse class="inside-bubble" cx="399.44" cy="93.91" rx="8.2" ry="8.21"/><ellipse class="inside-bubble" cx="405.19" cy="85.5" rx="8.2" ry="8.21"/><ellipse class="inside-bubble" cx="324.77" cy="97.26" rx="8.2" ry="8.21"/><ellipse class="inside-bubble" cx="301.76" cy="133.71" rx="8.2" ry="8.21"/><ellipse class="inside-bubble" cx="453.25" cy="127.73" rx="8.2" ry="8.21"/><ellipse class="inside-bubble" cx="196.47" cy="114.77" rx="8.2" ry="8.21"/><ellipse class="inside-bubble" cx="289.25" cy="63.38" rx="8.2" ry="8.21"/><ellipse class="inside-bubble" cx="222.94" cy="125.82" rx="8.2" ry="8.21"/><ellipse class="inside-bubble" cx="429.01" cy="130.92" rx="8.2" ry="8.21"/><ellipse class="inside-bubble" cx="375.85" cy="9.94" rx="8.2" ry="8.21"/><ellipse class="inside-bubble" cx="450.07" cy="103.39" rx="8.2" ry="8.21"/><ellipse class="inside-bubble" cx="288.59" cy="55.58" rx="8.2" ry="8.21"/><ellipse class="inside-bubble" cx="287.46" cy="62.87" rx="8.2" ry="8.21"/><ellipse class="inside-bubble" cx="364.09" cy="49.88" rx="8.2" ry="8.21"/><ellipse class="inside-bubble" cx="369.16" cy="38.95" rx="8.2" ry="8.21"/><ellipse class="inside-bubble" cx="289.9" cy="57.14" rx="8.2" ry="8.21"/><ellipse class="inside-bubble" cx="282.23" cy="54.26" rx="8.2" ry="8.21"/><ellipse class="inside-bubble" cx="293.75" cy="49.88" rx="8.2" ry="8.21"/><ellipse class="inside-bubble" cx="358.01" cy="76.71" rx="8.2" ry="8.21"/><ellipse class="inside-bubble" cx="490.84" cy="76.71" rx="8.2" ry="8.21"/><ellipse class="inside-bubble" cx="332.31" cy="128.47" rx="8.2" ry="8.21"/><ellipse class="inside-bubble" cx="400.18" cy="49.55" rx="8.2" ry="8.21"/><ellipse class="inside-bubble" cx="445.06" cy="125.82" rx="8.2" ry="8.21"/><ellipse class="inside-bubble" cx="270" cy="9.94" rx="8.2" ry="8.21"/><ellipse class="inside-bubble" cx="429.01" cy="155.14" rx="8.2" ry="8.21"/><ellipse class="inside-bubble" cx="351.98" cy="53.47" rx="8.2" ry="8.21"/><ellipse class="inside-bubble" cx="386.7" cy="58.07" rx="8.2" ry="8.21"/><ellipse class="inside-bubble" cx="376.73" cy="149" rx="8.2" ry="8.21"/><ellipse class="inside-bubble" cx="286.48" cy="111.86" rx="8.2" ry="8.21"/><ellipse class="inside-bubble" cx="333.07" cy="131.63" rx="8.2" ry="8.21"/><ellipse class="inside-bubble" cx="372.15" cy="125.65" rx="8.2" ry="8.21"/><ellipse class="inside-bubble" cx="324.24" cy="108.66" rx="8.2" ry="8.21"/><ellipse class="inside-bubble" cx="312.09" cy="107.04" rx="8.2" ry="8.21"/><ellipse class="inside-bubble" cx="354.77" cy="50.16" rx="8.2" ry="8.21"/><ellipse class="inside-bubble" cx="354.04" cy="60.62" rx="8.2" ry="8.21"/><ellipse class="inside-bubble" cx="38.91" cy="40.32" rx="8.2" ry="8.21"/><ellipse class="inside-bubble" cx="112.06" cy="65.41" rx="8.2" ry="8.21"/><ellipse class="inside-bubble" cx="8.94" cy="125.82" rx="8.2" ry="8.21"/><ellipse class="inside-bubble" cx="232.4" cy="124.57" rx="8.2" ry="8.21"/><ellipse class="inside-bubble" cx="351.96" cy="59.72" rx="8.2" ry="8.21"/><ellipse class="inside-bubble" cx="159.17" cy="108.14" rx="8.2" ry="8.21"/><ellipse class="inside-bubble" cx="375.27" cy="121.39" rx="8.2" ry="8.21"/><ellipse class="inside-bubble" cx="313.65" cy="106.44" rx="8.2" ry="8.21"/><ellipse class="inside-bubble" cx="394.39" cy="43.56" rx="8.2" ry="8.21"/><ellipse class="inside-bubble" cx="288.58" cy="42.21" rx="8.2" ry="8.21"/><ellipse class="inside-bubble" cx="226.25" cy="77.65" rx="8.2" ry="8.21"/><ellipse class="inside-bubble" cx="219.5" cy="67.94" rx="8.2" ry="8.21"/><ellipse class="inside-bubble" cx="299.07" cy="44.15" rx="8.2" ry="8.21"/><ellipse class="inside-bubble" cx="378.25" cy="114.18" rx="8.2" ry="8.21"/><ellipse class="inside-bubble" cx="354.04" cy="37.97" rx="8.2" ry="8.21"/><ellipse class="inside-bubble" cx="196.47" cy="88.84" rx="8.2" ry="8.21"/><ellipse class="inside-bubble" cx="138.95" cy="74.44" rx="8.2" ry="8.21"/><ellipse class="inside-bubble" cx="366.45" cy="67.94" rx="8.2" ry="8.21"/><ellipse class="inside-bubble" cx="490.84" cy="61.44" rx="8.2" ry="8.21"/><ellipse class="inside-bubble" cx="68.25" cy="87.83" rx="8.2" ry="8.21"/><ellipse class="inside-bubble" cx="421.41" cy="134.21" rx="8.2" ry="8.21"/><ellipse class="inside-bubble" cx="428.67" cy="56.31" rx="8.2" ry="8.21"/><ellipse class="inside-bubble" cx="320.12" cy="78.01" rx="8.2" ry="8.21"/><ellipse class="inside-bubble" cx="352.99" cy="9.94" rx="8.2" ry="8.21"/><ellipse class="inside-bubble" cx="428.67" cy="34" rx="8.2" ry="8.21"/><ellipse class="inside-bubble" cx="138.95" cy="44.15" rx="8.2" ry="8.21"/><ellipse class="inside-bubble" cx="283.42" cy="41.37" rx="8.2" ry="8.21"/><ellipse class="inside-bubble" cx="333.57" cy="68.8" rx="8.2" ry="8.21"/><ellipse class="inside-bubble" cx="338.58" cy="76.58" rx="8.2" ry="8.21"/></svg>