<svg xmlns="http://www.w3.org/2000/svg" viewBox="0 0 1700.9 2000"><style>.inside-download-button{fill:#63c}</style><path class="inside-download-button" d="M850.2 1535c-18 0-36.1-5.5-51.3-16.7l-614.2-446.9c-39.1-28.4-47.7-83-19.3-121.9 28.2-39.1 83.1-47.7 121.9-19.3l562.8 409.5 563-409.5c38.8-28.4 93.6-19.8 121.9 19.3 28.4 39 19.8 93.6-19.2 121.9l-614.3 446.9c-15.2 11.2-33.3 16.7-51.3 16.7z"/><path class="inside-download-button" d="M850.2 1535c-48.3 0-87.3-39.1-87.3-87.3V87.3C762.9 39.1 802 0 850.2 0c48.3 0 87.3 39.1 87.3 87.3v1360.3c0 48.3-39 87.4-87.3 87.4zm763.3 461.3H87.3C39 1996.3 0 1957.2 0 1909c0-48.3 39.1-87.3 87.3-87.3h1526.2c48.3 0 87.3 39.1 87.3 87.3.1 48.2-39 87.3-87.3 87.3z"/><path class="inside-download-button" d="M1613.5 1996.3c-48.3 0-87.3-39.1-87.3-87.3v-386.1c0-48.3 39.1-87.3 87.3-87.3 48.3 0 87.3 39.1 87.3 87.3V1909c.1 48.2-39 87.3-87.3 87.3zm-1526.2 0C39 1996.3 0 1957.2 0 1909v-386.1c0-48.3 39.1-87.3 87.3-87.3s87.3 39.1 87.3 87.3V1909c0 48.2-39 87.3-87.3 87.3z"/></svg>