<svg xmlns="http://www.w3.org/2000/svg" viewBox="0 0 52.54 152.05"><defs><style>.cls-1{fill:#cdeaeb}.cls-2{fill:#252333}.cls-3{fill:#434343}.cls-4{fill:#7c4a48}.cls-5{fill:#cb90c0}.cls-6{fill:#6c3e3e}.cls-7,.cls-8{fill:#27364f}.cls-10,.cls-7,.cls-9{fill-rule:evenodd}.cls-9{fill:#27b78b}.cls-10{fill:#19996f}</style></defs><title>Asset 1</title><g id="Layer_2" data-name="Layer 2"><g id="Layer_1-2" data-name="Layer 1"><path class="cls-1" d="M46.65 152.05h2.38L16.72 0h-2.39l32.32 152.05zm-14.33 0h2.39L2.39 0H0l32.32 152.05z"/><path class="cls-1" d="M3.72 8.76h13.53l-.45-2.13H3.27l.45 2.13zm1.86 8.75h13.53l-.45-2.12H5.13l.45 2.12zm1.86 8.76h13.53l-.45-2.12H6.99l.45 2.12zm1.86 8.76h13.54l-.46-2.13H8.85l.45 2.13zm1.86 8.75H24.7l-.45-2.12H10.71l.45 2.12zm1.87 8.76h13.53l-.45-2.12H12.57l.46 2.12zm1.86 8.76h13.53l-.45-2.13H14.44l.45 2.13zm1.86 8.75h13.53l-.45-2.12H16.3l.45 2.12zm1.86 8.76h13.53l-.45-2.12H18.16l.45 2.12zm1.86 8.76H34l-.45-2.13H20.02l.45 2.13zm1.86 8.75h13.53l-.45-2.12H21.88l.45 2.12zm1.86 8.76h13.54l-.46-2.12H23.74l.45 2.12zm1.86 8.75h13.54l-.45-2.12H25.6l.45 2.12zm1.86 8.76h13.54l-.45-2.12H27.46l.45 2.12zm1.87 8.76h13.53l-.45-2.12H29.32l.46 2.12zm1.86 8.75h13.53l-.45-2.12H31.19l.45 2.12z"/><path class="cls-2" d="M33.87 124.12s-4.87 3.06-4.2 3.88 5.6-1.41 5.92-2.23-.83-1.85-.83-1.85z"/><path class="cls-3" d="M36 95.82c-.25 0-7.34 7.93-7.76 11s4 17.44 5 17.69 2.21 0 2.29-.51-2.16-15.14-1.4-15.91 7.6-3.61 8.62-8.19S36 95.82 36 95.82z"/><path class="cls-3" d="M45.65 99.3s-2 9.42-3.95 12.22 1.28 19.73.51 20.37a1.49 1.49 0 0 1-2.42-.51c-.63-1.15-3.43-14.64-3.56-18.72S37.37 99 37.37 99z"/><path class="cls-4" d="M27 78.29c0-.19-.26-2.67-1.91-2.67s-2.23 1.14-1.72 1.27a1.37 1.37 0 0 0 .89-.06s.64 1.91 1.34 2a1.89 1.89 0 0 0 1.4-.54z"/><path class="cls-5" d="M33.43 84c-1.62 1.62-4.59-4.84-6.24-6.11s-2.42.13-2.42.13S27.44 87 30 89.75s7.89-.76 11.33-5.22c2.86-3.7.09-4.5-1.15-4.67h-.5A16.86 16.86 0 0 0 33.43 84z"/><path class="cls-2" d="M41.45 131.76a1.56 1.56 0 0 1 .51 1.66c-.26 1.14-3.44 5.09-4.46 4.58s2.29-6.62 2.29-6.62z"/><path class="cls-6" d="M44.51 76.78a3.76 3.76 0 0 0 .87 4.2c1.95 1.68-4.77-1.37-4.77-1.37s1.65-2.73.6-4.13 3.3 1.3 3.3 1.3z"/><path class="cls-4" d="M44.77 66a3.56 3.56 0 0 0-4 1.52c-1.64 2.81-3 7.62-2.38 9.28 1.13 2.83 8.24 4.38 10.37.31 1.88-3.59 1.85-9.68-3.99-11.11z"/><path class="cls-5" d="M38.6 80.2s4.4-2.2 7.3.68 3.57 13.41.51 19c-3 4.41-10.52-.51-11.54-2.71s3.06-9.84 3.73-16.97z"/><path class="cls-6" d="M49.13 76c-2 1.25-4.12-2-3.6-3.86.85-3-3.32-3.69-3.32-3.69a1.51 1.51 0 0 1-1.27-1.34A3.48 3.48 0 0 1 44.78 66c5.81 1.52 6.07 6.91 4.38 10z"/><path class="cls-7" d="M47.4 84.46s-.85-4.55-3.4-4.92a9.24 9.24 0 0 1 1.76 5.17z"/><path class="cls-8" d="M38.45 88.05A4.84 4.84 0 0 0 38 89.3c-.17.73-.35 1.47-.52 2.2a4 4 0 0 1-.48 1.44 5.14 5.14 0 0 1-1.08 1 8.67 8.67 0 0 0-2.12 2.51 5 5 0 0 0-.7 3.33 4.21 4.21 0 0 0 3.43 3.14 6.64 6.64 0 0 0 4.69-1.15 2.64 2.64 0 0 0 .7-.63 2.86 2.86 0 0 0 .38-1.07 42.05 42.05 0 0 0 .7-5.71c-.59.18-.85.84-1.06 1.41-.71 2-1.75 4-3.6 4.94a2.85 2.85 0 0 1-1.51.38 2.93 2.93 0 0 1-1.95-1.09 2.53 2.53 0 0 1-.56-.89 2.64 2.64 0 0 1 .68-2.46 13.64 13.64 0 0 1 2-1.71 4 4 0 0 0 1.05-1 5.11 5.11 0 0 0 .54-1.52l.48-2.09a4.36 4.36 0 0 1 .78-1.88c.38-.42 1.62-1.09.61-1.56-.73-.41-1.67.56-2.01 1.16z"/><path class="cls-9" d="M42.33 87.33L42 84.91l8.35-.7s2.18 2.93 2.24 8.41a45.58 45.58 0 0 1-.81 9.4l-8.84 2.14z"/><path class="cls-10" d="M43.38 85.21a2.92 2.92 0 0 0-1.43-.3 2.64 2.64 0 0 0-1.24.51 1.45 1.45 0 0 0-.48 1c-.18 2.37-1.19 14.38-.39 15.52a4.52 4.52 0 0 0 2.42 1.81c.2.06.35.38.57.39 1.18.07 1.55-9.08 1.55-11.32a64.38 64.38 0 0 0-1-7.63z"/></g></g></svg>