<svg id="Layer_1" data-name="Layer 1" xmlns="http://www.w3.org/2000/svg" viewBox="0 0 433.1 443.62"><defs><style>.cls-1{fill:#ed5655}</style></defs><title>biblioteca_primaria</title><path class="cls-1" d="M209.72 413H45.88a20.51 20.51 0 0 1-20.48-20.52V126.24a6.83 6.83 0 1 0-13.65 0v266.24a34.17 34.17 0 0 0 34.13 34.13h341.34a34.17 34.17 0 0 0 34.13-34.13V126.24a6.83 6.83 0 0 0-6.83-6.83 6.83 6.83 0 0 0-6.83 6.83v266.24A20.5 20.5 0 0 1 387.22 413H223.38m191.14-293.59"/><path class="cls-1" d="M188.82 211.26a6.82 6.82 0 0 0-3-9.18c-1.69-.86-41.6-21.14-62.47-27.74a6.83 6.83 0 0 0-4.13 13c19.82 6.27 60 26.68 60.41 26.88a6.71 6.71 0 0 0 3.09.75 6.84 6.84 0 0 0 6.09-3.73zm-6.09-78.19a6.83 6.83 0 0 0 3.1-12.91c-1.69-.86-41.6-21.14-62.47-27.74a6.83 6.83 0 0 0-4.13 13c19.82 6.25 60 26.67 60.41 26.87a6.71 6.71 0 0 0 3.09.75zm0 0"/><path class="cls-1" d="M223.69 413v-16c8.33-3.49 29.66-11.26 54.62-11.26 59.68 0 106.88 13.26 107.35 13.39a6.71 6.71 0 0 0 1.87.27 6.82 6.82 0 0 0 6.83-6.83V92.11a6.83 6.83 0 0 0-4.95-6.57c-2-.57-49.41-13.91-111.1-13.91A158.05 158.05 0 0 0 213.82 86a6.82 6.82 0 0 0-3.82 6.11v261.2c-20.8-11.83-69.45-38.27-116-54.46v-265c50.19 20.19 98.28 50.1 98.78 50.42a6.82 6.82 0 1 0 7.22-11.6c-.56-.35-55.83-34.74-110.44-55.23a6.84 6.84 0 0 0-9.23 6.4v279.89a6.82 6.82 0 0 0 4.67 6.48c60 20 127.68 60.41 128.35 60.81a6.82 6.82 0 0 0 10.34-5.85V96.53c8.38-3.5 29.73-11.25 54.62-11.25a449.57 449.57 0 0 1 102.4 12.11v286.3A460.67 460.67 0 0 0 278.31 372c-29.38 0-53.67 9.53-61.71 13.08-9-3.31-38.26-13.08-68-13.08-45.75 0-80.1 7.35-95.57 11.41V97.65c2.25-.45 5.17-1 8.66-1.65a6.83 6.83 0 1 0-2.47-13.43c-9.15 1.68-14.5 2.87-14.5 2.87a6.82 6.82 0 0 0-5.35 6.67v300.37a6.84 6.84 0 0 0 9 6.48c.4-.14 40.78-13.31 100.25-13.31 25.56 0 51.49 8.12 61.44 11.6V413"/><path class="cls-1" d="M188.82 170.3a6.84 6.84 0 0 0-3-9.19c-1.69-.85-41.6-21.13-62.47-27.73a6.83 6.83 0 0 0-4.13 13c19.82 6.27 60 26.68 60.41 26.88a6.71 6.71 0 0 0 3.09.75 6.84 6.84 0 0 0 6.09-3.73zm0 81.92a6.82 6.82 0 0 0-3-9.18c-1.69-.86-41.6-21.14-62.47-27.74a6.83 6.83 0 0 0-4.13 13c19.82 6.25 60 26.67 60.41 26.87a6.81 6.81 0 0 0 9.18-3zm67.45-108.52a6.82 6.82 0 1 0 3.11 13.3c38.85-9.11 85 3 85.42 3.15a6.83 6.83 0 1 0 3.54-13.15c-2-.54-49.91-13.14-92.07-3.25zm0 40.96a6.82 6.82 0 1 0 3.11 13.34c38.85-9.11 85 3 85.42 3.15a6.83 6.83 0 1 0 3.54-13.19c-2-.54-49.91-13.13-92.07-3.25zm-67.45 108.52a6.82 6.82 0 0 0-3-9.18c-1.69-.86-41.6-21.14-62.47-27.74a6.83 6.83 0 0 0-4.13 13c19.82 6.26 60 26.68 60.41 26.88a6.69 6.69 0 0 0 3.09.74 6.83 6.83 0 0 0 6.09-3.72zm67.45-67.56a6.82 6.82 0 1 0 3.11 13.29c38.85-9.11 85 3 85.42 3.15a6.83 6.83 0 1 0 3.54-13.19c-2-.54-49.91-13.13-92.07-3.25zm0 81.92a6.82 6.82 0 1 0 3.11 13.29c38.85-9.11 85 3 85.42 3.15a6.83 6.83 0 1 0 3.54-13.19c-2-.54-49.91-13.14-92.07-3.25zm0-40.96a6.82 6.82 0 1 0 3.11 13.29c38.85-9.11 85 3 85.42 3.15a6.83 6.83 0 1 0 3.54-13.19c-2-.54-49.91-13.14-92.07-3.25zm0 0"/></svg>