<svg xmlns="http://www.w3.org/2000/svg" viewBox="0 0 167.31 95.91"><defs><style>.cls-1,.cls-2{fill:#fff}.cls-1{fill-rule:evenodd}</style></defs><title>Asset 1</title><g id="Layer_2" data-name="Layer 2"><g id="Isolation_Mode" data-name="Isolation Mode"><path class="cls-1" d="M6.92 38.57v-1.76H0v14.24h2.63v-6.43h3.81v-1.75H2.63v-4.3h4.29zm10.5 11.82V39.9h-2.53v9.27a3.35 3.35 0 0 1-1.68.37 1.73 1.73 0 0 1-1.88-1.88V39.9H8.81v7.61c0 2.46 1.34 3.77 4.32 3.77a9.13 9.13 0 0 0 4.29-.89m11.48.66v-7.94c0-1.81-1.1-3.42-4.42-3.42a10.11 10.11 0 0 0-4.38.81v10.55h2.53v-9.46a4.13 4.13 0 0 1 1.74-.31c1.59 0 2 .95 2 1.86v7.91zm8.83-1.65a2.46 2.46 0 0 1-1.3.24c-2 0-2.75-1.66-2.75-4.18 0-2.35.74-4.24 2.94-4.24a4 4 0 0 1 1.11.14zm2.53 1.05V34.81h-2.53V40a6.12 6.12 0 0 0-1.67-.2c-2.9 0-4.88 2.18-4.88 5.82s1.89 5.65 5.19 5.65a7.92 7.92 0 0 0 3.89-.82zm8.39-.91a3.73 3.73 0 0 1-1.52.31c-1.47 0-2.34-.62-2.34-2.07 0-2 1.47-2.55 3.86-2.83zm2.35.91v-6.91c0-2.88-1.82-3.85-4.12-3.85a8.86 8.86 0 0 0-3.82.85l.57 1.46a6.74 6.74 0 0 1 2.8-.69c1.3 0 2.22.39 2.22 1.84v.61c-3.39.33-6.23 1.17-6.23 4.11 0 2.15 1.51 3.4 4.55 3.4a8.92 8.92 0 0 0 4.03-.82zm8.55 3.17c0-1-.91-1.59-3.78-1.35l-.48.79c1.82-.14 2.54 0 2.54.58s-1.5.87-3.33.7l-.49.85c3.43.31 5.54-.22 5.54-1.57m.77-3.13l-.58-1.55a2.27 2.27 0 0 1-1.51.5c-1.56 0-2.4-1.58-2.4-4s.72-4 2.44-4a2.27 2.27 0 0 1 1.49.48l.54-1.42a3.86 3.86 0 0 0-2.59-.77c-2.48 0-4.43 2.05-4.43 5.75s1.87 5.82 4.41 5.82a3.81 3.81 0 0 0 2.63-.81zm9.13-13.1l-.62-1.16a1.39 1.39 0 0 1-1.2 1c-1 .11-1.62-.93-2.84-.81a1.76 1.76 0 0 0-1.55 1.16l.6 1.15a1.38 1.38 0 0 1 1.18-1c1-.1 1.72.93 2.9.79a1.67 1.67 0 0 0 1.53-1.1M68 49.54a3.61 3.61 0 0 1-1.51.31c-1.47 0-2.34-.62-2.34-2.07 0-2 1.47-2.55 3.85-2.83zm2.36.91v-6.91c0-2.88-1.82-3.85-4.12-3.85a8.91 8.91 0 0 0-3.83.85L63 42a6.7 6.7 0 0 1 2.8-.69c1.3 0 2.21.39 2.21 1.84v.61c-3.39.33-6.23 1.17-6.23 4.11 0 2.15 1.51 3.4 4.55 3.4a8.94 8.94 0 0 0 4.03-.82zm9.04-4.99c0 2.11-.33 4.08-2.12 4.08s-2.14-2-2.14-4.08.36-4.18 2.14-4.18 2.12 2 2.12 4.18m2.51 0c0-3.33-1.48-5.79-4.63-5.79s-4.64 2.46-4.64 5.79 1.51 5.78 4.64 5.78 4.63-2.47 4.63-5.76zM9.03 62.47v-3.19H0v3.19h2.12v10.96h4.79V62.47h2.12zm6.28-3.35a2.21 2.21 0 0 0-2.35-2 2 2 0 1 0 0 4 2.21 2.21 0 0 0 2.35-2m-.05 14.31V62.35h-4.6v11.08zm8.02-2.69a2 2 0 0 1-.39 0c-1 0-1.5-.86-1.5-3.07s.52-3 1.52-3a.71.71 0 0 1 .37 0zm4.6 2V57.29h-4.6v5.06a5.58 5.58 0 0 0-1.52-.14c-2.84 0-4.92 2.22-4.92 5.65 0 4 2.49 5.77 6.05 5.77a11.18 11.18 0 0 0 4.99-.86zm8.04-5.82l-2.4.38c-.16-1.58.29-2.55 1.28-2.55.79 0 1.12.76 1.12 2.17m4.26.92c0-3.19-1.49-5.7-5.18-5.7s-5.53 2.53-5.53 5.72 1.87 5.77 5.74 5.77a10.35 10.35 0 0 0 4.63-.86l-1-2.77a7.6 7.6 0 0 1-3 .55c-1.23 0-1.71-.36-2-1.13l6.31-.86c.03-.25.03-.49.03-.72zM9.23 91.26c0-1.63-.37-3-3-4.33-1.12-.57-1.48-.91-1.48-1.5s.38-.78 1.07-.78a4 4 0 0 1 2 .57l1-2.86a7.13 7.13 0 0 0-3.68-.86 4.65 4.65 0 0 0-5 4.7 4.33 4.33 0 0 0 2.6 4c1.1.55 1.45.91 1.45 1.45s-.39.75-1.1.75A3.91 3.91 0 0 1 1 91.71L0 95a7.39 7.39 0 0 0 4.06.87c3.08 0 5.17-2 5.17-4.63m7.58-1.99l-2.38.38c-.16-1.56.29-2.52 1.26-2.52.8 0 1.12.75 1.12 2.14m4.21.91c0-3.15-1.49-5.63-5.13-5.63s-5.46 2.5-5.46 5.65 1.84 5.71 5.67 5.71a10.19 10.19 0 0 0 4.57-.89l-1-2.74a7.48 7.48 0 0 1-3 .55c-1.23 0-1.7-.37-2-1.12l6.33-.82v-.71zm8.05 5.31v-2.79a1.67 1.67 0 0 1-.79.21c-.43 0-.67-.19-.67-1v-4.17h1.46v-3h-1.46v-3.24l-4.56 1.12v2.14h-1.12v3h1.12v4.62c0 2 1.26 3.57 3.88 3.57a4.34 4.34 0 0 0 2.14-.44m12.2-.49V84.74h-4.55v8a1.9 1.9 0 0 1-.7.11c-.61 0-.79-.37-.79-.67v-7.44h-4.55v7.11c0 3.07 1.87 4 5.3 4a12.74 12.74 0 0 0 5.29-.85m8.33-4.88c0 2.15-.48 3.09-1.43 3.09a2 2 0 0 1-.44 0v-6a1.83 1.83 0 0 1 .51-.06c1.28 0 1.36 1.12 1.36 3m4.49-.34c0-3.14-1.86-5.21-4.51-5.21a5.38 5.38 0 0 0-1.85.3v-5.16h-4.55V95a9.48 9.48 0 0 0 4.66.87c3.96.02 6.25-1.95 6.25-6.09zm7.23 3.55a1.23 1.23 0 0 1-.52.06A1.24 1.24 0 0 1 59.4 92c0-1.3.86-1.61 1.92-1.64zM65.56 95v-6c0-3.25-1.87-4.45-4.78-4.45a13.69 13.69 0 0 0-4.92.87L56.8 88a8.46 8.46 0 0 1 3.1-.68c.9 0 1.42.19 1.42.8v.32c-3.22.28-6.12 1.06-6.12 3.85 0 2.54 1.94 3.65 5.42 3.65a11.52 11.52 0 0 0 4.94-.94z"/><path class="cls-2" d="M67.48 79.74h4.55V95.7h-4.55z"/><path class="cls-1" d="M96 49.85a4.68 4.68 0 1 1 4.68 4.62A4.65 4.65 0 0 1 96 49.85m62-6.41a4.68 4.68 0 1 1 4.67 4.61 4.65 4.65 0 0 1-4.67-4.61m-64.81-6.72a4.68 4.68 0 1 1 4.67 4.61 4.64 4.64 0 0 1-4.67-4.61M96 23.58a4.68 4.68 0 1 1 4.68 4.61A4.64 4.64 0 0 1 96 23.58m8 37.13a4.68 4.68 0 1 1 4.68 4.61 4.64 4.64 0 0 1-4.68-4.61m0-47.98a4.68 4.68 0 1 1 4.68 4.61 4.64 4.64 0 0 1-4.68-4.61m11.83 54.69a4.68 4.68 0 1 1 4.68 4.58 4.65 4.65 0 0 1-4.68-4.61m0-61.39a4.68 4.68 0 0 1 9.36 0 4.68 4.68 0 0 1-9.36 0m13.53 62.82a4.68 4.68 0 1 1 4.64 4.61 4.64 4.64 0 0 1-4.68-4.61m.04-64.21a4.68 4.68 0 0 1 9.36 0 4.68 4.68 0 0 1-9.36 0m12.94 60.05a4.68 4.68 0 1 1 4.7 4.61 4.64 4.64 0 0 1-4.67-4.61m10.09-8.97a4.68 4.68 0 1 1 4.68 4.62 4.64 4.64 0 0 1-4.68-4.62M142.3 8.78a4.68 4.68 0 1 1 4.7 4.61 4.65 4.65 0 0 1-4.67-4.61m10.09 8.96a4.68 4.68 0 1 1 4.68 4.62 4.64 4.64 0 0 1-4.68-4.62M158 30a4.68 4.68 0 1 1 4.67 4.62A4.64 4.64 0 0 1 158 30m-50.73 7.08a14 14 0 1 1 14 13.83 13.93 13.93 0 0 1-14-13.83"/></g></g></svg>