<svg data-name="Layer 1" xmlns="http://www.w3.org/2000/svg" viewBox="0 0 355.53 135.66"><defs><style>.svg-logo{fill:#fff}</style></defs><path class="svg-logo" d="M160 106.39a39.4 39.4 0 0 0 13.89 9.52 47 47 0 0 0 18.27 3.42 44.24 44.24 0 0 0 13.64-2 39.75 39.75 0 0 0 11.37-5.69 37 37 0 0 0 8.53-8.63A38.64 38.64 0 0 0 231 92.3l-18.68-6.51a20.38 20.38 0 0 1-7.39 10.34A20 20 0 0 1 193 99.79a19.54 19.54 0 0 1-14.45-5.7q-5.7-5.69-7-15.79h60.42a31.41 31.41 0 0 0 .49-3.5c.1-1.24.16-2.52.16-3.82A52.66 52.66 0 0 0 230 54.45a42 42 0 0 0-7.71-14 37.21 37.21 0 0 0-12.91-9.76 41.86 41.86 0 0 0-18-3.67 43.6 43.6 0 0 0-17.71 3.5A41.06 41.06 0 0 0 160 40.13a42.59 42.59 0 0 0-8.77 14.49 52.09 52.09 0 0 0-3.09 18.15 55.37 55.37 0 0 0 3.09 19 42.32 42.32 0 0 0 8.77 14.62zM178.33 51a17.38 17.38 0 0 1 12.83-5 18.25 18.25 0 0 1 7.39 1.46 17.51 17.51 0 0 1 5.77 4.07 21 21 0 0 1 3.9 5.94 20.11 20.11 0 0 1 1.62 7.25h-38.17Q173.31 56 178.33 51zM0 0h24.2v117.21H0z"/><path class="svg-logo" d="M305.34 0H285.2l-49.45 115.87a68.69 68.69 0 0 1-43.28 15c-25.75 0-48.18-13-60.31-35.79a51.77 51.77 0 0 0 7.19-13 64.6 64.6 0 0 0 4.06-23.2 68.66 68.66 0 0 0-3.81-23.11 49.33 49.33 0 0 0-11.86-18.73 56.23 56.23 0 0 0-20.3-12.53Q95.17 0 78.45 0H40.6v117.21h39.15q15.75 0 27.69-4.39a55.14 55.14 0 0 0 19.9-12.21c.39-.39.76-.79 1.14-1.19a74.67 74.67 0 0 0 113.16 17.79h19l9.74-24.58h48.12l9.91 24.58h27.12zM108.41 85.71q-10.14 10-30.12 10H64.8V21.49h13.81a48.8 48.8 0 0 1 16.81 2.69 35.34 35.34 0 0 1 12.51 7.56 33 33 0 0 1 7.87 11.81 41.17 41.17 0 0 1 2.76 15.38q0 16.77-10.15 26.78zM277.57 74.4l16.89-42.33 16.89 42.33z"/></svg>