<svg id="Layer_1" xmlns="http://www.w3.org/2000/svg" viewBox="0 0 612 792"><style>.st0{fill:#f5853e}.st1{fill:none;stroke:#fff}.st2{fill:#48428d}.st3{fill:#00a078}.st4{fill:#f05227}.st5{fill:#335952}.st6{fill:#2e6b7d}.st7{fill:#fff}.st8{fill:#5c556c}.st9{fill:#68cbdf}.st10{fill:#7bc793}.st11{fill:#572919}.st12{fill:#eb5553}.st13{fill:none;stroke:#fff;stroke-width:4}.st14{fill:#f68a1f}.st15{fill:#f68c29}.st16{fill:#413c4d}</style><path class="st0" d="M41.26 270.73c0 2.29 1.19 3.88 2.55 5.54.98 1.25 2.15 2.65 2.44 4.13.46 2.43 1.82 2.95 3.87 3.23 2.32.35 4.26 1.43 5.07 3.84.79 2.23 2.07 2.75 4.28 1.69 4.34-2.02 8.67-4.21 13.01-6.32-.05.53-.16 1.34-.18 2.13-.1 3.18-.38 6.38-.05 9.45.34 3.24 2.52 5.1 5.5 4.86 5.79-.46 11.48-.99 17.26-1.62 2.8-.31 5.17-1.55 6.93-3.9.24-.28.56-.75.83-.68 3.47.34 5.12-2.17 7.07-4.35 2.19-2.47 4.78-4.26 8.3-4.45 2.2-.09 4.43-.97 6.94-1.52 0 0 .39.41.69.92 1.38 1.83 2.04 3.55.73 5.86-.61 1.2-.12 3.01-.08 4.6 0 1.15.37 2.44.1 3.52-.4 1.71-.37 3.21.47 4.82 2.26 4.06 5.51 7.16 9.24 9.77 2.05 1.43 4.2 1.79 6.62 1.16.78-.15 1.78.21 2.61.59 1.1.53 1.99 1.7 3.06 1.88 1.61.32 2.72.93 3.77 2 1.44 1.47 3.19 2.4 5.27 1.88 1.56-.39 2.3 0 2.86 1.54 1.23 3.26 3.32 4.06 6.68 3.01.94-.34 2.28-.18 3.28.18 2.27.79 4.39 1.95 6.57 2.75 1.45.5 2.22 1.33 2.51 2.72.42 2 .75 3.91.91 5.93.13 2.73.7 5.51-1.5 7.88-.33.29-.45 1.01-.41 1.45.44 2.26 1.05 4.42 3.02 5.85 3.28 2.39 7 3.69 11.06 3.72 1.77.04 3.6-.28 5.44-.34 2.38-.1 3.25.98 2.81 3.22-.13.54-.26 1.17-.48 1.71-1.91 4.83-.27 7.79 4.67 8.9.99.27 2.48 1.22 2.53 1.92.47 3.67 2.36 7.49-.27 11.14-.32.38-.64.84-.69 1.38-.1.98-.35 2.23.06 2.99.51.93.56 1.46 0 2.3-1.18 1.86-1.92 3.68-1.91 5.98.1 4.67-.14 9.37-.13 14.04 0 2.29.1 4.67.37 6.94.24 1.92 1.42 3.51 3.39 3.79 2.67.32 5.42.46 8.05.25 7.1-.56 12.86 5.34 12.19 12.46-.21 1.87.04 3.88.28 5.8.28 2.45 1.11 2.91 3.53 2.28 1.13-.26 2.24-.71 3.37-.88 2.79-.4 4.95 1.2 4.82 4.03-.1 3.19-.46 6.48-1.28 9.54-.88 3.42-1.15 3.36 1.91 5.15 3.05 1.79 4.41 4.51 4.24 7.96-.08 2.3-.52 4.54-.43 6.83.19 3.52-2.04 5.54-4.6 6.63-6.93 2.75-12.02 7.65-16.9 12.89-3.01 3.24-5.56 6.79-8.28 10.27-1.53 1.89-1.53 3.03-.04 5.04.4.59.8 1.17 1.28 1.66 2.32 2.55 5.22 4.62 4.67 8.81-.22 1.69 1.07 2.39 2.69 1.73.69-.23 1.28-.63 1.85-1.12 1.33-1.08 2.51-.64 3.47.34 3.76 4.03 7.91 7.41 12.46 10.32 2.04 1.25 3.68 2.98 4.21 5.32.42 2 1.66 2.08 3.23 1.78 1.48-.29 2.85-.84 4.4-1.32 1.12 1.94 2.64 2.09 3.9.22.55-.84 1.18-1.77 1.28-2.75.65-4.02 2.24-7.41 5-10.46 2.68-2.95 4.98-6.22 7.55-9.51.19.16.55.31.84.55 2.37 2.11 4.9 1.73 6.36-1.03.84-1.65 1.68-3.31 2.33-5.13 1.17-3.09 3.01-5.45 5.49-7.58 1.73-1.55 3.17-3.43 4.34-5.37 1.86-3.24 2.27-7.06 2.42-10.69.19-3.19.11-6.45.21-9.64-.01-1.24.16-2.49.24-3.64.3-3.99 3.4-7.33 2.52-11.67.91.37 1.56.76 2.29 1.05 1.27.43 2.22.18 2.72-1.27 1.07-3.26 3.76-4.97 6.67-6.08 2.31-.98 4.24-2.19 6.05-3.92 2.05-2.02 4.19-3.95 7.45-4.03 4.75-.2 9.04-1.68 12.09-5.63 2.65-3.39 5.67-4.15 9.52-2.34 2.47 1.13 5.12 1.1 7.81.53 5.2-1.2 9.58-3.84 13.65-7.16 3.15-2.63 5.91-5.58 7.36-9.58.94-2.63 2.54-4.79 5.17-6.05.85-.42 1.7-.84 2.26-1.5 3.1-4.39 6.19-8.87 9.18-13.43 1.49-2.32.5-4.89.48-7.36-.09-2.29-.02-4.76 1.89-6.24 3.32-2.64 4.81-6.2 5.92-10 .5-1.54.36-3.29.5-4.89-.11-.26.49-.48.56-.75.27-1.08.44-2.24.53-3.39.36-3.21.74-6.33 1.01-9.52.32-3.82.55-7.63.78-11.44.25-3.55.15-7.07.58-10.64.25-2.49 1.48-4.79 3.96-5.78 8.02-3.46 13.3-9.26 15.1-17.78.91-4.13 3.13-6.25 7.02-7.26 4.41-1.14 8.41-3.05 10.72-7.29.61-1.2.95-2.55 1.75-3.58 2.09-2.64 4.36-5.11 6.55-7.66 5.18-5.97 6.77-12.62 4.24-20.19-.91-2.58-1.47-5.18-2.12-7.86-.52-2.16-.54-4.55-1.32-6.6-1.77-4.54-4.69-8.02-10.11-8.47-1.51-.15-2.95-.47-4.46-.53-3.29-.27-6.12-1.46-8.33-3.76-3.86-4.2-7.65-8.58-11.26-12.97-2.34-2.82-4.17-5.94-8.5-5.95-.53.04-1.2-.7-1.6-1.29-2-2.93-4.75-4.3-8.2-4.39-1.86-.03-3.89-.05-5.51.61-4.7 1.96-9.2.9-13.62-.43-1.8-.48-3.65-1.48-4.98-2.7-1.71-1.54-3.7-2.18-5.83-2.28-4.08-.3-7.77 1.14-11.34 2.83-1.79.85-3.66 1.7-5.71 2.57.67-3.85 1.28-7.34 1.97-10.83.31-1.7.06-2.56-1.74-3.13-2.72-.93-5.3-2.23-7.87-3.53-1.29-.69-2.35-1.76-3.72-2.44-4.87-2.44-10.08-3.62-15.51-4.25-6.05-.67-11.6.65-16.21 4.89-2.3 2.12-4.61 4.16-6.85 6.1-.93-1.78-2.2-3.27-3.7-4.39.87-.16 1.81-.5 2.66-.92 1.7-.84 3.39-1.77 4.8-2.94 2.47-2.22 4.94-4.54 7.12-7.09 1.29-1.51.85-2.63-1.06-3.36-5.28-2.06-10.79-2.59-16.41-2.15-2.63.21-4.74 1.43-6.66 2.82-2 1.48-3.72 3.2-5.82 4.61-1.68 1.1-3.44 2.21-6.12 1.81.66-1.73.96-3.43 1.83-4.82 3.52-5.75 8.09-10.43 13.71-14.14 1.6-1.01 2.91-2.26 2.39-4.42-.39-1.56.14-2.66 1.3-3.63.91-.78 1.72-1.64 2.87-2.79-1.19-.52-1.93-.99-2.83-1.19-1.71-.48-3.67-.59-5.31-1.26-1.09-.44-2.23-1.41-2.58-2.45-.69-1.98-.68-4.18-1.37-6.25-1.43-4.74-3.13-9.46-4.61-13.76-2.31-1.32-3.64-.33-4.76 1.17-1.12 1.41-2.44 2.66-3.47 4.16-.47.74-.83 1.83-.58 2.69.56 2.6.59 3.04-1.82 3.85-2.14.79-3.36 2.21-3.91 4.19-.42 1.45-1.41 2.23-2.79 2.69-3.87 1.28-7.75 1.32-11.74 1.1-3.02-.2-5.79-.69-7.76-3.27-.4-.59-1.31-.96-1.93-1-2.58-.24-5.14-.3-7.72-.54-1.87-.21-2.87.49-3.8 2.15-1.61 3.13-5.73 6.8-10.71 5.26-3.17-.99-6.38-.29-9.45 1.01-2.91 1.2-5.92 2.14-8.95 2.91-2.16.61-4.38.43-6.26-1.1-4.05-3.21-6.59-7.43-7.61-12.55-.86-4.26.51-8.07 2.44-11.67 2.09-3.78 1.96-4.21-1.48-6.5-1.67-1.1-2.4-2.46-2.11-4.42.11-.8.58-1.63.35-2.23-.25-.95-.79-2.14-1.52-2.44-2.1-.89-3.63-.16-5.04 2.16-1.96 3.07-3.64 6.46-7.54 7.39-2.77.66-5.65 1.15-8.52 1.64-.69.14-1.42-.07-2.11.08-2.18.26-3.21 1.84-4.13 3.59-1.6 3.22-2.38 3.36-5.21 1.12-.28-.15-.48-.49-.75-.56-2.46-1.04-4.84-2.09-7.29-2.87-.63-.21-1.9.5-2.29 1.15-1.41 2.32-1.21 4.86-.39 7.36 1.14 3.26 2.92 5.68 6.46 6.99 3.09 1.17 3.2 4.78.52 6.58-.84.6-1.87.94-2.7 1.54-5.7 3.89-11.39 7.78-17.08 11.76-1.17.89-2.31.98-3.58.55-2.36-.87-4.56-.79-6.54.96-.24.28-1.03.35-1.4.11-2.86-1.63-5.23-3.65-6.12-7.11-.77-3.03-2.44-5.19-5.83-5.72-2.32-.35-4.3.34-6.35 1.21-2.91 1.2-5.79 1.52-8.99 1.33-2.22-.18-4.49.09-6.67.52-1.48.29-2.35 1.6-2.4 3.19-.04 1.68 1.08 2.56 2.54 3.07 1 .36 2.07.54 2.83 1.19.75.56 1.45 1.56 1.51 2.35.05.61-.85 1.57-1.53 1.89-1.02.43-2.25.62-3.39.71-4.11.5-5.84 3.2-3.88 6.84 1.24 2.29 2.91 4.45 4.74 6.34 3.38 3.7 4.02 7.36 1.53 11.62-1.4 2.4-2.7 4.89-1.58 7.89.22.6.02 1.41-.28 2.05-1.02 2.73-1.68 5.52-1.35 8.58.05.7-.15 1.51-.35 2.24-.31 1.61-.98 3.25-.94 4.84.04 3.88-1.51 5.41-5.2 4.56-3.51-.87-6.45-.11-9.39 1.8-1.01.61-2.32.8-3.54.98-1.4.11-2.83-.04-4.33-.1-.2 1.96-1.45 2.85-3.19 3.25-.43.12-.76.41-1.09.7-5.31 4.3-6.86 10.42-7.86 16.77-.31 1.7-.27 3.29-2.21 4.41-1.27.72-2.3 2.21-3.07 3.6-1.94 3.42-1.66 5.78 1.03 8.66 1.68.6 2.68 2.11 2.66 4.14"/><circle class="st1" cx="261.72" cy="317.89" r="154.02"/><ellipse transform="rotate(-89.853 261.721 317.888)" class="st1" cx="261.72" cy="317.89" rx="115.52" ry="115.52"/><ellipse transform="matrix(1 -.00254 .00254 1 -.806 .665)" class="st1" cx="261.72" cy="317.89" rx="69.09" ry="69.09"/><circle class="st1" cx="261.72" cy="317.89" r="190"/><path class="st2" d="M144.65 502.89c17.12 0 31-13.88 31-31s-13.88-31-31-31-31 13.88-31 31 13.88 31 31 31"/><path class="st3" d="M313.65 377.89c8.84 0 16-7.16 16-16s-7.16-16-16-16-16 7.16-16 16 7.16 16 16 16"/><path class="st4" d="M246.65 225.89c13.81 0 25-11.19 25-25s-11.19-25-25-25-25 11.19-25 25 11.19 25 25 25"/><path class="st5" d="M278.65 527.89c9.94 0 18-8.06 18-18s-8.06-18-18-18-18 8.06-18 18 8.06 18 18 18"/><path class="st6" d="M197.65 315.89c8.84 0 16-7.16 16-16s-7.16-16-16-16-16 7.16-16 16 7.16 16 16 16"/><path class="st3" d="M128.65 243.89c6.63 0 12-5.37 12-12s-5.37-12-12-12-12 5.37-12 12 5.37 12 12 12"/><path class="st7" d="M454.65 353.89c6.63 0 12-5.37 12-12s-5.37-12-12-12-12 5.37-12 12 5.37 12 12 12m-308-44.9c3.87 0 7-3.13 7-7s-3.13-7-7-7-7 3.13-7 7 3.13 7 7 7m16 82.9c5.52 0 10-4.48 10-10s-4.48-10-10-10-10 4.48-10 10 4.48 10 10 10"/><path class="st8" d="M295.65 263.89c3.31 0 6-2.69 6-6s-2.69-6-6-6-6 2.69-6 6 2.68 6 6 6"/><path class="st9" d="M385.65 415.89c8.84 0 16-7.16 16-16s-7.16-16-16-16-16 7.16-16 16 7.16 16 16 16"/><path class="st7" d="M406.48 374.4a5.166 5.166 0 0 0-7.31 0 5.166 5.166 0 0 0 0 7.31 5.166 5.166 0 0 0 7.31 0c2.02-2.01 2.02-5.29 0-7.31"/><path class="st10" d="M218.65 438.89c8.84 0 16-7.16 16-16s-7.16-16-16-16-16 7.16-16 16 7.16 16 16 16"/><path class="st11" d="M425.65 240.89c12.7 0 23-10.3 23-23s-10.3-23-23-23-23 10.3-23 23 10.3 23 23 23"/><path class="st7" d="M256.28 301.99h5.39v1.79h-5.39zm-3.59 9.65h8.98v1.79h-8.98zm-7.19-11.44v1.79h-1.79v1.8h1.79v1.79h1.8v-1.79h1.8v-1.8h-1.8v-1.79zm2.96 9.01l-2.06 2.05-2.06-2.05-1.26 1.26 2.05 2.06-2.05 2.06 1.26 1.27 2.06-2.06 2.06 2.06 1.27-1.27-2.06-2.06 2.06-2.06zm7.82-1.17h1.79v1.79h-1.79zm0 7.19h1.79v1.79h-1.79zm-8.08-29.39a.89.89 0 0 0-.88.74c-.21 1.14-.98 5.42-1.45 8.3l-1.39-2.31-1.54.92 2.69 4.49a.893.893 0 0 0 1 .4c.39-.1.66-.46.67-.86.01-.62.97-6.1 1.65-9.88h12.72v-1.8H248.2z"/><path class="st7" d="M253.32 299.04l2.96-2.96 2.95 2.96 1.27-1.27-2.95-2.96 2.95-2.95-1.27-1.27-2.95 2.95-2.96-2.95-1.27 1.27 2.96 2.95-2.96 2.96z"/><path class="st7" d="M268.22 305.58v13.15h-29.78V284h29.78v21.58zm0 16.05h-32.68v1.45h32.68v1.45h-31.95c-1.2 0-2.17-.97-2.17-2.17s.97-2.17 2.17-2.17h31.95v1.44zm-34.12-26.42v-1.08c-.05-.75.52-1.4 1.27-1.45h.18v-1.45c-.5-.01-1 .11-1.45.35v-3.97c0-1.72 1.21-3.2 2.89-3.55v34.65h-.72c-.79 0-1.55.26-2.17.74v-21.72c-.05-.75.52-1.4 1.27-1.45h.18v-1.45c-.51.02-1.01.14-1.45.38m34.84-12.65h-31.23a5.06 5.06 0 0 0-5.06 5.06v34.73c0 2 1.62 3.61 3.62 3.62h32.68c.4 0 .72-.32.72-.72v-41.96a.734.734 0 0 0-.73-.73"/><path class="st7" d="M268.84 294.17c5.05 0 9.14-4.09 9.14-9.14 0-5.05-4.09-9.14-9.14-9.14s-9.14 4.09-9.14 9.14c0 5.05 4.09 9.14 9.14 9.14"/><path class="st14" d="M268.84 279.91l1.67 3.37 3.72.54-2.69 2.62.63 3.71-3.33-1.75-3.33 1.75.64-3.71-2.69-2.62 3.72-.54z"/><path class="st15" d="M258.97 307.33s19.01 1.46 18.28 1.46c-.73 0 1.46 30.71 1.46 29.98 0-.73-23.4 0-23.4-.73s-.73-22.67-.73-22.67-.73-5.12 4.39-8.04"/><path class="st7" d="M290.42 330.52v13.26h-30v-35h30v21.74zm0 16.17H257.5v1.46h32.92v1.46h-32.19a2.19 2.19 0 1 1 0-4.38h32.19v1.46zm-34.38-26.62v-1.08c-.05-.76.52-1.41 1.28-1.46h.18v-1.46c-.51-.01-1.01.11-1.46.36v-4c0-1.73 1.22-3.22 2.92-3.57v34.91h-.73c-.79 0-1.56.27-2.19.75v-21.88c-.05-.76.52-1.41 1.28-1.46h.18v-1.46a2.97 2.97 0 0 0-1.46.35m35.11-12.74h-31.46c-2.82 0-5.1 2.29-5.1 5.1v34.98a3.64 3.64 0 0 0 3.64 3.64h32.92c.4 0 .73-.33.73-.73v-42.27a.739.739 0 0 0-.73-.72"/><path class="st7" d="M274.42 321.12l2.68 7h-5.35l2.67-7zm-7.76 16.26c.74.28 1.58-.08 1.86-.84l2.11-5.53h7.4c.06 0 .11-.01.15-.01l2.11 5.54c.22.58.77.93 1.35.93.18 0 .34-.04.52-.09a1.45 1.45 0 0 0 .84-1.86l-6.38-16.67c-.36-.93-1.23-1.53-2.22-1.53s-1.86.6-2.22 1.53l-6.38 16.67c-.26.73.11 1.56.86 1.86m24.85-18.35c5.05 0 9.14-4.09 9.14-9.14 0-5.05-4.09-9.14-9.14-9.14-5.05 0-9.14 4.09-9.14 9.14 0 5.05 4.09 9.14 9.14 9.14"/><path class="st14" d="M291.56 304.47l1.66 3.38 3.72.54-2.69 2.62.63 3.71-3.32-1.75-3.33 1.75.63-3.71-2.69-2.62 3.72-.54z"/><path class="st16" d="M482.14 232.68c3.03 0 5.49-2.46 5.49-5.49s-2.46-5.49-5.49-5.49c-3.03 0-5.49 2.46-5.49 5.49s2.45 5.49 5.49 5.49m7.11 1.75h-3.45a5.95 5.95 0 0 1 2 2.89c.01 0 .02.01.04.01 1.47.5 2.54 1.92 2.49 3.56v19.26c0 1.46 1.19 2.65 2.65 2.65s2.65-1.19 2.65-2.65v-19.49c-.02-3.43-2.88-6.23-6.38-6.23m-11.64 21.67c-.98 0-1.88-.4-2.51-1.06v30.22c0 1.76 1.41 3.18 3.17 3.18s3.18-1.42 3.18-3.18v-25.43h1.37v25.43c0 1.76 1.42 3.18 3.18 3.18 1.76 0 3.17-1.42 3.17-3.18v-30.22c-.64.65-1.53 1.06-2.51 1.06h-9.05zm-1.13-18.79a5.97 5.97 0 0 1 1.99-2.88h-3.45c-3.5 0-6.35 2.8-6.37 6.24v19.49c0 1.46 1.19 2.65 2.65 2.65s2.65-1.19 2.65-2.65v-18.95c-.22-1.78.92-3.39 2.53-3.9"/><path class="st16" d="M484.15 239.08h-4.03c0-.95.66-1.74 1.55-1.96h.94c.88.22 1.54 1.01 1.54 1.96m1.42 10.01c0 .72-.58 1.3-1.3 1.3H480a1.306 1.306 0 1 1 0-2.61h4.26c.73.01 1.31.59 1.31 1.31m-6.89-11.96c-.33.58-.52 1.25-.52 1.96h-.55c-.85 0-1.53.69-1.53 1.53v11.99c0 .85.69 1.53 1.53 1.53h9.05c.85 0 1.53-.69 1.53-1.53v-11.99c0-.85-.69-1.53-1.53-1.53h-.55a3.973 3.973 0 0 0-7.43-1.96"/><path class="st10" d="M556.44 228.61c0-2.96-2.4-5.37-5.37-5.37-2.96 0-5.36 2.4-5.36 5.37 0 2.96 2.4 5.37 5.36 5.37 2.96 0 5.37-2.41 5.37-5.37m7.72 13.19v-.02c-.02-3.36-2.76-6.1-6.13-6.1H544.1c-3.36 0-6.11 2.73-6.13 6.1l-.1 19.02a2.584 2.584 0 0 0 2.58 2.6h.01c1.42 0 2.58-1.15 2.59-2.58l.1-19.02v-.01a.514.514 0 0 1 1.03 0v43.52c0 1.72 1.39 3.11 3.11 3.11s3.11-1.39 3.11-3.11V260.5h1.34v24.83c0 1.72 1.39 3.11 3.11 3.11s3.11-1.39 3.11-3.11c0-41.07-.05-17.58-.06-43.49a.54.54 0 0 1 1.08-.04l-.02 19.01a2.59 2.59 0 0 0 5.18 0l.02-19.01zm10.76-17.74c.11-.39-.03-.65-.4-.81-.67-.29-1.36-.51-2.09-.63-.95-.14-.94-.15-.95-1.1-.01-1.34-.01-1.34-1.35-1.34-.2 0-.39-.01-.59 0-.63.02-.74.13-.75.76v.85c-.01.85-.01.83-.81 1.12-1.95.71-3.15 2.04-3.28 4.16-.11 1.88.87 3.15 2.41 4.08.95.57 2.01.91 3.02 1.36.39.17.77.38 1.1.65.97.8.79 2.13-.36 2.64-.62.27-1.28.34-1.94.26-1.03-.13-2.02-.4-2.95-.88-.54-.28-.7-.2-.89.38-.17.51-.3 1.03-.45 1.54-.19.69-.12.86.54 1.18.84.41 1.73.62 2.65.76.72.11.74.14.75.89 0 .33 0 .67.01 1.01.01.42.21.67.65.68.5.02 1 .02 1.49 0 .41-.01.62-.23.62-.64 0-.46.02-.93 0-1.39-.02-.47.18-.71.63-.83 1.03-.29 1.92-.84 2.61-1.67 1.89-2.3 1.17-5.67-1.49-7.17-.84-.47-1.73-.81-2.62-1.18-.51-.21-1.01-.46-1.44-.81-.86-.68-.69-1.79.31-2.22.28-.12.58-.17.88-.18a6.65 6.65 0 0 1 3.31.66c.53.26.7.17.87-.37.19-.6.34-1.18.51-1.76"/><path class="st7" d="M516.65 222.32a5.44 5.44 0 0 1 5.44 5.44 5.44 5.44 0 1 1-10.88 0c0-3 2.43-5.44 5.44-5.44m16.84 35.3c-.04-.12-4.33-11.85-6.22-17.34-1.22-3.55-3.26-5.34-6.07-5.34h-.42c.7.68 1.24 1.53 1.53 2.49 1.37.47 2.35 1.77 2.35 3.3v7.94c1.87 5.23 3.87 10.68 3.9 10.76a2.64 2.64 0 0 0 3.37 1.57 2.638 2.638 0 0 0 1.56-3.38m-21.39-22.68c-2.81 0-4.85 1.8-6.07 5.34-1.89 5.49-6.17 17.22-6.22 17.34-.5 1.36.2 2.87 1.57 3.37 1.36.5 2.87-.2 3.37-1.57.03-.08 2.02-5.53 3.9-10.76v-7.94c0-1.53.98-2.83 2.35-3.3.3-.96.83-1.8 1.53-2.49h-.43zm14.97 29.56c-1.1-5.69-1.87-9.65-2.41-12.41v.61a3.5 3.5 0 0 1-3.49 3.49h-9.04c-1.92 0-3.49-1.56-3.49-3.49v-.62c-.54 2.77-1.3 6.72-2.41 12.41-.17.9.52 1.74 1.43 1.74h2v19.05a3.15 3.15 0 1 0 6.3 0v-19.05h1.36v19.05a3.15 3.15 0 1 0 6.3 0v-19.05h2c.93.01 1.62-.82 1.45-1.73"/><path class="st7" d="M518.78 250.5h-4.26c-.72 0-1.3-.58-1.3-1.3 0-.72.58-1.3 1.3-1.3h4.26c.72 0 1.31.58 1.31 1.3-.01.71-.59 1.3-1.31 1.3m-2.6-13.27h.94c.88.21 1.54 1.01 1.54 1.96h-4.03c0-.95.66-1.74 1.55-1.96m4.99 1.96h-.55c0-.71-.19-1.38-.52-1.96a3.96 3.96 0 0 0-3.45-2.01c-1.48 0-2.77.81-3.45 2.01-.33.58-.52 1.25-.52 1.96h-.55c-.85 0-1.53.69-1.53 1.53v11.98c0 .85.69 1.53 1.53 1.53h9.04c.85 0 1.53-.69 1.53-1.53v-11.98c0-.84-.68-1.53-1.53-1.53"/></svg>