<svg class="{{ .class }}" data-name="Layer 1" xmlns="http://www.w3.org/2000/svg" viewBox="0 0 83.08 149.69"><defs><style>.cls-3{fill:#455b64}</style></defs><path d="M80.25 2.92L71.01.2a4 4 0 0 0-5 2.73L26.37 138.68l16.87 5L82.92 7.77a3.94 3.94 0 0 0-2.67-4.85zM35.62 134.68a2.05 2.05 0 1 1 1.39 2.55 2.05 2.05 0 0 1-1.39-2.55z" fill="#42bfb1"/><path d="M26.37 138.68l4.22 1.25L71.74.4l-.82-.24a3.87 3.87 0 0 0-4.82 2.63z" fill="#00acc1"/><path class="cls-3" d="M40.667 130.404l.452-1.535 5.947 1.753-.452 1.535zm3.69-2.559l.28-.95 3.232.953-.28.95zm.773-2.637l.28-.95 3.222.95-.28.95zm-.663-5.158l.278-.95 3.225.943-.278.95z"/><path class="cls-3" d="M46.67 119.958l.28-.95 3.213.948-.28.95zm-1.89-3.472l.453-1.535 5.909 1.742-.453 1.534zm3.679-2.595l.28-.95 3.194.942-.28.95zm.779-2.627l.28-.95 3.195.942-.28.95zm.77-2.62l.28-.95 3.185.939-.28.95zm.768-2.614l.28-.949 3.175.936-.28.95zm-1.9-3.507l.452-1.535 5.88 1.733-.452 1.534zm3.714-2.547l.28-.95 3.165.933-.28.95zm.791-2.591l.28-.95 3.156.93-.28.95zm.727-2.678l.28-.95 3.156.93-.28.95zm.794-2.618l.28-.95 3.146.928-.28.95zm-1.9-3.501l.452-1.535 5.842 1.722-.452 1.534zm3.718-2.528l.28-.95 3.137.925-.28.95zm.758-2.656l.28-.95 3.127.922-.28.95zm.754-2.622l.28-.95 3.117.919-.28.95zm.765-2.647l.28-.95 3.117.92-.28.95zm-1.907-3.52l.452-1.535 5.813 1.713-.453 1.535zm3.663-2.562l.28-.95 3.098.914-.28.95zm.825-2.586l.28-.95 3.089.91-.28.95zm-.787-5.064l.278-.95 3.09.903-.277.95z"/><path class="cls-3" d="M63.132 64.246l.28-.95 3.08.908-.28.95zM61.22 60.7l.453-1.536 5.774 1.702-.452 1.535zm3.712-2.53l.28-.95 3.07.904-.28.95zm.852-2.938l.28-.95 3.06.902-.28.95zm.763-2.629l.28-.95 3.05.899-.28.95zm.763-2.64l.28-.95 3.05.9-.28.949zm-1.914-3.52l.452-1.535 5.746 1.693-.453 1.535zm3.721-2.537l.28-.95 3.03.893-.28.95zm.727-2.678l.28-.95 3.021.89-.28.95zm.822-2.57l.28-.95 3.022.891-.28.95zm.764-2.639l.279-.95 3.012.888-.28.95zm-1.925-3.521l.452-1.534 5.707 1.682-.452 1.534zm3.697-2.548l.28-.95 3.002.884-.28.95zm.818-2.597l.28-.95 2.992.883-.28.95zm.739-2.641l.28-.95 2.983.88-.28.949zm.803-2.616l.28-.95 2.983.88-.28.95zm-1.948-3.542l.452-1.535 5.679 1.674-.453 1.534zm3.697-2.549l.28-.95 2.964.874-.28.95zm.794-2.608l.28-.95 2.954.87-.28.95zm.78-2.627l.28-.95 2.954.87-.28.95zm.731-2.652l.28-.95 2.945.869-.28.95z"/><path d="M15.74 27.77l-6.09 1.18a1 1 0 0 1-1.09-1.26l1.41-9.07a.9.9 0 0 1 .69-.79.91.91 0 0 1 .93.47l4.69 7.9a1 1 0 0 1-.54 1.57z" fill="#61cbe8"/><path d="M38.74 132.5l-1.16-6-17.15-88.67-.85-4.4-.57-3-4.27-7.22-3 .56-2.92.56-1.24 8.36.58 3 17.46 90.08.34 1.74 1.39 7.18a.67.67 0 0 0 .78.53l6-1.15.82-.16.68-.13 2.57-.5h.21a.46.46 0 0 0 .36-.53z" fill="#5462ad"/><path d="M54.39 38.55l-6.23 1.2a1.06 1.06 0 0 1-1.11-1.28l1.44-9.27a.92.92 0 0 1 .7-.81.93.93 0 0 1 1 .48l4.79 8.07a1.06 1.06 0 0 1-.59 1.61z" fill="#e61a4a"/><path d="M77.33 143.48l-1.16-6-17.15-88.67-.85-4.4-.57-3-4.27-7.29-2.91.56-2.92.56-1.24 8.36.58 3 17.42 90.17.34 1.75 1.39 7.18a.66.66 0 0 0 .78.52l6-1.15.82-.16.68-.13 2.57-.5h.21a.45.45 0 0 0 .36-.52z" fill="#1597a7"/><path d="M43.98 29.77l-6-1.47a1 1 0 0 1-.46-1.6l5.06-7.66a.93.93 0 0 1 1-.43.91.91 0 0 1 .65.82l1 9.13a1 1 0 0 1-1.25 1.21z" fill="#f17e29"/><path d="M21.23 134.53l1.43-5.89 21.37-87.75 1.06-4.35.72-2.95-.84-8.4-2.89-.7-2.89-.71-4.6 7.08-.72 2.95-21.71 89.16-.42 1.73-1.73 7.1a.65.65 0 0 0 .49.8l5.9 1.44.81.2.68.16 2.53.62h.21a.45.45 0 0 0 .55-.33z" fill="#fff"/><path d="M4.94 55.51h67.6a4.94 4.94 0 0 1 4.94 4.94v89.25H0V60.44a4.94 4.94 0 0 1 4.94-4.93z" fill="#693996"/></svg>