<svg id="Layer_1" data-name="Layer 1" xmlns="http://www.w3.org/2000/svg" viewBox="0 0 433.1 443.62"><defs><style>.cls-1{fill:#ed5655}</style></defs><title>text_pt</title><path class="cls-1" d="M366.1 103.2L284 21.09a13.21 13.21 0 0 0-9.37-3.89H69.85c-8.34 0-17.37 6.48-17.37 20.64v374.5c0 5.89 5.93 11.64 13 13.46a10.77 10.77 0 0 0 1.07.31 18 18 0 0 0 3.34.31h282.74a18 18 0 0 0 3.34-.31 10.77 10.77 0 0 0 1.07-.31c7-1.82 12.95-7.57 12.95-13.46v-296.5c0-5.41-.65-9.41-3.89-12.64zm-21.26-1.31h-59.53V42.36zm-275 310.45a5.07 5.07 0 0 1-1.39-.35 3.23 3.23 0 0 1-1.85-2.93V306.5h289.26v102.56A3.25 3.25 0 0 1 354 412a5.09 5.09 0 0 1-1.38.35zm-3.24-120V37.84c0-1.52.21-6.51 3.24-6.51h201.8a9.88 9.88 0 0 0-.42 2.75V116h81.89a10.06 10.06 0 0 0 2.75-.42v176.79zm0 0"/><path class="cls-1" d="M101.89 116h42.3a7 7 0 1 0 0-14.09h-42.3a7 7 0 1 0 0 14.09zm0 35.25h63.49a7 7 0 1 0 0-14.08h-63.49a7 7 0 1 0 0 14.08zm91.71 0a7 7 0 1 0-7.07-7.06 7.45 7.45 0 0 0 2.08 5 7.35 7.35 0 0 0 5 2zm28.21 0h56.48a7 7 0 0 0 0-14.08h-56.48a7 7 0 1 0 0 14.08zM96.86 245a7.09 7.09 0 1 0 12 5 7.29 7.29 0 0 0-2-5 7.39 7.39 0 0 0-10 0zm89.67-2h-56.42a7 7 0 1 0 0 14.08h56.42a7 7 0 1 0 0-14.08zm134.06-105.83H306.5a7 7 0 1 0 0 14.08h14.09a7 7 0 1 0 0-14.08zm-218.7 49.36h155.2a7 7 0 1 0 0-14.08h-155.2a7 7 0 1 0 0 14.08zm218.7-14.08h-42.3a7 7 0 1 0 0 14.08h42.3a7 7 0 1 0 0-14.08zm-218.7 49.36h28.22a7 7 0 1 0 0-14.08h-28.22a7 7 0 1 0 0 14.08zm126.99-14.08h-70.56a7 7 0 1 0 0 14.08h70.56a7 7 0 1 0 0-14.08zm91.71 0h-63.5a7 7 0 1 0 0 14.08h63.5a7 7 0 1 0 0-14.08zM113.3 327.23h24.48q9.51 0 14.73 5.1t5.22 14.46a29.31 29.31 0 0 1-1.72 9.78q-1.72 4.89-7.25 8.52t-13.9 3.62h-5.41V396H113.3zm16.15 13.25v14.73H133a9.15 9.15 0 0 0 6.25-2 7.23 7.23 0 0 0 2.33-5.74 6.91 6.91 0 0 0-1.79-5.22 7.45 7.45 0 0 0-5.37-1.73zm56.46-14.38q12.47 0 19.66 9.41t7.19 25.71q0 16.36-7.24 26.09T186.75 397a20.87 20.87 0 0 1-18.53-10.1q-6.54-10.11-6.55-25.18a51.83 51.83 0 0 1 3.2-18.74q3.21-8.29 9-12.61a19.83 19.83 0 0 1 12.04-4.27zm1.72 14.48q-4.81 0-7.39 5.57t-2.56 15.22q0 9.81 2.49 15.39t6.87 5.6q4.34 0 7-5.77t2.61-15.37q0-9.95-2.64-15.29t-6.38-5.35zm31.83-13.35h24.68q8.37 0 13.57 4.34t5.2 12.31a17.2 17.2 0 0 1-3.72 11.12q-3.72 4.6-11.16 7.27 9.32 1.47 11.53 11.82l4.68 21.91H246.7l-2.56-19q-.7-4.83-2.29-7.05a5.64 5.64 0 0 0-4.9-2.22h-1.48V396h-16zm16 13.35v14.73H239a7.23 7.23 0 0 0 5.71-2.22 8.14 8.14 0 0 0 2-5.61 7 7 0 0 0-1.72-5.18 7.14 7.14 0 0 0-5.22-1.72zm31.09-13.35H310v13.94h-14V396h-16v-54.83h-13.45z"/></svg>