<svg xmlns="http://www.w3.org/2000/svg" viewBox="0 0 271.8 221.04"><defs><style>.cls-1{fill:#7b53a2;}.cls-2{fill:#f2f9fd;}.cls-3{fill:#deede8;}.cls-4{fill:#794a9e;}.cls-5{fill:#5d55a4;}.cls-6{fill:#6e68af;}.cls-7{fill:#fff;}.cls-8{fill:#f1eeeb;}.cls-9{fill:#645ba8;}.cls-10{fill:#f89938;}.cls-11{fill:#f9ab64;}.cls-12{fill:#fecc8f;}.cls-13{fill:#00adc1;}.cls-14{fill:#5d497d;}.cls-15{fill:#a764a9;}.cls-16{fill:#3bbeb3;}.cls-17{fill:#fcd2af;}.cls-18{fill:#5fc0a9;}.cls-19{fill:#312e34;}.cls-20{fill:#434343;}.cls-21{fill:#ffcb5e;}.cls-22{fill:#f9a55a;}.cls-23{fill:#f47c28;}</style></defs><title>Asset 3</title><g id="Layer_2" data-name="Layer 2"><g id="Layer_1-2" data-name="Layer 1"><rect class="cls-1" x="154.41" y="75.07" width="117.39" height="145.96" rx="6.39"/><rect class="cls-2" x="159.88" y="79.26" width="105.91" height="137.45" rx="5.77"/><rect class="cls-3" x="226.15" y="79.26" width="31.83" height="137.45"/><path class="cls-4" d="M247.41,67.68H153.88V221h93.53a6.41,6.41,0,0,0,6.39-6.44V74.11A6.41,6.41,0,0,0,247.41,67.68Z"/><path class="cls-1" d="M156.23,67.68H142.8a6.39,6.39,0,0,0-6.39,6.39V213.64A6.39,6.39,0,0,0,142.8,220h13.43Z"/><path class="cls-5" d="M80.56,178.55H5.06A5.05,5.05,0,0,0,0,183.61V216A5.06,5.06,0,0,0,5.06,221h75.5Z"/><path class="cls-6" d="M89.23,212.62V187a2.8,2.8,0,0,1,2.8-2.8h111.7a2.8,2.8,0,0,0,2.8-2.81h0a2.8,2.8,0,0,0-2.8-2.8H73.59a5.06,5.06,0,0,0-5.06,5.06V216A5.07,5.07,0,0,0,73.59,221H203.73a2.8,2.8,0,0,0,2.8-2.81h0a2.8,2.8,0,0,0-2.8-2.8H92A2.8,2.8,0,0,1,89.23,212.62Z"/><path class="cls-7" d="M85.55,184.16H201.38a0,0,0,0,1,0,0v31.27a0,0,0,0,1,0,0H85.55a9.29,9.29,0,0,1-9.29-9.29V193.45A9.29,9.29,0,0,1,85.55,184.16Z"/><path class="cls-8" d="M76.26,204.94v1.2a9.29,9.29,0,0,0,9.29,9.29H201.38V204.94Z"/><rect class="cls-9" x="11.04" y="193.09" width="43.21" height="14.4"/><path class="cls-10" d="M99.44,147.9H23.93A5.06,5.06,0,0,0,18.87,153v21.3a5.06,5.06,0,0,0,5.06,5.06H99.44V147.9Z"/><path class="cls-11" d="M108.1,170.91v-14.6a2.8,2.8,0,0,1,2.81-2.8H222.6a2.8,2.8,0,0,0,2.8-2.81h0a2.8,2.8,0,0,0-2.8-2.8H92.47A5.05,5.05,0,0,0,87.41,153v21.3a5.05,5.05,0,0,0,5.06,5.06H222.6a2.8,2.8,0,0,0,2.8-2.8h0a2.8,2.8,0,0,0-2.8-2.81H110.91A2.8,2.8,0,0,1,108.1,170.91Z"/><path class="cls-7" d="M220.25,173.71H104.42a9.29,9.29,0,0,1-9.29-9.29V162.8a9.29,9.29,0,0,1,9.29-9.29H220.25Z"/><path class="cls-8" d="M95.13,163.23v1.19a9.29,9.29,0,0,0,9.29,9.29H220.25V163.23Z"/><polygon class="cls-12" points="28.75 179.32 34.71 179.32 34.71 147.9 34.71 147.9 28.75 147.9 28.75 147.9 28.75 179.32"/><path class="cls-7" d="M218.9,123.39A9.58,9.58,0,0,1,216,119a11.11,11.11,0,0,1,2.15-10.44,9.63,9.63,0,0,1,4.4-2.84,10.9,10.9,0,0,1,5.52-.21,11,11,0,0,1,4.41,1.89,9.07,9.07,0,0,1,2.85,3.42l-4,2.48a5.56,5.56,0,0,0-3.93-3.18,5.36,5.36,0,0,0-2.85.14,4.78,4.78,0,0,0-2.23,1.57,7,7,0,0,0-1.2,5.81,4.81,4.81,0,0,0,1.43,2.33,5.27,5.27,0,0,0,2.56,1.25,5.55,5.55,0,0,0,4.87-1.37l2.7,3.86a9.21,9.21,0,0,1-4,2,11.25,11.25,0,0,1-4.8,0A10.84,10.84,0,0,1,218.9,123.39Z"/><path class="cls-7" d="M209.93,111.94a4.35,4.35,0,0,1,.81,2.66,4,4,0,0,1-1.76,3.51,8.72,8.72,0,0,1-5.08,1.24h-9V102h8.5a8.06,8.06,0,0,1,4.84,1.22,3.89,3.89,0,0,1,1.66,3.3,4.23,4.23,0,0,1-.58,2.22,4.09,4.09,0,0,1-1.65,1.54A4.67,4.67,0,0,1,209.93,111.94Zm-10.35-6.38v3.34h3.23c1.58,0,2.38-.56,2.38-1.68s-.8-1.66-2.38-1.66Zm6.41,8.49c0-1.17-.82-1.76-2.47-1.76h-3.94v3.52h3.94C205.17,115.81,206,115.22,206,114.05Z"/><path class="cls-7" d="M182.26,109.28a5.54,5.54,0,0,1,2.92,1.49,7.89,7.89,0,0,1,1.95,3.25l2.47,7.32-3.68,1.24-1-3-5.06,1.71,1,3-3.62,1.22-2.47-7.32a7.79,7.79,0,0,1-.41-3.77,5.56,5.56,0,0,1,1.42-3,7.68,7.68,0,0,1,6.48-2.18Zm1.65,7.34-.56-1.69a3.44,3.44,0,0,0-1.45-2,2.48,2.48,0,0,0-2.09-.13,2.5,2.5,0,0,0-1.6,1.38,3.41,3.41,0,0,0,.07,2.47l.57,1.68Z"/><path class="cls-7" d="M191,96s6.77,0,7,1.21-7.11,1.85-7.49,1.09S191,96,191,96Z"/><path class="cls-7" d="M203.34,93s6.77,0,7,1.21-7.11,1.85-7.48,1.09S203.34,93,203.34,93Z"/><path class="cls-13" d="M181.05,31.71s4-1.05,6.36,3.59-.25,9.62,1.58,14-2.28,6.44-5.75,3S179.3,34.23,181.05,31.71Z"/><path class="cls-14" d="M188.88,6.17C186.72.38,180-1.39,174.65,1.1c-2.35,1.09-2.87,3.09-5.37,3.89S164.43,4.1,162,4c-6.27-.14-8.86,7.05-14.1,8.91-5.69,2-12.26-1.35-17,3.66A13.59,13.59,0,0,0,128.12,30c1.84,5.19,7.18,7.29,12.34,7.17a17.21,17.21,0,0,0,7-1.48c2.49-1.24,4.31-3.45,6.55-5.06,2-1.46,4.23-2.28,6.71-1.5s4.13,2.74,6.47,3.61c3.12,1.16,8.37.32,11.17-1.06a23.35,23.35,0,0,0,7.36-5.83C190.16,20.9,191.11,12.58,188.88,6.17Z"/><path class="cls-15" d="M168.82,56.76s-4,8.1,3.44,10.72A92.66,92.66,0,0,1,184.57,70s4.2,28,6.09,27.33,2.14-.38,2.3-2.75-1.21-25.42-2.89-27.91S177.91,59,177.91,59l-9.09-2.19"/><path class="cls-15" d="M177.57,56.06s-2.61,9.3,5.09,11.17c7.39.29,11.88.41,11.88.41s6.93,27.46,8.74,26.61,2.09-.59,2-3-3.7-25.19-5.61-27.5-12.86-6.44-12.86-6.44l-10.29-.47"/><path class="cls-16" d="M177.07,29.42s4.81.83,6.17,2.93,1.24,4.1,2.74,6.71-1.15,4.62-.22,8.37.41,3.88,2.35,7.36-.32,4.84-3.1,6.33-13.33,1.9-16.09-2-.2-4.54.82-7.32-1.11-8.9-1.29-13.77,1.48-7.1,5.07-8.2S177.07,29.42,177.07,29.42Z"/><path class="cls-17" d="M183.18,8.34s3.61,8.61.46,14.74c-3,4.92-5.36,4.44-3.47,9.24,0,0-3.92,2.59-7.64-1.67,0,0,3.22-1.71.32-5.42-2.2-2.79-4.5-10.12-3.19-15.14s4.5-6,8-5.57S182.77,6.79,183.18,8.34Z"/><path class="cls-18" d="M169.87,32.57a1,1,0,0,0-.42.07c-.8.27-2.56,1.44-4,6.5-1.9,6.73-3.69,9.78-2.79,12.09s13.62,9.49,16,9,1.84-1.86.35-3.28-9.54-5.39-9.52-7.63,6.26-8.82,4.64-12.23"/><path class="cls-19" d="M198.15,59.71s.82,1.15-.71,1.84-19.17,2.38-19.75,2.14-.79-1.44-.79-1.44Z"/><path class="cls-20" d="M174.41,49.79a3.93,3.93,0,0,1,3.37-4.3c7.15-1,22-2.76,22.68-1.07.71,1.87-1.08,11.9-1.68,15.12a1.38,1.38,0,0,1-1.19,1.12l-20.34,2.53A1.39,1.39,0,0,1,175.69,62Z"/><path class="cls-7" d="M189.72,54a2.17,2.17,0,1,1-2-2.31A2.16,2.16,0,0,1,189.72,54Z"/><path class="cls-14" d="M163.7,18.29s7.75,2.14,13.85-5.54c4-5.12,11.12-2.58,11.12-2.58s-5-12.73-16.8-5.24C161.78,11.31,163.41,15.68,163.7,18.29Z"/><path class="cls-21" d="M70,72.85V83.44a.6.6,0,0,1-.6.6h-2a.6.6,0,0,1-.6-.6v-8a.6.6,0,0,0-.6-.6h-.9a.6.6,0,0,1-.6-.6V72.85a.6.6,0,0,1,.6-.6h4.1A.6.6,0,0,1,70,72.85Z"/><path class="cls-21" d="M82.44,81.43v2a.6.6,0,0,1-.6.6H72.37a.6.6,0,0,1-.6-.6V81.76a.64.64,0,0,1,.18-.43l5-4.82a5.12,5.12,0,0,0,1-1.25,2.38,2.38,0,0,0,.25-1.05,1.36,1.36,0,0,0-.45-1.09,2,2,0,0,0-1.31-.38,2.91,2.91,0,0,0-1.4.35,3,3,0,0,0-.75.62.59.59,0,0,1-.76.14l-1.86-1.08a.6.6,0,0,1-.18-.88,5.8,5.8,0,0,1,1.88-1.62,7,7,0,0,1,3.42-.8,6.84,6.84,0,0,1,2.77.53,4.32,4.32,0,0,1,1.88,1.52,4,4,0,0,1,.68,2.3A5.14,5.14,0,0,1,81.59,76a8.38,8.38,0,0,1-1.85,2.34l-1.52,1.46a.6.6,0,0,0,.42,1h3.2A.59.59,0,0,1,82.44,81.43Z"/><path class="cls-21" d="M94.71,75.89a4.62,4.62,0,0,1,1,3A5.1,5.1,0,0,1,95,81.61a5.39,5.39,0,0,1-2.29,2,8.6,8.6,0,0,1-3.8.76A13.06,13.06,0,0,1,85.63,84a10.38,10.38,0,0,1-2.32-.9.61.61,0,0,1-.26-.79l1.1-2.37a.59.59,0,0,1,.83-.27,7.67,7.67,0,0,0,1.52.66,8,8,0,0,0,2.28.35,3.25,3.25,0,0,0,1.82-.45,1.43,1.43,0,0,0,.67-1.26q0-1.59-2.4-1.59H87.61a.6.6,0,0,1-.6-.6V74.64a.59.59,0,0,1,.15-.4l1.77-2a.6.6,0,0,0-.45-1H84.22a.6.6,0,0,1-.6-.6V68.28a.6.6,0,0,1,.6-.6H94.37a.6.6,0,0,1,.6.6v2.07a.59.59,0,0,1-.16.4l-2.46,2.76a.6.6,0,0,0,.23,1A4.77,4.77,0,0,1,94.71,75.89Z"/><rect class="cls-10" x="64.98" y="125.01" width="7.66" height="16.89"/><path class="cls-21" d="M64.51,139.4H73.9a5,5,0,0,1,5,5v0a0,0,0,0,1,0,0H59.51a0,0,0,0,1,0,0v0A5,5,0,0,1,64.51,139.4Z"/><path class="cls-22" d="M52.94,144.41H85.47a3.6,3.6,0,0,1,3.6,3.6v0a0,0,0,0,1,0,0H49.34a0,0,0,0,1,0,0v0a3.6,3.6,0,0,1,3.6-3.6Z"/><path class="cls-23" d="M75.15,124.23l.25-.43c.07-.12.13-.25.19-.38l.07-.15a7.64,7.64,0,0,0,.29-.8l.06-.22c.06-.23.1-.46.14-.69l0-.2,0-.2H77v-1.78H61.38v1.78h0a1,1,0,0,1,.94.77,7,7,0,0,0,10.2,4.75h0a6.76,6.76,0,0,0,.72-.46l.16-.12c.18-.13.36-.28.53-.43l.14-.13a6.76,6.76,0,0,0,.58-.62l0-.07C74.87,124.65,75,124.44,75.15,124.23Z"/><path class="cls-10" d="M101.43,88.56a32.23,32.23,0,1,1-64.45,0Z"/><rect class="cls-21" x="33.38" y="83.56" width="71.64" height="8.13" rx="4.07"/></g></g></svg>