<svg xmlns="http://www.w3.org/2000/svg" viewBox="0 0 52.54 152.05"><defs><style>.cls-1{fill:#cdeaeb;}.cls-2{fill:#252333;}.cls-3{fill:#434343;}.cls-4{fill:#7c4a48;}.cls-5{fill:#cb90c0;}.cls-6{fill:#6c3e3e;}.cls-7,.cls-8{fill:#27364f;}.cls-10,.cls-7,.cls-9{fill-rule:evenodd;}.cls-9{fill:#27b78b;}.cls-10{fill:#19996f;}</style></defs><title>Asset 1</title><g id="Layer_2" data-name="Layer 2"><g id="Layer_1-2" data-name="Layer 1"><polygon class="cls-1" points="46.65 152.05 49.03 152.05 16.72 0 14.33 0 46.65 152.05"/><polygon class="cls-1" points="32.32 152.05 34.71 152.05 2.39 0 0 0 32.32 152.05"/><polygon class="cls-1" points="3.72 8.76 17.25 8.76 16.8 6.63 3.27 6.63 3.72 8.76"/><polygon class="cls-1" points="5.58 17.51 19.11 17.51 18.66 15.39 5.13 15.39 5.58 17.51"/><polygon class="cls-1" points="7.44 26.27 20.97 26.27 20.52 24.15 6.99 24.15 7.44 26.27"/><polygon class="cls-1" points="9.3 35.03 22.84 35.03 22.38 32.9 8.85 32.9 9.3 35.03"/><polygon class="cls-1" points="11.16 43.78 24.7 43.78 24.25 41.66 10.71 41.66 11.16 43.78"/><polygon class="cls-1" points="13.03 52.54 26.56 52.54 26.11 50.42 12.57 50.42 13.03 52.54"/><polygon class="cls-1" points="14.89 61.3 28.42 61.3 27.97 59.17 14.44 59.17 14.89 61.3"/><polygon class="cls-1" points="16.75 70.05 30.28 70.05 29.83 67.93 16.3 67.93 16.75 70.05"/><polygon class="cls-1" points="18.61 78.81 32.14 78.81 31.69 76.69 18.16 76.69 18.61 78.81"/><polygon class="cls-1" points="20.47 87.57 34 87.57 33.55 85.44 20.02 85.44 20.47 87.57"/><polygon class="cls-1" points="22.33 96.32 35.86 96.32 35.41 94.2 21.88 94.2 22.33 96.32"/><polygon class="cls-1" points="24.19 105.08 37.73 105.08 37.27 102.96 23.74 102.96 24.19 105.08"/><polygon class="cls-1" points="26.05 113.83 39.59 113.83 39.14 111.71 25.6 111.71 26.05 113.83"/><polygon class="cls-1" points="27.91 122.59 41.45 122.59 41 120.47 27.46 120.47 27.91 122.59"/><polygon class="cls-1" points="29.78 131.35 43.31 131.35 42.86 129.23 29.32 129.23 29.78 131.35"/><polygon class="cls-1" points="31.64 140.1 45.17 140.1 44.72 137.98 31.19 137.98 31.64 140.1"/><path class="cls-2" d="M33.87,124.12S29,127.18,29.67,128s5.6-1.41,5.92-2.23-.83-1.85-.83-1.85Z"/><path class="cls-3" d="M36,95.82c-.25,0-7.34,7.93-7.76,11s4,17.44,5,17.69,2.21,0,2.29-.51-2.16-15.14-1.4-15.91,7.6-3.61,8.62-8.19S36,95.82,36,95.82Z"/><path class="cls-3" d="M45.65,99.3s-2,9.42-3.95,12.22,1.28,19.73.51,20.37a1.49,1.49,0,0,1-2.42-.51c-.63-1.15-3.43-14.64-3.56-18.72S37.37,99,37.37,99Z"/><path class="cls-4" d="M27,78.29c0-.19-.26-2.67-1.91-2.67s-2.23,1.14-1.72,1.27a1.37,1.37,0,0,0,.89-.06s.64,1.91,1.34,2A1.89,1.89,0,0,0,27,78.29Z"/><path class="cls-5" d="M33.43,84c-1.62,1.62-4.59-4.84-6.24-6.11s-2.42.13-2.42.13S27.44,87,30,89.75s7.89-.76,11.33-5.22c2.86-3.7.09-4.5-1.15-4.67-.25,0-.44,0-.5,0A16.86,16.86,0,0,0,33.43,84Z"/><path class="cls-2" d="M41.45,131.76a1.56,1.56,0,0,1,.51,1.66c-.26,1.14-3.44,5.09-4.46,4.58s2.29-6.62,2.29-6.62Z"/><path class="cls-6" d="M44.51,76.78a3.76,3.76,0,0,0,.87,4.2c1.95,1.68-4.77-1.37-4.77-1.37s1.65-2.73.6-4.13S44.51,76.78,44.51,76.78Z"/><path class="cls-4" d="M44.77,66a3.56,3.56,0,0,0-4,1.52c-1.64,2.81-3,7.62-2.38,9.28,1.13,2.83,8.24,4.38,10.37.31C50.64,73.52,50.61,67.43,44.77,66Z"/><path class="cls-5" d="M38.6,80.2S43,78,45.9,80.88s3.57,13.41.51,19c-3,4.41-10.52-.51-11.54-2.71S37.93,87.33,38.6,80.2Z"/><path class="cls-6" d="M49.13,76c-2,1.25-4.12-2-3.6-3.86.85-3-3.32-3.69-3.32-3.69a1.51,1.51,0,0,1-1.27-1.34A3.48,3.48,0,0,1,44.78,66c5.81,1.52,6.07,6.91,4.38,10Z"/><path class="cls-7" d="M47.4,84.46s-.85-4.55-3.4-4.92a9.24,9.24,0,0,1,1.76,5.17Z"/><path class="cls-8" d="M38.45,88.05A4.84,4.84,0,0,0,38,89.3c-.17.73-.35,1.47-.52,2.2A4,4,0,0,1,37,92.94a5.14,5.14,0,0,1-1.08,1,8.67,8.67,0,0,0-2.12,2.51,5,5,0,0,0-.7,3.33,4.21,4.21,0,0,0,3.43,3.14,6.64,6.64,0,0,0,4.69-1.15,2.64,2.64,0,0,0,.7-.63,2.86,2.86,0,0,0,.38-1.07A42.05,42.05,0,0,0,43,94.36c-.59.18-.85.84-1.06,1.41-.71,2-1.75,4-3.6,4.94a2.85,2.85,0,0,1-1.51.38A2.93,2.93,0,0,1,34.88,100a2.53,2.53,0,0,1-.56-.89A2.64,2.64,0,0,1,35,96.65,13.64,13.64,0,0,1,37,94.94a4,4,0,0,0,1.05-1,5.11,5.11,0,0,0,.54-1.52l.48-2.09a4.36,4.36,0,0,1,.78-1.88c.38-.42,1.62-1.09.61-1.56C39.73,86.48,38.79,87.45,38.45,88.05Z"/><path class="cls-9" d="M42.33,87.33,42,84.91l8.35-.7s2.18,2.93,2.24,8.41a45.58,45.58,0,0,1-.81,9.4l-8.84,2.14Z"/><path class="cls-10" d="M43.38,85.21a2.92,2.92,0,0,0-1.43-.3,2.64,2.64,0,0,0-1.24.51,1.45,1.45,0,0,0-.48,1c-.18,2.37-1.19,14.38-.39,15.52a4.52,4.52,0,0,0,2.42,1.81c.2.06.35.38.57.39,1.18.07,1.55-9.08,1.55-11.32a64.38,64.38,0,0,0-1-7.63Z"/></g></g></svg>