<svg xmlns="http://www.w3.org/2000/svg" viewBox="0 0 167.31 95.91"><defs><style>.cls-1,.cls-2{fill:#fff;}.cls-1{fill-rule:evenodd;}</style></defs><title>Asset 1</title><g id="Layer_2" data-name="Layer 2"><g id="Isolation_Mode" data-name="Isolation Mode"><polygon class="cls-1" points="6.92 38.57 6.92 36.81 0 36.81 0 51.05 2.63 51.05 2.63 44.62 6.44 44.62 6.44 42.87 2.63 42.87 2.63 38.57 6.92 38.57"/><path class="cls-1" d="M17.42,50.39V39.9H14.89v9.27a3.35,3.35,0,0,1-1.68.37,1.73,1.73,0,0,1-1.88-1.88V39.9H8.81v7.61c0,2.46,1.34,3.77,4.32,3.77a9.13,9.13,0,0,0,4.29-.89"/><path class="cls-1" d="M28.9,51.05V43.11c0-1.81-1.1-3.42-4.42-3.42a10.11,10.11,0,0,0-4.38.81V51.05h2.53V41.59a4.13,4.13,0,0,1,1.74-.31c1.59,0,2,.95,2,1.86v7.91Z"/><path class="cls-1" d="M37.73,49.4a2.46,2.46,0,0,1-1.3.24c-2,0-2.75-1.66-2.75-4.18,0-2.35.74-4.24,2.94-4.24a4,4,0,0,1,1.11.14Zm2.53,1.05V34.81H37.73V40a6.12,6.12,0,0,0-1.67-.2c-2.9,0-4.88,2.18-4.88,5.82s1.89,5.65,5.19,5.65A7.92,7.92,0,0,0,40.26,50.45Z"/><path class="cls-1" d="M48.65,49.54a3.73,3.73,0,0,1-1.52.31c-1.47,0-2.34-.62-2.34-2.07,0-2,1.47-2.55,3.86-2.83Zm2.35.91V43.54c0-2.88-1.82-3.85-4.12-3.85a8.86,8.86,0,0,0-3.82.85L43.63,42a6.74,6.74,0,0,1,2.8-.69c1.3,0,2.22.39,2.22,1.84v.61c-3.39.33-6.23,1.17-6.23,4.11,0,2.15,1.51,3.4,4.55,3.4A8.92,8.92,0,0,0,51,50.45Z"/><path class="cls-1" d="M59.55,53.62c0-1-.91-1.59-3.78-1.35l-.48.79c1.82-.14,2.54,0,2.54.58s-1.5.87-3.33.7l-.49.85c3.43.31,5.54-.22,5.54-1.57m.77-3.13-.58-1.55a2.27,2.27,0,0,1-1.51.5c-1.56,0-2.4-1.58-2.4-4s.72-4,2.44-4a2.27,2.27,0,0,1,1.49.48l.54-1.42a3.86,3.86,0,0,0-2.59-.77c-2.48,0-4.43,2.05-4.43,5.75s1.87,5.82,4.41,5.82A3.81,3.81,0,0,0,60.32,50.49Z"/><path class="cls-1" d="M69.45,37.39l-.62-1.16a1.39,1.39,0,0,1-1.2,1c-1,.11-1.62-.93-2.84-.81a1.76,1.76,0,0,0-1.55,1.16l.6,1.15a1.38,1.38,0,0,1,1.18-1c1-.1,1.72.93,2.9.79a1.67,1.67,0,0,0,1.53-1.1M68,49.54a3.61,3.61,0,0,1-1.51.31c-1.47,0-2.34-.62-2.34-2.07,0-2,1.47-2.55,3.85-2.83Zm2.36.91V43.54c0-2.88-1.82-3.85-4.12-3.85a8.91,8.91,0,0,0-3.83.85L63,42a6.7,6.7,0,0,1,2.8-.69c1.3,0,2.21.39,2.21,1.84v.61c-3.39.33-6.23,1.17-6.23,4.11,0,2.15,1.51,3.4,4.55,3.4A8.94,8.94,0,0,0,70.36,50.45Z"/><path class="cls-1" d="M79.4,45.46c0,2.11-.33,4.08-2.12,4.08s-2.14-2-2.14-4.08.36-4.18,2.14-4.18,2.12,2,2.12,4.18m2.51,0c0-3.33-1.48-5.79-4.63-5.79s-4.64,2.46-4.64,5.79,1.51,5.78,4.64,5.78S81.91,48.77,81.91,45.48Z"/><polygon class="cls-1" points="9.03 62.47 9.03 59.28 0 59.28 0 62.47 2.12 62.47 2.12 73.43 6.91 73.43 6.91 62.47 9.03 62.47"/><path class="cls-1" d="M15.31,59.12a2.21,2.21,0,0,0-2.35-2,2,2,0,1,0,0,4,2.21,2.21,0,0,0,2.35-2m-.05,14.31V62.35h-4.6V73.43Z"/><path class="cls-1" d="M23.28,70.74a2,2,0,0,1-.39,0c-1,0-1.5-.86-1.5-3.07s.52-3,1.52-3a.71.71,0,0,1,.37,0Zm4.6,2V57.29h-4.6v5.06a5.58,5.58,0,0,0-1.52-.14c-2.84,0-4.92,2.22-4.92,5.65,0,4,2.49,5.77,6.05,5.77A11.18,11.18,0,0,0,27.88,72.77Z"/><path class="cls-1" d="M35.92,66.92l-2.4.38c-.16-1.58.29-2.55,1.28-2.55.79,0,1.12.76,1.12,2.17m4.26.92c0-3.19-1.49-5.7-5.18-5.7s-5.53,2.53-5.53,5.72,1.87,5.77,5.74,5.77a10.35,10.35,0,0,0,4.63-.86l-1-2.77a7.6,7.6,0,0,1-3,.55c-1.23,0-1.71-.36-2-1.13l6.31-.86C40.18,68.31,40.18,68.07,40.18,67.84Z"/><path class="cls-1" d="M9.23,91.26c0-1.63-.37-3-3-4.33-1.12-.57-1.48-.91-1.48-1.5s.38-.78,1.07-.78a4,4,0,0,1,2,.57l1-2.86a7.13,7.13,0,0,0-3.68-.86A4.65,4.65,0,0,0,.14,86.2a4.33,4.33,0,0,0,2.6,4c1.1.55,1.45.91,1.45,1.45s-.39.75-1.1.75A3.91,3.91,0,0,1,1,91.71L0,95a7.39,7.39,0,0,0,4.06.87c3.08,0,5.17-2,5.17-4.63"/><path class="cls-1" d="M16.81,89.25l-2.38.38c-.16-1.56.29-2.52,1.26-2.52.8,0,1.12.75,1.12,2.14m4.21.91c0-3.15-1.49-5.63-5.13-5.63s-5.46,2.5-5.46,5.65,1.84,5.71,5.67,5.71A10.19,10.19,0,0,0,20.67,95l-1-2.74a7.48,7.48,0,0,1-3,.55c-1.23,0-1.7-.37-2-1.12L21,90.87C21,90.63,21,90.39,21,90.16Z"/><path class="cls-1" d="M29.07,95.47V92.68a1.67,1.67,0,0,1-.79.21c-.43,0-.67-.19-.67-1V87.72h1.46v-3H27.61V81.48L23.05,82.6v2.14H21.93v3h1.12v4.62c0,2,1.26,3.57,3.88,3.57a4.34,4.34,0,0,0,2.14-.44"/><path class="cls-1" d="M41.27,95V84.74H36.72v8a1.9,1.9,0,0,1-.7.11c-.61,0-.79-.37-.79-.67V84.74H30.68v7.11c0,3.07,1.87,4,5.3,4A12.74,12.74,0,0,0,41.27,95"/><path class="cls-1" d="M49.6,90.12c0,2.15-.48,3.09-1.43,3.09a2,2,0,0,1-.44,0v-6a1.83,1.83,0,0,1,.51-.06c1.28,0,1.36,1.12,1.36,3m4.49-.34c0-3.14-1.86-5.21-4.51-5.21a5.38,5.38,0,0,0-1.85.3V79.74H43.18V95a9.48,9.48,0,0,0,4.66.87C51.8,95.89,54.09,93.92,54.09,89.78Z"/><path class="cls-1" d="M61.32,93.36a1.23,1.23,0,0,1-.52.06A1.24,1.24,0,0,1,59.4,92c0-1.3.86-1.61,1.92-1.64ZM65.56,95V89c0-3.25-1.87-4.45-4.78-4.45a13.69,13.69,0,0,0-4.92.87L56.8,88a8.46,8.46,0,0,1,3.1-.68c.9,0,1.42.19,1.42.8v.32c-3.22.28-6.12,1.06-6.12,3.85,0,2.54,1.94,3.65,5.42,3.65A11.52,11.52,0,0,0,65.56,95Z"/><rect class="cls-2" x="67.48" y="79.74" width="4.55" height="15.96"/><path class="cls-1" d="M96,49.85a4.68,4.68,0,1,1,4.68,4.62A4.65,4.65,0,0,1,96,49.85"/><path class="cls-1" d="M158,43.44a4.68,4.68,0,1,1,4.67,4.61A4.65,4.65,0,0,1,158,43.44"/><path class="cls-1" d="M93.19,36.72a4.68,4.68,0,1,1,4.67,4.61,4.64,4.64,0,0,1-4.67-4.61"/><path class="cls-1" d="M96,23.58a4.68,4.68,0,1,1,4.68,4.61A4.64,4.64,0,0,1,96,23.58"/><path class="cls-1" d="M104,60.71a4.68,4.68,0,1,1,4.68,4.61A4.64,4.64,0,0,1,104,60.71"/><path class="cls-1" d="M104,12.73a4.68,4.68,0,1,1,4.68,4.61A4.64,4.64,0,0,1,104,12.73"/><path class="cls-1" d="M115.83,67.42A4.68,4.68,0,1,1,120.51,72a4.65,4.65,0,0,1-4.68-4.61"/><path class="cls-1" d="M115.83,6a4.68,4.68,0,0,1,9.36,0,4.68,4.68,0,0,1-9.36,0"/><path class="cls-1" d="M129.36,68.82A4.68,4.68,0,1,1,134,73.43a4.64,4.64,0,0,1-4.68-4.61"/><path class="cls-1" d="M129.36,4.61a4.68,4.68,0,0,1,9.36,0,4.68,4.68,0,0,1-9.36,0"/><path class="cls-1" d="M142.3,64.66A4.68,4.68,0,1,1,147,69.27a4.64,4.64,0,0,1-4.67-4.61"/><path class="cls-1" d="M152.42,55.69a4.68,4.68,0,1,1,4.68,4.62,4.64,4.64,0,0,1-4.68-4.62"/><path class="cls-1" d="M142.3,8.78A4.68,4.68,0,1,1,147,13.39a4.65,4.65,0,0,1-4.67-4.61"/><path class="cls-1" d="M152.42,17.74a4.68,4.68,0,1,1,4.68,4.62,4.64,4.64,0,0,1-4.68-4.62"/><path class="cls-1" d="M158,30a4.68,4.68,0,1,1,4.67,4.62A4.64,4.64,0,0,1,158,30"/><path class="cls-1" d="M107.27,37.08a14,14,0,1,1,14,13.83,13.93,13.93,0,0,1-14-13.83"/></g></g></svg>