<svg id="Layer_1" data-name="Layer 1" xmlns="http://www.w3.org/2000/svg" viewBox="0 0 83.08 149.69"><defs><style>.cls-1{fill:#42bfb1;}.cls-2{fill:#00acc1;}.cls-3{fill:#455b64;}.cls-4{fill:#61cbe8;}.cls-5{fill:#5462ad;}.cls-6{fill:#e61a4a;}.cls-7{fill:#1597a7;}.cls-8{fill:#f17e29;}.cls-9{fill:#fff;}.cls-10{fill:#693996;}</style></defs><title>art-copo</title><path class="cls-1" d="M1002.51,532.15l-9.24-2.72a4,4,0,0,0-5,2.73L948.63,667.91l16.87,5L1005.18,537A3.94,3.94,0,0,0,1002.51,532.15ZM957.88,663.91a2.05,2.05,0,1,1,1.39,2.55A2.05,2.05,0,0,1,957.88,663.91Z" transform="translate(-922.26 -529.23)"/><path class="cls-2" d="M948.63,667.91l4.22,1.25L994,529.63l-.82-.24a3.87,3.87,0,0,0-4.82,2.63Z" transform="translate(-922.26 -529.23)"/><rect class="cls-3" x="965.31" y="656.63" width="1.6" height="6.2" transform="translate(-862.05 870.73) rotate(-73.58)"/><rect class="cls-3" x="967.87" y="655.38" width="0.99" height="3.37" transform="translate(-857.89 870.97) rotate(-73.58)"/><rect class="cls-3" x="968.64" y="652.76" width="0.99" height="3.36" transform="translate(-854.82 869.82) rotate(-73.58)"/><rect class="cls-3" x="969.41" y="650.14" width="0.99" height="3.36" transform="matrix(0.28, -0.96, 0.96, 0.28, -851.72, 868.72)"/><rect class="cls-3" x="970.18" y="647.51" width="0.99" height="3.35" transform="translate(-848.69 867.53) rotate(-73.58)"/><rect class="cls-3" x="969.4" y="642.7" width="1.6" height="6.16" transform="translate(-845.73 864.67) rotate(-73.58)"/><rect class="cls-3" x="971.96" y="641.45" width="0.99" height="3.33" transform="translate(-841.58 864.89) rotate(-73.58)"/><rect class="cls-3" x="972.73" y="638.83" width="0.99" height="3.33" transform="translate(-838.51 863.75) rotate(-73.58)"/><rect class="cls-3" x="973.5" y="636.21" width="0.99" height="3.32" transform="translate(-835.44 862.6) rotate(-73.58)"/><rect class="cls-3" x="974.27" y="633.58" width="0.99" height="3.31" transform="translate(-832.36 861.47) rotate(-73.58)"/><rect class="cls-3" x="973.49" y="628.77" width="1.6" height="6.13" transform="translate(-829.43 858.57) rotate(-73.58)"/><rect class="cls-3" x="976.05" y="627.52" width="0.99" height="3.3" transform="translate(-825.24 858.84) rotate(-73.58)"/><rect class="cls-3" x="976.82" y="624.9" width="0.99" height="3.29" transform="translate(-822.16 857.71) rotate(-73.58)"/><rect class="cls-3" x="977.59" y="622.28" width="0.99" height="3.29" transform="translate(-819.13 856.52) rotate(-73.58)"/><rect class="cls-3" x="978.36" y="619.65" width="0.99" height="3.28" transform="translate(-816.04 855.39) rotate(-73.58)"/><rect class="cls-3" x="977.59" y="614.84" width="1.6" height="6.09" transform="translate(-813.1 852.51) rotate(-73.58)"/><rect class="cls-3" x="980.14" y="613.59" width="0.99" height="3.27" transform="translate(-808.91 852.78) rotate(-73.58)"/><rect class="cls-3" x="980.91" y="610.97" width="0.99" height="3.26" transform="translate(-805.86 851.61) rotate(-73.58)"/><rect class="cls-3" x="981.68" y="608.35" width="0.99" height="3.25" transform="translate(-802.8 850.46) rotate(-73.58)"/><rect class="cls-3" x="982.45" y="605.73" width="0.99" height="3.25" transform="translate(-799.75 849.29) rotate(-73.58)"/><rect class="cls-3" x="981.68" y="600.91" width="1.6" height="6.06" transform="translate(-796.81 846.4) rotate(-73.58)"/><rect class="cls-3" x="984.23" y="599.66" width="0.99" height="3.23" transform="translate(-792.66 846.63) rotate(-73.58)"/><rect class="cls-3" x="985" y="597.04" width="0.99" height="3.22" transform="translate(-789.55 845.53) rotate(-73.58)"/><rect class="cls-3" x="985.77" y="594.42" width="0.99" height="3.22" transform="matrix(0.28, -0.96, 0.96, 0.28, -786.48, 844.38)"/><rect class="cls-3" x="986.54" y="591.8" width="0.99" height="3.21" transform="translate(-783.4 843.26) rotate(-73.58)"/><rect class="cls-3" x="985.77" y="586.98" width="1.6" height="6.02" transform="translate(-780.48 840.35) rotate(-73.58)"/><rect class="cls-3" x="988.33" y="585.73" width="0.99" height="3.2" transform="translate(-776.28 840.62) rotate(-73.58)"/><rect class="cls-3" x="989.18" y="582.81" width="0.99" height="3.19" transform="translate(-772.88 839.32) rotate(-73.58)"/><rect class="cls-3" x="989.95" y="580.19" width="0.99" height="3.18" transform="translate(-769.81 838.17) rotate(-73.58)"/><rect class="cls-3" x="990.72" y="577.56" width="0.99" height="3.18" transform="translate(-766.75 837.02) rotate(-73.58)"/><rect class="cls-3" x="989.95" y="572.75" width="1.6" height="5.99" transform="translate(-763.83 834.11) rotate(-73.58)"/><rect class="cls-3" x="992.51" y="571.5" width="0.99" height="3.16" transform="translate(-759.63 834.39) rotate(-73.58)"/><rect class="cls-3" x="993.28" y="568.88" width="0.99" height="3.15" transform="translate(-756.61 833.19) rotate(-73.58)"/><rect class="cls-3" x="994.05" y="566.26" width="0.99" height="3.15" transform="translate(-753.5 832.09) rotate(-73.58)"/><rect class="cls-3" x="994.82" y="563.63" width="0.99" height="3.14" transform="translate(-750.43 830.94) rotate(-73.58)"/><rect class="cls-3" x="994.04" y="558.82" width="1.6" height="5.95" transform="translate(-747.52 828.03) rotate(-73.58)"/><rect class="cls-3" x="996.6" y="557.57" width="0.99" height="3.13" transform="translate(-743.34 828.29) rotate(-73.58)"/><rect class="cls-3" x="997.37" y="554.95" width="0.99" height="3.12" transform="translate(-740.23 827.18) rotate(-73.58)"/><rect class="cls-3" x="998.14" y="552.33" width="0.99" height="3.11" transform="translate(-737.19 826.01) rotate(-73.58)"/><rect class="cls-3" x="998.91" y="549.71" width="0.99" height="3.11" transform="translate(-734.1 824.88) rotate(-73.58)"/><rect class="cls-3" x="998.13" y="544.89" width="1.6" height="5.92" transform="translate(-731.2 821.95) rotate(-73.58)"/><rect class="cls-3" x="1000.69" y="543.64" width="0.99" height="3.09" transform="translate(-727.03 822.21) rotate(-73.58)"/><rect class="cls-3" x="1001.46" y="541.02" width="0.99" height="3.08" transform="translate(-723.94 821.08) rotate(-73.58)"/><rect class="cls-3" x="1002.23" y="538.4" width="0.99" height="3.08" transform="translate(-720.87 819.93) rotate(-73.58)"/><rect class="cls-3" x="1003" y="535.78" width="0.99" height="3.07" transform="translate(-717.83 818.76) rotate(-73.58)"/><path class="cls-4" d="M938,557l-6.09,1.18a1,1,0,0,1-1.09-1.26l1.41-9.07a.9.9,0,0,1,.69-.79h0a.91.91,0,0,1,.93.47l4.69,7.9A1,1,0,0,1,938,557Z" transform="translate(-922.26 -529.23)"/><path class="cls-5" d="M961,661.73h0l-1.16-6h0l-17.15-88.67-.85-4.4h0l-.57-3L937,552.44,934,553h0l-2.92.56-1.24,8.36.58,3h0L947.88,655h0l.34,1.74h0l1.39,7.18a.67.67,0,0,0,.78.53l6-1.15h0l.82-.16.68-.13h0l2.57-.5h0l.21,0a.46.46,0,0,0,.36-.53Z" transform="translate(-922.26 -529.23)"/><path class="cls-6" d="M976.65,567.78l-6.23,1.2a1.06,1.06,0,0,1-1.11-1.28l1.44-9.27a.92.92,0,0,1,.7-.81h0a.93.93,0,0,1,1,.48l4.79,8.07A1.06,1.06,0,0,1,976.65,567.78Z" transform="translate(-922.26 -529.23)"/><path class="cls-7" d="M999.59,672.71h0l-1.16-6h0l-17.15-88.67-.85-4.4h0l-.57-3-4.27-7.29-2.91.56h0l-2.92.56-1.24,8.36.58,3h0L986.52,666h0l.34,1.75h0l1.39,7.18a.66.66,0,0,0,.78.52l6-1.15h0l.82-.16.68-.13h0l2.57-.5h0l.21,0a.45.45,0,0,0,.36-.52Z" transform="translate(-922.26 -529.23)"/><path class="cls-8" d="M966.24,559l-6-1.47a1,1,0,0,1-.46-1.6l5.06-7.66a.93.93,0,0,1,1-.43h0a.91.91,0,0,1,.65.82l1,9.13A1,1,0,0,1,966.24,559Z" transform="translate(-922.26 -529.23)"/><path class="cls-9" d="M943.49,663.76h0l1.43-5.89h0l21.37-87.75,1.06-4.35h0l.72-2.95-.84-8.4-2.89-.7h0l-2.89-.71-4.6,7.08-.72,2.95h0L934.42,652.2h0l-.42,1.73h0l-1.73,7.1a.65.65,0,0,0,.49.8l5.9,1.44h0l.81.2.68.16h0l2.53.62h0l.21,0a.45.45,0,0,0,.55-.33Z" transform="translate(-922.26 -529.23)"/><path class="cls-10" d="M4.94,55.51h67.6a4.94,4.94,0,0,1,4.94,4.94v89.25a0,0,0,0,1,0,0H0a0,0,0,0,1,0,0V60.44A4.94,4.94,0,0,1,4.94,55.51Z"/></svg>