<svg id="Layer_1" data-name="Layer 1" xmlns="http://www.w3.org/2000/svg" viewBox="0 0 433.1 443.62"><defs><style>.cls-1{fill:#ed5655;}</style></defs><title>text_eng</title><path class="cls-1" d="M371.41,103.19l-82.1-82.1a13.21,13.21,0,0,0-9.37-3.89H75.16c-8.34,0-17.37,6.48-17.37,20.64v374.5c0,5.89,5.93,11.64,13,13.46a10.77,10.77,0,0,0,1.07.31,18,18,0,0,0,3.34.31H357.94a18,18,0,0,0,3.34-.31,10.77,10.77,0,0,0,1.07-.31c7-1.82,12.95-7.57,12.95-13.46V115.84c0-5.41-.65-9.41-3.89-12.65Zm-21.26-1.3H290.62V42.36Zm-275,310.45a5.07,5.07,0,0,1-1.39-.35,3.23,3.23,0,0,1-1.85-2.93V306.5H361.17V409.06a3.25,3.25,0,0,1-1.85,2.93,5.09,5.09,0,0,1-1.38.35Zm-3.24-120V37.84c0-1.52.2-6.51,3.24-6.51H277a9.88,9.88,0,0,0-.42,2.75V116h81.89a10.05,10.05,0,0,0,2.75-.41V292.37Zm0,0"/><path class="cls-1" d="M107.2,116h42.3a7,7,0,1,0,0-14.08H107.2a7,7,0,1,0,0,14.08Zm0,0"/><path class="cls-1" d="M107.2,151.25h63.49a7,7,0,1,0,0-14.08H107.2a7,7,0,1,0,0,14.08Zm0,0"/><path class="cls-1" d="M198.91,151.25a7,7,0,1,0-5-2,7.34,7.34,0,0,0,5,2Zm0,0"/><path class="cls-1" d="M227.12,151.25H283.6a7,7,0,0,0,0-14.08H227.12a7,7,0,1,0,0,14.08Zm0,0"/><path class="cls-1" d="M102.16,245a7.09,7.09,0,1,0,12.06,5,7.27,7.27,0,0,0-2-5,7.38,7.38,0,0,0-10,0Zm0,0"/><path class="cls-1" d="M191.84,243H135.42a7,7,0,1,0,0,14.08h56.42a7,7,0,1,0,0-14.08Zm0,0"/><path class="cls-1" d="M325.9,137.17H311.81a7,7,0,1,0,0,14.08H325.9a7,7,0,1,0,0-14.08Zm0,0"/><path class="cls-1" d="M107.2,186.53H262.4a7,7,0,1,0,0-14.08H107.2a7,7,0,1,0,0,14.08Zm0,0"/><path class="cls-1" d="M325.9,172.45H283.6a7,7,0,1,0,0,14.08h42.3a7,7,0,1,0,0-14.08Zm0,0"/><path class="cls-1" d="M107.2,221.81h28.22a7,7,0,1,0,0-14.08H107.2a7,7,0,1,0,0,14.08Zm0,0"/><path class="cls-1" d="M234.19,207.73H163.63a7,7,0,1,0,0,14.08h70.56a7,7,0,1,0,0-14.08Zm0,0"/><path class="cls-1" d="M325.9,207.73H262.4a7,7,0,1,0,0,14.08h63.5a7,7,0,1,0,0-14.08Zm0,0"/><path class="cls-1" d="M143.92,327.23h39.17v13.84H159.93v12.66h21.58v13.4H159.93v14.78h23.16v14H143.92Z"/><path class="cls-1" d="M190.87,327.23h16.31L215,349q3.5,9.69,5.37,16.79h.84l-.4-11.62V327.23h15.37V396H219.94l-7.84-21.77q-3.49-9.71-5.37-16.85h-.88l.39,11.63v27H190.87Z"/><path class="cls-1" d="M275.5,390.78a17.51,17.51,0,0,1-5.07,4.68,11.31,11.31,0,0,1-5.76,1.58,16.14,16.14,0,0,1-10.92-4.56q-5.08-4.56-7.51-13a64.42,64.42,0,0,1-2.41-17.8q0-15.92,7.07-25.74A22.29,22.29,0,0,1,270,326.1a26.67,26.67,0,0,1,14.48,4v15.23q-6.12-5.08-11.3-5.08a10.74,10.74,0,0,0-10,6q-3.31,6-3.31,16.25,0,9.56,2.25,15.2t6.11,5.64a3.12,3.12,0,0,0,2.94-1.92,13.37,13.37,0,0,0,1-5.76v-4.29h-5.27V359H287V396h-7.78Z"/></svg>