<svg id="Layer_1" data-name="Layer 1" xmlns="http://www.w3.org/2000/svg" viewBox="0 0 433.1 443.62"><defs><style>.cls-1{fill:#ed5655;}</style></defs><title>biblioteca_secundaria</title><path class="cls-1" d="M244.59,211.26a6.86,6.86,0,0,0,6.1,3.73,6.77,6.77,0,0,0,3.09-.75c.4-.2,40.58-20.61,60.4-26.88a6.83,6.83,0,0,0-4.12-13c-20.87,6.6-60.79,26.88-62.48,27.74a6.82,6.82,0,0,0-3,9.18Zm0,0"/><path class="cls-1" d="M250.69,133.07a6.77,6.77,0,0,0,3.09-.75c.4-.2,40.58-20.62,60.4-26.87a6.83,6.83,0,0,0-4.12-13c-20.87,6.6-60.79,26.88-62.48,27.74a6.83,6.83,0,0,0,3.11,12.91Zm0,0"/><path class="cls-1" d="M414.52,119.41a6.83,6.83,0,0,0-6.83,6.83V392.48A20.5,20.5,0,0,1,387.22,413H223.38V397.25c10-3.48,35.88-11.6,61.43-11.6,59.47,0,99.85,13.17,100.25,13.31a6.83,6.83,0,0,0,9-6.48V92.11a6.82,6.82,0,0,0-5.34-6.67s-5.35-1.19-14.5-2.87A6.83,6.83,0,0,0,371.72,96c3.49.64,6.41,1.2,8.67,1.65V383.41C364.92,379.35,330.57,372,284.81,372c-29.74,0-59,9.77-68,13.08-8-3.55-32.32-13.08-61.7-13.08a460.58,460.58,0,0,0-102.4,11.69V97.39a449.39,449.39,0,0,1,102.4-12.11c24.89,0,46.24,7.75,54.61,11.25V365.17A6.82,6.82,0,0,0,220.06,371c.68-.4,68.32-40.8,128.35-60.81a6.83,6.83,0,0,0,4.67-6.48V23.84a6.84,6.84,0,0,0-9.23-6.4C289.23,37.93,234,72.32,233.41,72.67a6.82,6.82,0,1,0,7.24,11.57c.5-.32,48.58-30.23,98.78-50.42v265c-46.6,16.19-95.26,42.63-116.06,54.46V92.11A6.83,6.83,0,0,0,219.6,86a158.11,158.11,0,0,0-64.49-14.37C93.42,71.63,46,85,44,85.54a6.85,6.85,0,0,0-5,6.57V392.48a6.82,6.82,0,0,0,6.83,6.83,6.61,6.61,0,0,0,1.87-.27c.47-.13,47.68-13.39,107.36-13.39,24.95,0,46.28,7.77,54.61,11.26v16H45.88A20.51,20.51,0,0,1,25.4,392.48V126.24a6.83,6.83,0,1,0-13.65,0V392.48a34.17,34.17,0,0,0,34.13,34.13H387.22a34.17,34.17,0,0,0,34.13-34.13V126.24a6.83,6.83,0,0,0-6.83-6.83Zm0,0"/><path class="cls-1" d="M244.59,170.3a6.86,6.86,0,0,0,6.1,3.73,6.77,6.77,0,0,0,3.09-.75c.4-.2,40.58-20.61,60.4-26.88a6.83,6.83,0,0,0-4.12-13c-20.87,6.6-60.79,26.88-62.48,27.73a6.84,6.84,0,0,0-3,9.19Zm0,0"/><path class="cls-1" d="M244.59,252.22a6.82,6.82,0,0,0,9.19,3c.4-.2,40.58-20.62,60.4-26.87a6.83,6.83,0,0,0-4.12-13c-20.87,6.6-60.79,26.88-62.48,27.74a6.82,6.82,0,0,0-3,9.18Zm0,0"/><path class="cls-1" d="M177.15,143.7C135,133.81,87.09,146.41,85.07,147a6.83,6.83,0,0,0,3.54,13.19c.46-.13,46.58-12.26,85.42-3.15a6.83,6.83,0,1,0,3.12-13.29Zm0,0"/><path class="cls-1" d="M177.15,184.66c-42.16-9.88-90.06,2.71-92.08,3.25a6.83,6.83,0,0,0,3.54,13.19c.46-.13,46.58-12.26,85.42-3.15a6.83,6.83,0,1,0,3.12-13.29Zm0,0"/><path class="cls-1" d="M244.59,293.18a6.85,6.85,0,0,0,6.1,3.72,6.75,6.75,0,0,0,3.09-.74c.4-.2,40.58-20.62,60.4-26.88a6.83,6.83,0,0,0-4.12-13c-20.87,6.6-60.79,26.88-62.48,27.74a6.82,6.82,0,0,0-3,9.18Zm0,0"/><path class="cls-1" d="M177.15,225.62c-42.16-9.88-90.06,2.71-92.08,3.25a6.83,6.83,0,1,0,3.54,13.19c.46-.13,46.58-12.26,85.42-3.15a6.83,6.83,0,1,0,3.12-13.29Zm0,0"/><path class="cls-1" d="M177.15,307.54c-42.16-9.89-90.06,2.71-92.08,3.25A6.83,6.83,0,1,0,88.61,324c.46-.13,46.58-12.26,85.42-3.15a6.83,6.83,0,1,0,3.12-13.29Zm0,0"/><path class="cls-1" d="M177.15,266.58c-42.16-9.89-90.06,2.71-92.08,3.25A6.83,6.83,0,1,0,88.61,283c.46-.13,46.58-12.26,85.42-3.15a6.83,6.83,0,1,0,3.12-13.29Zm0,0"/></svg>