<svg id="Layer_1" data-name="Layer 1" xmlns="http://www.w3.org/2000/svg" viewBox="0 0 433.1 443.62"><defs><style>.cls-1{fill:#ed5655;}</style></defs><title>biblioteca_primaria</title><path class="cls-1" d="M209.72,413H45.88A20.51,20.51,0,0,1,25.4,392.48V126.24a6.83,6.83,0,1,0-13.65,0V392.48a34.17,34.17,0,0,0,34.13,34.13H387.22a34.17,34.17,0,0,0,34.13-34.13V126.24a6.83,6.83,0,0,0-6.83-6.83h0a6.83,6.83,0,0,0-6.83,6.83V392.48A20.5,20.5,0,0,1,387.22,413H223.38M414.52,119.41"/><path class="cls-1" d="M188.82,211.26a6.82,6.82,0,0,0-3-9.18c-1.69-.86-41.6-21.14-62.47-27.74a6.83,6.83,0,0,0-4.13,13c19.82,6.27,60,26.68,60.41,26.88a6.71,6.71,0,0,0,3.09.75,6.84,6.84,0,0,0,6.09-3.73Zm0,0"/><path class="cls-1" d="M182.73,133.07a6.83,6.83,0,0,0,3.1-12.91c-1.69-.86-41.6-21.14-62.47-27.74a6.83,6.83,0,0,0-4.13,13c19.82,6.25,60,26.67,60.41,26.87a6.71,6.71,0,0,0,3.09.75Zm0,0"/><path class="cls-1" d="M223.69,413v-16c8.33-3.49,29.66-11.26,54.62-11.26,59.68,0,106.88,13.26,107.35,13.39a6.71,6.71,0,0,0,1.87.27,6.82,6.82,0,0,0,6.83-6.83V92.11a6.83,6.83,0,0,0-4.95-6.57c-2-.57-49.41-13.91-111.1-13.91A158.05,158.05,0,0,0,213.82,86,6.82,6.82,0,0,0,210,92.11v261.2c-20.8-11.83-69.45-38.27-116-54.46v-265c50.19,20.19,98.28,50.1,98.78,50.42A6.82,6.82,0,1,0,200,72.67c-.56-.35-55.83-34.74-110.44-55.23a6.84,6.84,0,0,0-9.23,6.4V303.73A6.82,6.82,0,0,0,85,310.21c60,20,127.68,60.41,128.35,60.81a6.82,6.82,0,0,0,10.34-5.85V96.53c8.38-3.5,29.73-11.25,54.62-11.25a449.57,449.57,0,0,1,102.4,12.11v286.3A460.67,460.67,0,0,0,278.31,372c-29.38,0-53.67,9.53-61.71,13.08-9-3.31-38.26-13.08-68-13.08-45.75,0-80.1,7.35-95.57,11.41V97.65c2.25-.45,5.17-1,8.66-1.65a6.83,6.83,0,1,0-2.47-13.43c-9.15,1.68-14.5,2.87-14.5,2.87a6.82,6.82,0,0,0-5.35,6.67V392.48a6.84,6.84,0,0,0,9,6.48c.4-.14,40.78-13.31,100.25-13.31,25.56,0,51.49,8.12,61.44,11.6V413"/><path class="cls-1" d="M188.82,170.3a6.84,6.84,0,0,0-3-9.19c-1.69-.85-41.6-21.13-62.47-27.73a6.83,6.83,0,0,0-4.13,13c19.82,6.27,60,26.68,60.41,26.88a6.71,6.71,0,0,0,3.09.75,6.84,6.84,0,0,0,6.09-3.73Zm0,0"/><path class="cls-1" d="M188.82,252.22a6.82,6.82,0,0,0-3-9.18c-1.69-.86-41.6-21.14-62.47-27.74a6.83,6.83,0,0,0-4.13,13c19.82,6.25,60,26.67,60.41,26.87a6.81,6.81,0,0,0,9.18-3Zm0,0"/><path class="cls-1" d="M256.27,143.7A6.82,6.82,0,1,0,259.38,157c38.85-9.11,85,3,85.42,3.15A6.83,6.83,0,1,0,348.34,147c-2-.54-49.91-13.14-92.07-3.25Zm0,0"/><path class="cls-1" d="M256.27,184.66A6.82,6.82,0,1,0,259.38,198c38.85-9.11,85,3,85.42,3.15a6.83,6.83,0,1,0,3.54-13.19c-2-.54-49.91-13.13-92.07-3.25Zm0,0"/><path class="cls-1" d="M188.82,293.18a6.82,6.82,0,0,0-3-9.18c-1.69-.86-41.6-21.14-62.47-27.74a6.83,6.83,0,0,0-4.13,13c19.82,6.26,60,26.68,60.41,26.88a6.69,6.69,0,0,0,3.09.74,6.83,6.83,0,0,0,6.09-3.72Zm0,0"/><path class="cls-1" d="M256.27,225.62a6.82,6.82,0,1,0,3.11,13.29c38.85-9.11,85,3,85.42,3.15a6.83,6.83,0,1,0,3.54-13.19c-2-.54-49.91-13.13-92.07-3.25Zm0,0"/><path class="cls-1" d="M256.27,307.54a6.82,6.82,0,1,0,3.11,13.29c38.85-9.11,85,3,85.42,3.15a6.83,6.83,0,1,0,3.54-13.19c-2-.54-49.91-13.14-92.07-3.25Zm0,0"/><path class="cls-1" d="M256.27,266.58a6.82,6.82,0,1,0,3.11,13.29c38.85-9.11,85,3,85.42,3.15a6.83,6.83,0,1,0,3.54-13.19c-2-.54-49.91-13.14-92.07-3.25Zm0,0"/></svg>