<svg class="{{ .class }}" xmlns="http://www.w3.org/2000/svg" viewBox="0 0 197.92 76.39"><defs><style>.cls-3{fill:#432460}</style></defs><g id="Layer_2" data-name="Layer 2"><g id="Layer_1-2" data-name="Layer 1"><ellipse cx="98.96" cy="64.19" rx="98.96" ry="12.2" fill="#48c1f0"/><ellipse cx="101.45" cy="62.39" rx="63.21" ry="7.79" fill="#4db1e4"/><path class="cls-3" d="M151.32 60.79L158.18 47a6.39 6.39 0 0 0-2.87-8.57L99.83 10.79a6.39 6.39 0 0 0-8.57 2.87L67.77 60.79z"/><path d="M69.07 60.79L97.25 4.25 89.59.43a4.07 4.07 0 0 0-5.46 1.83L55 60.79z" fill="#54327c"/><path d="M147.05 60.79l6.8-13.65a5.78 5.78 0 0 0-2.59-7.74l-50-24.94A5.77 5.77 0 0 0 93.47 17l-21.8 43.79z" fill="#f2f9fd"/><path fill="#deede8" d="M141.48 60.79l10.48-21.04-18.14-9.04-14.99 30.08h22.65z"/><path class="cls-3" d="M138.51 60.79L151 35.63a4.08 4.08 0 0 0-1.81-5.48L95.91 3.58 67.4 60.79z"/></g></g></svg>
