<svg class="{{ .class }}" xmlns="http://www.w3.org/2000/svg" viewBox="0 0 169.31 57.63"><switch><g><ellipse cx="84.66" cy="47.19" rx="84.66" ry="10.44" fill="#41b7ea"/><ellipse cx="86.79" cy="45.65" rx="54.07" ry="6.67" fill="#44a9df"/><path d="M52 45.65h74L101.33 3.18A6.39 6.39 0 0 0 92.59.87L48.31 26.61A6.39 6.39 0 0 0 46 35.35l6 10.3z" fill="#ef9021"/><path d="M55.44 45.65h66.79L99.33 6.26a5.76 5.76 0 0 0-7.87-2.09h-.01L51.5 27.4a5.76 5.76 0 0 0-2.09 7.87v.01l6.03 10.37z" fill="#f2f9fd"/><path fill="#deede8" d="M117.3 45.65L92.75 3.42l-15.01 8.72 19.49 33.51z"/><path d="M114.67 45.65L89.37 2.14A3.5 3.5 0 0 0 84.59.85L40.51 26.48l11.15 19.17h63.01z" fill="#ee8f22"/><path d="M40.63 45.65h12.51L41.62 25.84l-6.34 3.68A3.48 3.48 0 0 0 34 34.28l6.63 11.37z" fill="#f07c22"/></g></switch></svg>
