<svg class="{{ .class }}" xmlns="http://www.w3.org/2000/svg" viewBox="0 0 473.14 427.42"><defs><style>.cls-1{fill:#33a450;}.cls-2,.cls-3,.cls-4,.cls-5,.cls-6,.cls-7,.cls-8{fill:none;}.cls-2,.cls-3,.cls-5,.cls-7,.cls-8{stroke:#fff;}.cls-2{stroke-width:20px;}.cls-3{stroke-width:1.13px;}.cls-4{stroke:#7bc793;}.cls-4,.cls-6,.cls-8{stroke-width:15px;}.cls-5{stroke-width:0.91px;}.cls-6{stroke:#335952;}.cls-9{fill:#fff;}.cls-10{fill:#f68a1f;}</style></defs><title>ilustracao4</title><path class="cls-1" d="M69.82,294.87c0,2.34,1.21,3.95,2.6,5.64,1,1.27,2.19,2.7,2.49,4.2.46,2.48,1.85,3,3.94,3.29,2.36.35,4.33,1.45,5.15,3.9.81,2.27,2.11,2.8,4.36,1.72,4.42-2.05,8.83-4.28,13.24-6.43,0,.55-.16,1.36-.19,2.17a70.29,70.29,0,0,0,0,9.62c.35,3.3,2.56,5.19,5.6,4.95,5.89-.47,11.69-1,17.56-1.65a9.88,9.88,0,0,0,7.06-4c.24-.29.56-.77.84-.7,3.53.35,5.22-2.2,7.2-4.43,2.22-2.51,4.86-4.33,8.44-4.52,2.24-.09,4.51-1,7.07-1.55a6.31,6.31,0,0,1,.7.94c1.4,1.86,2.08,3.6.74,6-.63,1.21-.12,3.06-.08,4.67,0,1.17.37,2.49.1,3.59a6.73,6.73,0,0,0,.47,4.9,30.36,30.36,0,0,0,9.41,9.95,7.75,7.75,0,0,0,6.74,1.18,4.83,4.83,0,0,1,2.65.59c1.12.55,2,1.73,3.12,1.92a6.87,6.87,0,0,1,3.84,2c1.47,1.5,3.25,2.44,5.36,1.91,1.59-.39,2.34,0,2.91,1.57,1.25,3.31,3.38,4.13,6.8,3.06a5.31,5.31,0,0,1,3.33.18c2.31.81,4.47,2,6.69,2.8a3.45,3.45,0,0,1,2.55,2.76,46.44,46.44,0,0,1,.93,6c.13,2.77.71,5.6-1.53,8a2.11,2.11,0,0,0-.42,1.48c.45,2.3,1.07,4.49,3.07,5.95a19.16,19.16,0,0,0,11.26,3.79c1.8,0,3.66-.29,5.54-.35,2.42-.1,3.31,1,2.87,3.28a12.65,12.65,0,0,1-.5,1.74c-1.94,4.92-.27,7.93,4.76,9.06,1,.28,2.52,1.24,2.58,1.95.47,3.74,2.39,7.63-.28,11.34a2.63,2.63,0,0,0-.7,1.4c-.1,1-.36,2.28.06,3.05a1.88,1.88,0,0,1,0,2.34,10.86,10.86,0,0,0-2,6.08c.11,4.75-.15,9.53-.13,14.29a59.59,59.59,0,0,0,.38,7.07,4.14,4.14,0,0,0,3.44,3.86,42.54,42.54,0,0,0,8.2.25,11.51,11.51,0,0,1,12.4,12.68,25.65,25.65,0,0,0,.29,5.91c.28,2.49,1.13,3,3.59,2.32,1.15-.27,2.28-.72,3.44-.9,2.84-.41,5,1.22,4.9,4.1a43.41,43.41,0,0,1-1.3,9.72c-.89,3.48-1.17,3.41,1.94,5.23a8.32,8.32,0,0,1,4.32,8.11c-.09,2.34-.54,4.62-.44,6.95.19,3.58-2.07,5.64-4.68,6.74-7.06,2.8-12.23,7.79-17.2,13.12-3.07,3.3-5.66,6.92-8.43,10.46-1.56,1.92-1.56,3.09,0,5.12a12.94,12.94,0,0,0,1.3,1.7c2.36,2.6,5.31,4.7,4.75,9-.22,1.73,1.09,2.43,2.74,1.76a5.83,5.83,0,0,0,1.89-1.13A2.37,2.37,0,0,1,261,547a65.1,65.1,0,0,0,12.69,10.5,8.75,8.75,0,0,1,4.28,5.41c.43,2,1.7,2.11,3.29,1.8a42.35,42.35,0,0,0,4.47-1.34c1.15,2,2.69,2.13,4,.23a6.6,6.6,0,0,0,1.31-2.8,20.11,20.11,0,0,1,5.09-10.64c2.73-3,5.07-6.32,7.68-9.67.2.16.57.31.86.56,2.41,2.14,5,1.76,6.47-1a45.9,45.9,0,0,0,2.38-5.22,18.52,18.52,0,0,1,5.59-7.71,24.13,24.13,0,0,0,4.42-5.47c1.89-3.3,2.3-7.19,2.46-10.89.2-3.24.11-6.56.22-9.8,0-1.26.16-2.53.25-3.71.31-4.06,3.45-7.45,2.56-11.87.93.37,1.59.77,2.33,1.07a1.9,1.9,0,0,0,2.78-1.3c1.08-3.32,3.82-5.06,6.79-6.19a19.68,19.68,0,0,0,6.15-4c2.08-2.05,4.26-4,7.58-4.1,4.84-.2,9.21-1.71,12.31-5.73,2.69-3.44,5.77-4.22,9.69-2.38a12.55,12.55,0,0,0,7.95.55,34,34,0,0,0,13.88-7.29c3.21-2.68,6-5.69,7.5-9.75a10.3,10.3,0,0,1,5.26-6.17,6.86,6.86,0,0,0,2.31-1.53c3.15-4.47,6.29-9,9.34-13.67,1.52-2.36.51-5,.49-7.49-.09-2.33,0-4.85,1.92-6.35,3.39-2.69,4.9-6.31,6-10.17a22.46,22.46,0,0,0,.51-5c-.11-.27.5-.49.57-.77a21.57,21.57,0,0,0,.53-3.45c.37-3.27.75-6.44,1-9.7.32-3.88.55-7.76.79-11.64.25-3.62.15-7.2.58-10.83a6.71,6.71,0,0,1,4-5.89c8.17-3.51,13.54-9.41,15.37-18.09.93-4.21,3.18-6.36,7.14-7.39,4.5-1.16,8.56-3.1,10.92-7.42A21.94,21.94,0,0,1,474.6,317c2.12-2.68,4.44-5.2,6.66-7.8,5.27-6.07,6.89-12.85,4.31-20.55a81.85,81.85,0,0,1-2.15-8c-.54-2.21-.55-4.63-1.34-6.73-1.8-4.61-4.78-8.15-10.29-8.62-1.54-.15-3-.48-4.54-.54a12.76,12.76,0,0,1-8.47-3.82c-3.93-4.27-7.78-8.73-11.46-13.2-2.38-2.87-4.25-6.05-8.65-6.06-.54,0-1.22-.71-1.63-1.31a9.78,9.78,0,0,0-8.34-4.46,14.83,14.83,0,0,0-5.61.62c-4.79,2-9.36.92-13.87-.44a12.51,12.51,0,0,1-5.07-2.74,9.16,9.16,0,0,0-5.93-2.32c-4.15-.3-7.9,1.16-11.54,2.89-1.82.86-3.73,1.73-5.81,2.61.68-3.92,1.3-7.47,2-11,.32-1.73.07-2.61-1.77-3.18a64.44,64.44,0,0,1-8-3.59c-1.31-.71-2.39-1.79-3.79-2.49a46.94,46.94,0,0,0-15.79-4.33c-6.16-.68-11.8.66-16.49,5-2.35,2.16-4.7,4.23-7,6.2a13.15,13.15,0,0,0-3.77-4.46,11,11,0,0,0,2.72-.93,25,25,0,0,0,4.88-3,78.41,78.41,0,0,0,7.25-7.22c1.31-1.54.86-2.67-1.08-3.42a37.38,37.38,0,0,0-16.7-2.19,13.26,13.26,0,0,0-6.78,2.87c-2,1.51-3.79,3.26-5.92,4.69-1.71,1.12-3.5,2.25-6.23,1.84a29,29,0,0,1,1.86-4.91,45.35,45.35,0,0,1,14-14.39c1.62-1,3-2.3,2.43-4.5a3.36,3.36,0,0,1,1.32-3.7c.93-.79,1.76-1.67,2.92-2.84a16.83,16.83,0,0,0-2.88-1.21c-1.74-.49-3.73-.6-5.4-1.28A4.72,4.72,0,0,1,316,176c-.7-2-.69-4.25-1.4-6.35-1.45-4.83-3.18-9.63-4.69-14-2.35-1.34-3.71-.33-4.85,1.19s-2.48,2.71-3.53,4.23a3.69,3.69,0,0,0-.59,2.74c.57,2.65.6,3.1-1.85,3.92a6,6,0,0,0-4,4.27,4,4,0,0,1-2.84,2.74,32,32,0,0,1-12,1.12c-3.07-.21-5.89-.71-7.9-3.33a2.81,2.81,0,0,0-2-1c-2.63-.24-5.24-.3-7.86-.55-1.9-.21-2.93.5-3.87,2.19-1.64,3.19-5.83,6.93-10.9,5.35-3.22-1-6.49-.3-9.62,1a66.77,66.77,0,0,1-9.11,3,6.79,6.79,0,0,1-6.37-1.11A21.1,21.1,0,0,1,215,168.56c-.88-4.33.52-8.21,2.48-11.87,2.12-3.85,2-4.29-1.51-6.62a4.19,4.19,0,0,1-2.15-4.5c.11-.82.58-1.66.36-2.27-.26-1-.8-2.19-1.55-2.49-2.13-.91-3.69-.16-5.12,2.2-2,3.12-3.71,6.58-7.68,7.52-2.82.67-5.74,1.17-8.67,1.67-.7.15-1.44-.06-2.15.08-2.22.27-3.26,1.88-4.2,3.66-1.63,3.27-2.42,3.42-5.3,1.13-.28-.15-.49-.5-.76-.57-2.51-1.06-4.93-2.12-7.42-2.92a2.73,2.73,0,0,0-2.33,1.18c-1.43,2.35-1.23,4.94-.4,7.48,1.16,3.33,3,5.79,6.58,7.12,3.15,1.19,3.25,4.86.52,6.7-.85.6-1.9.95-2.75,1.56-5.79,4-11.59,7.92-17.38,12a3.62,3.62,0,0,1-3.64.55c-2.4-.89-4.64-.8-6.66,1a1.39,1.39,0,0,1-1.43.11c-2.91-1.66-5.32-3.71-6.22-7.24-.79-3.08-2.49-5.28-5.94-5.82a11.67,11.67,0,0,0-6.46,1.23,20.11,20.11,0,0,1-9.15,1.35,24.9,24.9,0,0,0-6.78.53,3.17,3.17,0,0,0-2.44,3.25c0,1.71,1.1,2.61,2.58,3.12a9,9,0,0,1,2.88,1.21,3.89,3.89,0,0,1,1.53,2.39c.05.63-.86,1.6-1.55,1.92a11.35,11.35,0,0,1-3.45.72c-4.18.51-5.94,3.26-3.94,7a29.9,29.9,0,0,0,4.82,6.45c3.44,3.77,4.09,7.49,1.56,11.82-1.43,2.45-2.75,5-1.62,8a2.89,2.89,0,0,1-.28,2.09A18.8,18.8,0,0,0,108,238a6.78,6.78,0,0,1-.36,2.28c-.32,1.64-1,3.31-1,4.92,0,4-1.54,5.51-5.29,4.64a11.47,11.47,0,0,0-9.56,1.83,9.78,9.78,0,0,1-3.6,1,36.52,36.52,0,0,1-4.41-.1c-.21,2-1.48,2.9-3.25,3.31a2.88,2.88,0,0,0-1.11.72c-5.4,4.37-7,10.61-8,17.06-.31,1.74-.27,3.35-2.25,4.49a9.45,9.45,0,0,0-3.12,3.66c-2,3.48-1.7,5.88,1.05,8.81a4.32,4.32,0,0,1,2.67,4.28" transform="translate(-64.82 -140.44)"/><path class="cls-2" d="M447.84,304.19" transform="translate(-64.82 -140.44)"/><path class="cls-2" d="M314.89,448.81" transform="translate(-64.82 -140.44)"/><circle class="cls-3" cx="372.1" cy="408.94" r="158.36" transform="translate(-65.86 -139.49) rotate(-0.15)"/><path class="cls-4" d="M527.17,376.67a159.54,159.54,0,0,1,3.29,32.27" transform="translate(-64.82 -140.44)"/><circle class="cls-5" cx="307.28" cy="268.5" r="128.33"/><path class="cls-6" d="M376.64,280.61a128.33,128.33,0,0,0,0,256.66" transform="translate(-64.82 -140.44)"/><circle class="cls-7" cx="372.1" cy="408.94" r="87.81" transform="translate(-65.87 -139.48) rotate(-0.15)"/><path class="cls-8" d="M372.35,319.88A89.06,89.06,0,1,1,285.55,429" transform="translate(-64.82 -140.44)"/><path class="cls-4" d="M527.17,376.67" transform="translate(-64.82 -140.44)"/><rect class="cls-9" x="312.7" y="266.41" width="7.37" height="2.46"/><rect class="cls-9" x="307.78" y="279.6" width="12.28" height="2.46"/><polygon class="cls-9" points="297.96 263.96 297.96 266.41 295.51 266.41 295.51 268.87 297.96 268.87 297.96 271.32 300.42 271.32 300.42 268.87 302.88 268.87 302.88 266.41 300.42 266.41 300.42 263.96 297.96 263.96"/><polygon class="cls-9" points="302.01 276.28 299.19 279.09 296.38 276.28 294.64 278.01 297.45 280.83 294.64 283.64 296.38 285.38 299.19 282.56 302.01 285.38 303.74 283.64 300.93 280.83 303.74 278.01 302.01 276.28"/><rect class="cls-9" x="312.7" y="274.69" width="2.45" height="2.46"/><rect class="cls-9" x="312.7" y="284.51" width="2.45" height="2.46"/><path class="cls-9" d="M366.47,384.75a1.23,1.23,0,0,0-1.21,1c-.29,1.56-1.34,7.41-2,11.35l-1.9-3.17-2.1,1.27,3.68,6.14a1.25,1.25,0,0,0,1.37.54,1.24,1.24,0,0,0,.91-1.17c0-.85,1.32-8.35,2.25-13.51h17.39v-2.46Z" transform="translate(-64.82 -140.44)"/><polygon class="cls-9" points="308.65 262.37 312.7 258.33 316.74 262.37 318.48 260.63 314.43 256.59 318.48 252.55 316.74 250.81 312.7 254.86 308.65 250.81 306.92 252.55 310.96 256.59 306.92 260.63 308.65 262.37"/><path class="cls-9" d="M393.85,411.76v18H353.12v-47.5h40.73Zm0,21.94H349.16v2h44.69v2h-43.7a3,3,0,1,1,0-5.93h43.7Zm-46.67-36.12v-1.47a1.85,1.85,0,0,1,1.74-2h.24v-2a4,4,0,0,0-2,.48V387.2a5,5,0,0,1,4-4.85v47.4h-1a4.89,4.89,0,0,0-3,1V401.05a1.87,1.87,0,0,1,1.74-2h.24v-2a4,4,0,0,0-2,.49m47.66-17.31H352.13a6.94,6.94,0,0,0-6.93,6.93v47.49a5,5,0,0,0,4.95,4.95h44.69a1,1,0,0,0,1-1V381.26a1,1,0,0,0-1-1" transform="translate(-64.82 -140.44)"/><path class="cls-9" d="M394.7,396.15a12.5,12.5,0,1,0-12.5-12.5,12.5,12.5,0,0,0,12.5,12.5" transform="translate(-64.82 -140.44)"/><polygon class="cls-10" points="329.88 236.21 332.16 240.82 337.25 241.56 333.56 245.15 334.43 250.22 329.88 247.82 325.33 250.22 326.2 245.15 322.51 241.56 327.61 240.82 329.88 236.21"/></svg>
