<svg class="{{ .class }}" version="1.1" id="Layer_1" xmlns="http://www.w3.org/2000/svg" xmlns:xlink="http://www.w3.org/1999/xlink" x="0px" y="0px"
	 viewBox="0 0 612 792" style="enable-background:new 0 0 612 792;" xml:space="preserve">
<style type="text/css">
	.st0{fill:#F5853E;}
	.st1{fill:none;stroke:#FFFFFF;}
	.st2{fill:#48428D;}
	.st3{fill:#00A078;}
	.st4{fill:#F05227;}
	.st5{fill:#335952;}
	.st6{fill:#2E6B7D;}
	.st7{fill:#FFFFFF;}
	.st8{fill:#5C556C;}
	.st9{fill:#68CBDF;}
	.st10{fill:#7BC793;}
	.st11{fill:#572919;}
	.st12{fill:#EB5553;}
	.st13{fill:none;stroke:#FFFFFF;stroke-width:4;}
	.st14{fill:#F68A1F;}
	.st15{fill:#F68C29;}
	.st16{fill:#413C4D;}
</style>
<g>
	<path class="st0" d="M41.26,270.73c0,2.29,1.19,3.88,2.55,5.54c0.98,1.25,2.15,2.65,2.44,4.13c0.46,2.43,1.82,2.95,3.87,3.23
		c2.32,0.35,4.26,1.43,5.07,3.84c0.79,2.23,2.07,2.75,4.28,1.69c4.34-2.02,8.67-4.21,13.01-6.32c-0.05,0.53-0.16,1.34-0.18,2.13
		c-0.1,3.18-0.38,6.38-0.05,9.45c0.34,3.24,2.52,5.1,5.5,4.86c5.79-0.46,11.48-0.99,17.26-1.62c2.8-0.31,5.17-1.55,6.93-3.9
		c0.24-0.28,0.56-0.75,0.83-0.68c3.47,0.34,5.12-2.17,7.07-4.35c2.19-2.47,4.78-4.26,8.3-4.45c2.2-0.09,4.43-0.97,6.94-1.52
		c0,0,0.39,0.41,0.69,0.92c1.38,1.83,2.04,3.55,0.73,5.86c-0.61,1.2-0.12,3.01-0.08,4.6c0,1.15,0.37,2.44,0.1,3.52
		c-0.4,1.71-0.37,3.21,0.47,4.82c2.26,4.06,5.51,7.16,9.24,9.77c2.05,1.43,4.2,1.79,6.62,1.16c0.78-0.15,1.78,0.21,2.61,0.59
		c1.1,0.53,1.99,1.7,3.06,1.88c1.61,0.32,2.72,0.93,3.77,2c1.44,1.47,3.19,2.4,5.27,1.88c1.56-0.39,2.3,0,2.86,1.54
		c1.23,3.26,3.32,4.06,6.68,3.01c0.94-0.34,2.28-0.18,3.28,0.18c2.27,0.79,4.39,1.95,6.57,2.75c1.45,0.5,2.22,1.33,2.51,2.72
		c0.42,2,0.75,3.91,0.91,5.93c0.13,2.73,0.7,5.51-1.5,7.88c-0.33,0.29-0.45,1.01-0.41,1.45c0.44,2.26,1.05,4.42,3.02,5.85
		c3.28,2.39,7,3.69,11.06,3.72c1.77,0.04,3.6-0.28,5.44-0.34c2.38-0.1,3.25,0.98,2.81,3.22c-0.13,0.54-0.26,1.17-0.48,1.71
		c-1.91,4.83-0.27,7.79,4.67,8.9c0.99,0.27,2.48,1.22,2.53,1.92c0.47,3.67,2.36,7.49-0.27,11.14c-0.32,0.38-0.64,0.84-0.69,1.38
		c-0.1,0.98-0.35,2.23,0.06,2.99c0.51,0.93,0.56,1.46,0,2.3c-1.18,1.86-1.92,3.68-1.91,5.98c0.1,4.67-0.14,9.37-0.13,14.04
		c0,2.29,0.1,4.67,0.37,6.94c0.24,1.92,1.42,3.51,3.39,3.79c2.67,0.32,5.42,0.46,8.05,0.25c7.1-0.56,12.86,5.34,12.19,12.46
		c-0.21,1.87,0.04,3.88,0.28,5.8c0.28,2.45,1.11,2.91,3.53,2.28c1.13-0.26,2.24-0.71,3.37-0.88c2.79-0.4,4.95,1.2,4.82,4.03
		c-0.1,3.19-0.46,6.48-1.28,9.54c-0.88,3.42-1.15,3.36,1.91,5.15c3.05,1.79,4.41,4.51,4.24,7.96c-0.08,2.3-0.52,4.54-0.43,6.83
		c0.19,3.52-2.04,5.54-4.6,6.63c-6.93,2.75-12.02,7.65-16.9,12.89c-3.01,3.24-5.56,6.79-8.28,10.27c-1.53,1.89-1.53,3.03-0.04,5.04
		c0.4,0.59,0.8,1.17,1.28,1.66c2.32,2.55,5.22,4.62,4.67,8.81c-0.22,1.69,1.07,2.39,2.69,1.73c0.69-0.23,1.28-0.63,1.85-1.12
		c1.33-1.08,2.51-0.64,3.47,0.34c3.76,4.03,7.91,7.41,12.46,10.32c2.04,1.25,3.68,2.98,4.21,5.32c0.42,2,1.66,2.08,3.23,1.78
		c1.48-0.29,2.85-0.84,4.4-1.32c1.12,1.94,2.64,2.09,3.9,0.22c0.55-0.84,1.18-1.77,1.28-2.75c0.65-4.02,2.24-7.41,5-10.46
		c2.68-2.95,4.98-6.22,7.55-9.51c0.19,0.16,0.55,0.31,0.84,0.55c2.37,2.11,4.9,1.73,6.36-1.03c0.84-1.65,1.68-3.31,2.33-5.13
		c1.17-3.09,3.01-5.45,5.49-7.58c1.73-1.55,3.17-3.43,4.34-5.37c1.86-3.24,2.27-7.06,2.42-10.69c0.19-3.19,0.11-6.45,0.21-9.64
		c-0.01-1.24,0.16-2.49,0.24-3.64c0.3-3.99,3.4-7.33,2.52-11.67c0.91,0.37,1.56,0.76,2.29,1.05c1.27,0.43,2.22,0.18,2.72-1.27
		c1.07-3.26,3.76-4.97,6.67-6.08c2.31-0.98,4.24-2.19,6.05-3.92c2.05-2.02,4.19-3.95,7.45-4.03c4.75-0.2,9.04-1.68,12.09-5.63
		c2.65-3.39,5.67-4.15,9.52-2.34c2.47,1.13,5.12,1.1,7.81,0.53c5.2-1.2,9.58-3.84,13.65-7.16c3.15-2.63,5.91-5.58,7.36-9.58
		c0.94-2.63,2.54-4.79,5.17-6.05c0.85-0.42,1.7-0.84,2.26-1.5c3.1-4.39,6.19-8.87,9.18-13.43c1.49-2.32,0.5-4.89,0.48-7.36
		c-0.09-2.29-0.02-4.76,1.89-6.24c3.32-2.64,4.81-6.2,5.92-10c0.5-1.54,0.36-3.29,0.5-4.89c-0.11-0.26,0.49-0.48,0.56-0.75
		c0.27-1.08,0.44-2.24,0.53-3.39c0.36-3.21,0.74-6.33,1.01-9.52c0.32-3.82,0.55-7.63,0.78-11.44c0.25-3.55,0.15-7.07,0.58-10.64
		c0.25-2.49,1.48-4.79,3.96-5.78c8.02-3.46,13.3-9.26,15.1-17.78c0.91-4.13,3.13-6.25,7.02-7.26c4.41-1.14,8.41-3.05,10.72-7.29
		c0.61-1.2,0.95-2.55,1.75-3.58c2.09-2.64,4.36-5.11,6.55-7.66c5.18-5.97,6.77-12.62,4.24-20.19c-0.91-2.58-1.47-5.18-2.12-7.86
		c-0.52-2.16-0.54-4.55-1.32-6.6c-1.77-4.54-4.69-8.02-10.11-8.47c-1.51-0.15-2.95-0.47-4.46-0.53c-3.29-0.27-6.12-1.46-8.33-3.76
		c-3.86-4.2-7.65-8.58-11.26-12.97c-2.34-2.82-4.17-5.94-8.5-5.95c-0.53,0.04-1.2-0.7-1.6-1.29c-2-2.93-4.75-4.3-8.2-4.39
		c-1.86-0.03-3.89-0.05-5.51,0.61c-4.7,1.96-9.2,0.9-13.62-0.43c-1.8-0.48-3.65-1.48-4.98-2.7c-1.71-1.54-3.7-2.18-5.83-2.28
		c-4.08-0.3-7.77,1.14-11.34,2.83c-1.79,0.85-3.66,1.7-5.71,2.57c0.67-3.85,1.28-7.34,1.97-10.83c0.31-1.7,0.06-2.56-1.74-3.13
		c-2.72-0.93-5.3-2.23-7.87-3.53c-1.29-0.69-2.35-1.76-3.72-2.44c-4.87-2.44-10.08-3.62-15.51-4.25c-6.05-0.67-11.6,0.65-16.21,4.89
		c-2.3,2.12-4.61,4.16-6.85,6.1c-0.93-1.78-2.2-3.27-3.7-4.39c0.87-0.16,1.81-0.5,2.66-0.92c1.7-0.84,3.39-1.77,4.8-2.94
		c2.47-2.22,4.94-4.54,7.12-7.09c1.29-1.51,0.85-2.63-1.06-3.36c-5.28-2.06-10.79-2.59-16.41-2.15c-2.63,0.21-4.74,1.43-6.66,2.82
		c-2,1.48-3.72,3.2-5.82,4.61c-1.68,1.1-3.44,2.21-6.12,1.81c0.66-1.73,0.96-3.43,1.83-4.82c3.52-5.75,8.09-10.43,13.71-14.14
		c1.6-1.01,2.91-2.26,2.39-4.42c-0.39-1.56,0.14-2.66,1.3-3.63c0.91-0.78,1.72-1.64,2.87-2.79c-1.19-0.52-1.93-0.99-2.83-1.19
		c-1.71-0.48-3.67-0.59-5.31-1.26c-1.09-0.44-2.23-1.41-2.58-2.45c-0.69-1.98-0.68-4.18-1.37-6.25c-1.43-4.74-3.13-9.46-4.61-13.76
		c-2.31-1.32-3.64-0.33-4.76,1.17c-1.12,1.41-2.44,2.66-3.47,4.16c-0.47,0.74-0.83,1.83-0.58,2.69c0.56,2.6,0.59,3.04-1.82,3.85
		c-2.14,0.79-3.36,2.21-3.91,4.19c-0.42,1.45-1.41,2.23-2.79,2.69c-3.87,1.28-7.75,1.32-11.74,1.1c-3.02-0.2-5.79-0.69-7.76-3.27
		c-0.4-0.59-1.31-0.96-1.93-1c-2.58-0.24-5.14-0.3-7.72-0.54c-1.87-0.21-2.87,0.49-3.8,2.15c-1.61,3.13-5.73,6.8-10.71,5.26
		c-3.17-0.99-6.38-0.29-9.45,1.01c-2.91,1.2-5.92,2.14-8.95,2.91c-2.16,0.61-4.38,0.43-6.26-1.1c-4.05-3.21-6.59-7.43-7.61-12.55
		c-0.86-4.26,0.51-8.07,2.44-11.67c2.09-3.78,1.96-4.21-1.48-6.5c-1.67-1.1-2.4-2.46-2.11-4.42c0.11-0.8,0.58-1.63,0.35-2.23
		c-0.25-0.95-0.79-2.14-1.52-2.44c-2.1-0.89-3.63-0.16-5.04,2.16c-1.96,3.07-3.64,6.46-7.54,7.39c-2.77,0.66-5.65,1.15-8.52,1.64
		c-0.69,0.14-1.42-0.07-2.11,0.08c-2.18,0.26-3.21,1.84-4.13,3.59c-1.6,3.22-2.38,3.36-5.21,1.12c-0.28-0.15-0.48-0.49-0.75-0.56
		c-2.46-1.04-4.84-2.09-7.29-2.87c-0.63-0.21-1.9,0.5-2.29,1.15c-1.41,2.32-1.21,4.86-0.39,7.36c1.14,3.26,2.92,5.68,6.46,6.99
		c3.09,1.17,3.2,4.78,0.52,6.58c-0.84,0.6-1.87,0.94-2.7,1.54c-5.7,3.89-11.39,7.78-17.08,11.76c-1.17,0.89-2.31,0.98-3.58,0.55
		c-2.36-0.87-4.56-0.79-6.54,0.96c-0.24,0.28-1.03,0.35-1.4,0.11c-2.86-1.63-5.23-3.65-6.12-7.11c-0.77-3.03-2.44-5.19-5.83-5.72
		c-2.32-0.35-4.3,0.34-6.35,1.21c-2.91,1.2-5.79,1.52-8.99,1.33c-2.22-0.18-4.49,0.09-6.67,0.52c-1.48,0.29-2.35,1.6-2.4,3.19
		c-0.04,1.68,1.08,2.56,2.54,3.07c1,0.36,2.07,0.54,2.83,1.19c0.75,0.56,1.45,1.56,1.51,2.35c0.05,0.61-0.85,1.57-1.53,1.89
		c-1.02,0.43-2.25,0.62-3.39,0.71c-4.11,0.5-5.84,3.2-3.88,6.84c1.24,2.29,2.91,4.45,4.74,6.34c3.38,3.7,4.02,7.36,1.53,11.62
		c-1.4,2.4-2.7,4.89-1.58,7.89c0.22,0.6,0.02,1.41-0.28,2.05c-1.02,2.73-1.68,5.52-1.35,8.58c0.05,0.7-0.15,1.51-0.35,2.24
		c-0.31,1.61-0.98,3.25-0.94,4.84c0.04,3.88-1.51,5.41-5.2,4.56c-3.51-0.87-6.45-0.11-9.39,1.8c-1.01,0.61-2.32,0.8-3.54,0.98
		c-1.4,0.11-2.83-0.04-4.33-0.1c-0.2,1.96-1.45,2.85-3.19,3.25c-0.43,0.12-0.76,0.41-1.09,0.7c-5.31,4.3-6.86,10.42-7.86,16.77
		c-0.31,1.7-0.27,3.29-2.21,4.41c-1.27,0.72-2.3,2.21-3.07,3.6c-1.94,3.42-1.66,5.78,1.03,8.66
		C40.28,267.19,41.28,268.7,41.26,270.73"/>
	<circle class="st1" cx="261.72" cy="317.89" r="154.02"/>

		<ellipse transform="matrix(2.557499e-03 -1 1 2.557499e-03 -56.8349 578.7971)" class="st1" cx="261.72" cy="317.89" rx="115.52" ry="115.52"/>

		<ellipse transform="matrix(1 -2.538080e-03 2.538080e-03 1 -0.806 0.6653)" class="st1" cx="261.72" cy="317.89" rx="69.09" ry="69.09"/>
	<circle class="st1" cx="261.72" cy="317.89" r="190"/>
	<path class="st2" d="M144.65,502.89c17.12,0,31-13.88,31-31s-13.88-31-31-31s-31,13.88-31,31S127.53,502.89,144.65,502.89"/>
	<path class="st3" d="M313.65,377.89c8.84,0,16-7.16,16-16s-7.16-16-16-16c-8.84,0-16,7.16-16,16S304.81,377.89,313.65,377.89"/>
	<path class="st4" d="M246.65,225.89c13.81,0,25-11.19,25-25c0-13.81-11.19-25-25-25c-13.81,0-25,11.19-25,25
		C221.65,214.7,232.84,225.89,246.65,225.89"/>
	<path class="st5" d="M278.65,527.89c9.94,0,18-8.06,18-18s-8.06-18-18-18s-18,8.06-18,18S268.71,527.89,278.65,527.89"/>
	<path class="st6" d="M197.65,315.89c8.84,0,16-7.16,16-16s-7.16-16-16-16c-8.84,0-16,7.16-16,16S188.81,315.89,197.65,315.89"/>
	<path class="st3" d="M128.65,243.89c6.63,0,12-5.37,12-12c0-6.63-5.37-12-12-12c-6.63,0-12,5.37-12,12
		C116.65,238.52,122.02,243.89,128.65,243.89"/>
	<path class="st7" d="M454.65,353.89c6.63,0,12-5.37,12-12s-5.37-12-12-12c-6.63,0-12,5.37-12,12S448.02,353.89,454.65,353.89"/>
	<path class="st7" d="M146.65,308.99c3.87,0,7-3.13,7-7s-3.13-7-7-7c-3.87,0-7,3.13-7,7S142.78,308.99,146.65,308.99"/>
	<path class="st7" d="M162.65,391.89c5.52,0,10-4.48,10-10s-4.48-10-10-10c-5.52,0-10,4.48-10,10S157.13,391.89,162.65,391.89"/>
	<path class="st8" d="M295.65,263.89c3.31,0,6-2.69,6-6c0-3.31-2.69-6-6-6s-6,2.69-6,6C289.65,261.2,292.33,263.89,295.65,263.89"/>
	<path class="st9" d="M385.65,415.89c8.84,0,16-7.16,16-16s-7.16-16-16-16c-8.84,0-16,7.16-16,16S376.81,415.89,385.65,415.89"/>
	<path class="st7" d="M406.48,374.4c-2.02-2.02-5.29-2.02-7.31,0c-2.02,2.02-2.02,5.29,0,7.31c2.02,2.02,5.29,2.02,7.31,0
		C408.5,379.7,408.5,376.42,406.48,374.4"/>
	<path class="st10" d="M218.65,438.89c8.84,0,16-7.16,16-16s-7.16-16-16-16c-8.84,0-16,7.16-16,16S209.81,438.89,218.65,438.89"/>
	<path class="st11" d="M425.65,240.89c12.7,0,23-10.3,23-23c0-12.7-10.3-23-23-23c-12.7,0-23,10.3-23,23
		C402.65,230.59,412.95,240.89,425.65,240.89"/>
	<path class="st12" d="M375.72,230.57"/>
</g>
<path class="st13" d="M375.72,230.57"/>
<rect x="256.28" y="301.99" class="st7" width="5.39" height="1.79"/>
<rect x="252.69" y="311.64" class="st7" width="8.98" height="1.79"/>
<polygon class="st7" points="245.5,300.2 245.5,301.99 243.71,301.99 243.71,303.79 245.5,303.79 245.5,305.58 247.3,305.58
	247.3,303.79 249.1,303.79 249.1,301.99 247.3,301.99 247.3,300.2 "/>
<polygon class="st7" points="248.46,309.21 246.4,311.26 244.34,309.21 243.08,310.47 245.13,312.53 243.08,314.59 244.34,315.86
	246.4,313.8 248.46,315.86 249.73,314.59 247.67,312.53 249.73,310.47 "/>
<rect x="256.28" y="308.04" class="st7" width="1.79" height="1.79"/>
<rect x="256.28" y="315.23" class="st7" width="1.79" height="1.79"/>
<g>
	<path class="st7" d="M248.2,285.84c-0.43,0-0.81,0.31-0.88,0.74c-0.21,1.14-0.98,5.42-1.45,8.3l-1.39-2.31l-1.54,0.92l2.69,4.49
		c0.16,0.27,0.46,0.43,0.76,0.43c0.08,0,0.16-0.01,0.24-0.03c0.39-0.1,0.66-0.46,0.67-0.86c0.01-0.62,0.97-6.1,1.65-9.88h12.72v-1.8
		H248.2z"/>
</g>
<polygon class="st7" points="253.32,299.04 256.28,296.08 259.23,299.04 260.5,297.77 257.55,294.81 260.5,291.86 259.23,290.59
	256.28,293.54 253.32,290.59 252.05,291.86 255.01,294.81 252.05,297.77 "/>
<g>
	<path class="st7" d="M268.22,305.58v1.57v1.45v3.93v6.2h-29.78v-6.2v-3.93v-1.45v-1.57v-21.58h29.78V305.58z M268.22,321.63h-32.68
		v1.45h32.68v1.45h-31.95c-1.2,0-2.17-0.97-2.17-2.17c0-1.2,0.97-2.17,2.17-2.17h31.95V321.63z M234.1,295.21v-1.08
		c-0.05-0.75,0.52-1.4,1.27-1.45c0.06,0,0.12,0,0.18,0v-1.45c-0.5-0.01-1,0.11-1.45,0.35v-3.97c0-1.72,1.21-3.2,2.89-3.55v34.65
		h-0.72c-0.79,0-1.55,0.26-2.17,0.74v-21.72c-0.05-0.75,0.52-1.4,1.27-1.45c0.06,0,0.12,0,0.18,0v-1.45
		C235.04,294.85,234.54,294.97,234.1,295.21 M268.94,282.56h-31.23c-2.8,0-5.06,2.27-5.06,5.06v34.73c0,2,1.62,3.61,3.62,3.62h32.68
		c0.4,0,0.72-0.32,0.72-0.72v-41.96C269.66,282.88,269.34,282.56,268.94,282.56"/>
	<path class="st7" d="M268.84,294.17c5.05,0,9.14-4.09,9.14-9.14c0-5.05-4.09-9.14-9.14-9.14s-9.14,4.09-9.14,9.14
		C259.7,290.08,263.79,294.17,268.84,294.17"/>
</g>
<polygon class="st14" points="268.84,279.91 270.51,283.28 274.23,283.82 271.54,286.44 272.17,290.15 268.84,288.4 265.51,290.15
	266.15,286.44 263.46,283.82 267.18,283.28 "/>
<g>
	<path class="st15" d="M258.97,307.33c0,0,19.01,1.46,18.28,1.46c-0.73,0,1.46,30.71,1.46,29.98c0-0.73-23.4,0-23.4-0.73
		c0-0.73-0.73-22.67-0.73-22.67S253.85,310.25,258.97,307.33"/>
	<path class="st7" d="M290.42,330.52v1.59v1.46v3.96v6.25h-30v-6.25v-3.96v-1.46v-1.59v-21.74h30V330.52z M290.42,346.69H257.5v1.46
		h32.92v1.46h-32.19c-1.21,0-2.19-0.98-2.19-2.19c0-1.21,0.98-2.19,2.19-2.19h32.19V346.69z M256.04,320.07v-1.08
		c-0.05-0.76,0.52-1.41,1.28-1.46c0.06,0,0.12,0,0.18,0v-1.46c-0.51-0.01-1.01,0.11-1.46,0.36v-4c0-1.73,1.22-3.22,2.92-3.57v34.91
		h-0.73c-0.79,0-1.56,0.27-2.19,0.75v-21.88c-0.05-0.76,0.52-1.41,1.28-1.46c0.06,0,0.12,0,0.18,0v-1.46
		C256.99,319.71,256.49,319.83,256.04,320.07 M291.15,307.33h-31.46c-2.82,0-5.1,2.29-5.1,5.1v34.98c0,2.01,1.63,3.64,3.64,3.64
		h32.92c0.4,0,0.73-0.33,0.73-0.73v-42.27C291.87,307.66,291.55,307.33,291.15,307.33"/>
	<path class="st7" d="M274.42,321.12l2.68,7h-5.35L274.42,321.12z M266.66,337.38c0.74,0.28,1.58-0.08,1.86-0.84l2.11-5.53h7.4
		c0.06,0,0.11-0.01,0.15-0.01l2.11,5.54c0.22,0.58,0.77,0.93,1.35,0.93c0.18,0,0.34-0.04,0.52-0.09c0.74-0.28,1.12-1.12,0.84-1.86
		l-6.38-16.67c-0.36-0.93-1.23-1.53-2.22-1.53s-1.86,0.6-2.22,1.53l-6.38,16.67C265.54,336.25,265.91,337.08,266.66,337.38"/>
	<path class="st7" d="M291.51,319.03c5.05,0,9.14-4.09,9.14-9.14c0-5.05-4.09-9.14-9.14-9.14c-5.05,0-9.14,4.09-9.14,9.14
		C282.37,314.94,286.46,319.03,291.51,319.03"/>
</g>
<polygon class="st14" points="291.56,304.47 293.22,307.85 296.94,308.39 294.25,311.01 294.88,314.72 291.56,312.97 288.23,314.72
	288.86,311.01 286.17,308.39 289.89,307.85 "/>
<g>
	<path class="st16" d="M482.14,232.68c3.03,0,5.49-2.46,5.49-5.49s-2.46-5.49-5.49-5.49c-3.03,0-5.49,2.46-5.49,5.49
		S479.1,232.68,482.14,232.68"/>
	<path class="st16" d="M489.25,234.43h-3.45c0.93,0.73,1.64,1.74,2,2.89c0.01,0,0.02,0.01,0.04,0.01c1.47,0.5,2.54,1.92,2.49,3.56
		v19.26c0,1.46,1.19,2.65,2.65,2.65c1.46,0,2.65-1.19,2.65-2.65v-19.48v-0.01C495.61,237.23,492.75,234.43,489.25,234.43"/>
	<path class="st16" d="M477.61,256.1L477.61,256.1c-0.98,0-1.88-0.4-2.51-1.06v30.22c0,1.76,1.41,3.18,3.17,3.18
		c1.76,0,3.18-1.42,3.18-3.18v-25.43h1.37v25.43c0,1.76,1.42,3.18,3.18,3.18c1.76,0,3.17-1.42,3.17-3.18v-30.22
		c-0.64,0.65-1.53,1.06-2.51,1.06H477.61z"/>
	<path class="st16" d="M476.48,237.31c0.36-1.15,1.07-2.15,1.99-2.88h-3.45c-3.5,0-6.35,2.8-6.37,6.24v0.01v19.48
		c0,1.46,1.19,2.65,2.65,2.65c1.46,0,2.65-1.19,2.65-2.65v-18.95C473.73,239.43,474.87,237.82,476.48,237.31"/>
	<path class="st16" d="M484.15,239.08h-4.03c0-0.95,0.66-1.74,1.55-1.96h0.94C483.49,237.34,484.15,238.13,484.15,239.08
		 M485.57,249.09c0,0.72-0.58,1.3-1.3,1.3H480c-0.72,0-1.31-0.58-1.31-1.3c0-0.72,0.58-1.31,1.31-1.31h4.26
		C484.99,247.79,485.57,248.37,485.57,249.09 M478.68,237.13c-0.33,0.58-0.52,1.25-0.52,1.96h-0.55c-0.85,0-1.53,0.69-1.53,1.53
		v11.99c0,0.85,0.69,1.53,1.53,1.53h9.05c0.85,0,1.53-0.69,1.53-1.53v-11.99c0-0.85-0.69-1.53-1.53-1.53h-0.55
		c0-0.71-0.19-1.38-0.52-1.96c-0.68-1.2-1.98-2.01-3.45-2.01S479.37,235.92,478.68,237.13"/>
	<path class="st10" d="M556.44,228.61c0-2.96-2.4-5.37-5.37-5.37c-2.96,0-5.36,2.4-5.36,5.37c0,2.96,2.4,5.37,5.36,5.37
		C554.03,233.98,556.44,231.57,556.44,228.61 M564.16,241.8c0-0.01,0-0.01,0-0.02c-0.02-3.36-2.76-6.1-6.13-6.1h-13.93
		c-3.36,0-6.11,2.73-6.13,6.1l-0.1,19.02c-0.01,1.43,1.15,2.6,2.58,2.6h0.01c1.42,0,2.58-1.15,2.59-2.58l0.1-19.02v-0.01
		c0-0.28,0.23-0.51,0.52-0.51c0.28,0,0.51,0.23,0.51,0.51l0,43.52c0,1.72,1.39,3.11,3.11,3.11c1.72,0,3.11-1.39,3.11-3.11V260.5
		h1.34v24.83c0,1.72,1.39,3.11,3.11,3.11s3.11-1.39,3.11-3.11c0-41.07-0.05-17.58-0.06-43.49c0-0.29,0.23-0.53,0.52-0.54
		c0.29-0.01,0.54,0.21,0.56,0.5l-0.02,19.01c0,1.43,1.16,2.59,2.59,2.59h0c1.43,0,2.59-1.16,2.59-2.59L564.16,241.8z M574.92,224.06
		c0.11-0.39-0.03-0.65-0.4-0.81c-0.67-0.29-1.36-0.51-2.09-0.63c-0.95-0.14-0.94-0.15-0.95-1.1c-0.01-1.34-0.01-1.34-1.35-1.34
		c-0.2,0-0.39-0.01-0.59,0c-0.63,0.02-0.74,0.13-0.75,0.76v0.85c-0.01,0.85-0.01,0.83-0.81,1.12c-1.95,0.71-3.15,2.04-3.28,4.16
		c-0.11,1.88,0.87,3.15,2.41,4.08c0.95,0.57,2.01,0.91,3.02,1.36c0.39,0.17,0.77,0.38,1.1,0.65c0.97,0.8,0.79,2.13-0.36,2.64
		c-0.62,0.27-1.28,0.34-1.94,0.26c-1.03-0.13-2.02-0.4-2.95-0.88c-0.54-0.28-0.7-0.2-0.89,0.38c-0.17,0.51-0.3,1.03-0.45,1.54
		c-0.19,0.69-0.12,0.86,0.54,1.18c0.84,0.41,1.73,0.62,2.65,0.76c0.72,0.11,0.74,0.14,0.75,0.89c0,0.33,0,0.67,0.01,1.01
		c0.01,0.42,0.21,0.67,0.65,0.68c0.5,0.02,1,0.02,1.49,0c0.41-0.01,0.62-0.23,0.62-0.64c0-0.46,0.02-0.93,0-1.39
		c-0.02-0.47,0.18-0.71,0.63-0.83c1.03-0.29,1.92-0.84,2.61-1.67c1.89-2.3,1.17-5.67-1.49-7.17c-0.84-0.47-1.73-0.81-2.62-1.18
		c-0.51-0.21-1.01-0.46-1.44-0.81c-0.86-0.68-0.69-1.79,0.31-2.22c0.28-0.12,0.58-0.17,0.88-0.18c1.16-0.06,2.26,0.15,3.31,0.66
		c0.53,0.26,0.7,0.17,0.87-0.37C574.6,225.22,574.75,224.64,574.92,224.06"/>
	<path class="st7" d="M516.65,222.32c3.01,0,5.44,2.44,5.44,5.44c0,3.01-2.44,5.44-5.44,5.44s-5.44-2.44-5.44-5.44
		C511.21,224.76,513.64,222.32,516.65,222.32"/>
	<path class="st7" d="M533.49,257.62c-0.04-0.12-4.33-11.85-6.22-17.34c-1.22-3.55-3.26-5.34-6.07-5.34h-0.42
		c0.7,0.68,1.24,1.53,1.53,2.49c1.37,0.47,2.35,1.77,2.35,3.3v7.94c1.87,5.23,3.87,10.68,3.9,10.76c0.5,1.36,2.01,2.06,3.37,1.57
		C533.29,260.49,533.99,258.99,533.49,257.62"/>
	<path class="st7" d="M512.1,234.94c-2.81,0-4.85,1.8-6.07,5.34c-1.89,5.49-6.17,17.22-6.22,17.34c-0.5,1.36,0.2,2.87,1.57,3.37
		c1.36,0.5,2.87-0.2,3.37-1.57c0.03-0.08,2.02-5.53,3.9-10.76v-7.94c0-1.53,0.98-2.83,2.35-3.3c0.3-0.96,0.83-1.8,1.53-2.49H512.1z"
		/>
	<path class="st7" d="M527.07,264.5c-1.1-5.69-1.87-9.65-2.41-12.41v0.61c0,1.92-1.57,3.49-3.49,3.49h-9.04
		c-1.92,0-3.49-1.56-3.49-3.49v-0.62c-0.54,2.77-1.3,6.72-2.41,12.41c-0.17,0.9,0.52,1.74,1.43,1.74h2v19.05
		c0,1.74,1.41,3.15,3.15,3.15c1.74,0,3.15-1.41,3.15-3.15v-19.05h1.36v19.05c0,1.74,1.41,3.15,3.15,3.15c1.74,0,3.15-1.41,3.15-3.15
		v-19.05h2C526.55,266.24,527.24,265.41,527.07,264.5"/>
	<path class="st7" d="M518.78,250.5h-4.26c-0.72,0-1.3-0.58-1.3-1.3c0-0.72,0.58-1.3,1.3-1.3h4.26c0.72,0,1.31,0.58,1.31,1.3
		C520.08,249.91,519.5,250.5,518.78,250.5 M516.18,237.23h0.94c0.88,0.21,1.54,1.01,1.54,1.96h-4.03
		C514.63,238.24,515.29,237.45,516.18,237.23 M521.17,239.19h-0.55c0-0.71-0.19-1.38-0.52-1.96c-0.68-1.2-1.97-2.01-3.45-2.01
		c-1.48,0-2.77,0.81-3.45,2.01c-0.33,0.58-0.52,1.25-0.52,1.96h-0.55c-0.85,0-1.53,0.69-1.53,1.53v11.98c0,0.85,0.69,1.53,1.53,1.53
		h9.04c0.85,0,1.53-0.69,1.53-1.53v-11.98C522.7,239.88,522.02,239.19,521.17,239.19"/>
</g>
</svg>
