<svg class="{{ .class }}" xmlns="http://www.w3.org/2000/svg" viewBox="0 0 428.91 424.47"><defs><style>.map-people-cls-1{fill:#f68a1f;}.map-people-cls-2,.map-people-cls-4{fill:none;}.map-people-cls-2{stroke:#fff;stroke-width:2px;}.map-people-cls-3{fill:#fff;}.map-people-cls-4{stroke:#572919;stroke-width:20px;}.map-people-cls-5{fill:#2c111c;}</style></defs><path class="map-people-cls-1" d="M75.11,283.83c0,2.34,1.21,3.95,2.6,5.64,1,1.27,2.19,2.7,2.48,4.2.47,2.48,1.86,3,4,3.29,2.36.35,4.33,1.45,5.15,3.9.81,2.27,2.11,2.8,4.36,1.73,4.42-2.06,8.83-4.29,13.24-6.44,0,.55-.16,1.36-.19,2.17a68.73,68.73,0,0,0,0,9.62c.35,3.3,2.56,5.19,5.6,4.95,5.89-.46,11.68-1,17.56-1.65a9.88,9.88,0,0,0,7.06-4c.24-.29.56-.76.84-.7,3.53.35,5.21-2.2,7.2-4.43,2.22-2.51,4.86-4.33,8.44-4.52,2.24-.09,4.51-1,7.07-1.55a6.31,6.31,0,0,1,.7.94c1.4,1.86,2.08,3.61.74,6-.63,1.21-.12,3.06-.08,4.67,0,1.17.37,2.49.1,3.59a6.73,6.73,0,0,0,.47,4.9,30.27,30.27,0,0,0,9.41,9.95,7.75,7.75,0,0,0,6.74,1.18,4.75,4.75,0,0,1,2.65.6c1.12.54,2,1.72,3.12,1.91a6.87,6.87,0,0,1,3.84,2c1.46,1.5,3.24,2.44,5.36,1.91,1.58-.39,2.33,0,2.91,1.57,1.25,3.32,3.38,4.14,6.79,3.06a5.41,5.41,0,0,1,3.34.18c2.31.81,4.47,2,6.69,2.8a3.45,3.45,0,0,1,2.55,2.77,46,46,0,0,1,.93,6c.13,2.78.71,5.6-1.53,8a2,2,0,0,0-.42,1.47c.45,2.3,1.07,4.49,3.07,5.95a19.16,19.16,0,0,0,11.26,3.79c1.8,0,3.66-.29,5.54-.35,2.42-.1,3.31,1,2.86,3.28A11.33,11.33,0,0,1,237,374c-1.95,4.92-.27,7.93,4.76,9.06,1,.28,2.52,1.24,2.58,2,.47,3.74,2.39,7.63-.28,11.34a2.63,2.63,0,0,0-.7,1.4c-.1,1-.36,2.28.06,3.05a1.88,1.88,0,0,1,0,2.34,10.88,10.88,0,0,0-2,6.08c.11,4.75-.15,9.53-.13,14.29a59.47,59.47,0,0,0,.38,7.07,4.13,4.13,0,0,0,3.44,3.86,41.76,41.76,0,0,0,8.2.25,11.51,11.51,0,0,1,12.4,12.68,25.65,25.65,0,0,0,.29,5.91c.28,2.49,1.13,3,3.59,2.32,1.15-.27,2.28-.72,3.44-.9,2.84-.4,5,1.22,4.9,4.1a44,44,0,0,1-1.3,9.72c-.9,3.48-1.17,3.41,1.94,5.23a8.34,8.34,0,0,1,4.32,8.11c-.09,2.34-.54,4.62-.44,6.95.19,3.58-2.07,5.64-4.68,6.74-7.06,2.8-12.23,7.79-17.2,13.13-3.07,3.29-5.66,6.91-8.43,10.45-1.56,1.92-1.56,3.09,0,5.12a12.3,12.3,0,0,0,1.3,1.7c2.36,2.6,5.31,4.7,4.75,9-.22,1.73,1.09,2.43,2.74,1.76a5.83,5.83,0,0,0,1.89-1.13c1.35-1.1,2.55-.65,3.53.35A65.34,65.34,0,0,0,279,546.42a8.73,8.73,0,0,1,4.29,5.41c.43,2,1.69,2.11,3.29,1.81s2.9-.86,4.47-1.34c1.15,2,2.69,2.12,4,.22a6.6,6.6,0,0,0,1.31-2.8,20.11,20.11,0,0,1,5.09-10.64c2.73-3,5.07-6.32,7.68-9.67.2.16.57.31.85.56,2.42,2.14,5,1.76,6.48-1.05a43.45,43.45,0,0,0,2.37-5.22,18.54,18.54,0,0,1,5.6-7.71,23.81,23.81,0,0,0,4.41-5.47c1.9-3.29,2.31-7.19,2.47-10.88.19-3.25.11-6.57.22-9.81,0-1.26.16-2.53.25-3.7.3-4.07,3.45-7.46,2.56-11.88.93.37,1.59.77,2.33,1.07a1.89,1.89,0,0,0,2.77-1.3c1.09-3.31,3.83-5.06,6.79-6.19a19.62,19.62,0,0,0,6.16-4c2.08-2,4.26-4,7.58-4.1,4.83-.2,9.21-1.71,12.3-5.72,2.7-3.45,5.78-4.23,9.7-2.38a12.52,12.52,0,0,0,7.94.54,34,34,0,0,0,13.89-7.29c3.21-2.68,6-5.69,7.5-9.75a10.33,10.33,0,0,1,5.26-6.17,6.86,6.86,0,0,0,2.31-1.53c3.15-4.47,6.29-9,9.34-13.66,1.52-2.37.51-5,.49-7.5-.1-2.33,0-4.85,1.92-6.35,3.39-2.69,4.9-6.31,6-10.17a23.07,23.07,0,0,0,.51-5c-.12-.26.5-.49.56-.77a20.51,20.51,0,0,0,.54-3.45c.37-3.27.75-6.44,1-9.7.33-3.88.56-7.76.79-11.64.26-3.62.16-7.2.59-10.83a6.68,6.68,0,0,1,4-5.88c8.16-3.52,13.54-9.42,15.37-18.1.93-4.21,3.18-6.36,7.14-7.39,4.49-1.16,8.56-3.1,10.92-7.42a21.94,21.94,0,0,1,1.78-3.64c2.12-2.68,4.44-5.2,6.66-7.8,5.27-6.07,6.89-12.85,4.31-20.55-.92-2.62-1.49-5.27-2.16-8-.53-2.21-.54-4.63-1.33-6.72-1.8-4.62-4.78-8.16-10.29-8.63-1.54-.14-3-.48-4.54-.54a12.76,12.76,0,0,1-8.47-3.82c-3.93-4.27-7.78-8.73-11.46-13.2-2.38-2.87-4.25-6-8.65-6.06-.54,0-1.22-.71-1.63-1.31a9.79,9.79,0,0,0-8.35-4.46,14.86,14.86,0,0,0-5.61.62c-4.78,2-9.36.92-13.86-.43a12.65,12.65,0,0,1-5.07-2.75,9.16,9.16,0,0,0-5.93-2.32c-4.16-.3-7.9,1.16-11.54,2.89-1.82.86-3.73,1.73-5.81,2.61.68-3.92,1.3-7.47,2-11,.32-1.73.07-2.61-1.77-3.18a64.44,64.44,0,0,1-8-3.59c-1.31-.71-2.39-1.79-3.79-2.49a46.76,46.76,0,0,0-15.79-4.32c-6.16-.69-11.8.66-16.5,5-2.34,2.16-4.69,4.23-7,6.2a13.15,13.15,0,0,0-3.77-4.46,11,11,0,0,0,2.72-.93,25.3,25.3,0,0,0,4.88-3,78.41,78.41,0,0,0,7.25-7.22c1.31-1.54.86-2.67-1.08-3.42a37.4,37.4,0,0,0-16.7-2.19,13.26,13.26,0,0,0-6.78,2.87c-2,1.51-3.79,3.26-5.92,4.69-1.71,1.12-3.51,2.25-6.23,1.84a29,29,0,0,1,1.86-4.91A45.43,45.43,0,0,1,325.52,181c1.63-1,3-2.3,2.43-4.5a3.38,3.38,0,0,1,1.33-3.7c.93-.79,1.76-1.67,2.92-2.84a17.17,17.17,0,0,0-2.88-1.21c-1.74-.49-3.73-.6-5.4-1.28a4.72,4.72,0,0,1-2.62-2.49c-.7-2-.69-4.25-1.4-6.35-1.46-4.83-3.18-9.63-4.69-14-2.36-1.34-3.71-.33-4.85,1.19s-2.48,2.71-3.53,4.23a3.71,3.71,0,0,0-.59,2.75c.57,2.65.6,3.09-1.85,3.91a6,6,0,0,0-4,4.27,4,4,0,0,1-2.83,2.74,32,32,0,0,1-11.95,1.12c-3.07-.21-5.89-.71-7.9-3.33a2.81,2.81,0,0,0-2-1c-2.63-.24-5.24-.3-7.86-.55-1.9-.21-2.93.5-3.87,2.19-1.64,3.19-5.83,6.93-10.9,5.35-3.22-1-6.49-.29-9.62,1a67.22,67.22,0,0,1-9.11,3A6.79,6.79,0,0,1,228,170.3a21.05,21.05,0,0,1-7.74-12.78c-.88-4.33.52-8.21,2.47-11.87,2.13-3.85,2-4.29-1.5-6.62a4.21,4.21,0,0,1-2.16-4.5c.12-.82.59-1.66.36-2.27-.25-1-.8-2.19-1.54-2.49-2.14-.91-3.69-.15-5.12,2.2-2,3.13-3.71,6.58-7.68,7.52-2.82.68-5.74,1.17-8.67,1.67-.7.15-1.44-.06-2.15.08-2.22.27-3.26,1.88-4.2,3.66-1.63,3.27-2.43,3.42-5.3,1.13-.28-.15-.49-.5-.76-.56-2.51-1.06-4.93-2.13-7.42-2.92a2.67,2.67,0,0,0-2.33,1.17c-1.43,2.36-1.23,4.94-.4,7.48,1.16,3.33,3,5.79,6.58,7.12,3.14,1.19,3.25,4.86.52,6.7-.85.6-1.9.95-2.75,1.56-5.79,4-11.59,7.92-17.38,12a3.62,3.62,0,0,1-3.64.55c-2.4-.89-4.64-.8-6.66,1a1.37,1.37,0,0,1-1.43.11c-2.91-1.66-5.32-3.71-6.23-7.24-.78-3.08-2.48-5.28-5.93-5.82a11.65,11.65,0,0,0-6.46,1.23,20.11,20.11,0,0,1-9.15,1.35,24.9,24.9,0,0,0-6.78.53,3.17,3.17,0,0,0-2.44,3.25c-.05,1.71,1.1,2.61,2.58,3.12a9,9,0,0,1,2.88,1.21,3.89,3.89,0,0,1,1.53,2.39c0,.63-.86,1.6-1.55,1.92a11.11,11.11,0,0,1-3.45.72c-4.18.51-5.94,3.26-3.94,7a29.9,29.9,0,0,0,4.82,6.45c3.44,3.77,4.09,7.49,1.56,11.82-1.43,2.45-2.76,5-1.62,8a2.89,2.89,0,0,1-.28,2.09,18.67,18.67,0,0,0-1.38,8.73,6.78,6.78,0,0,1-.36,2.28c-.32,1.64-1,3.31-1,4.92,0,4-1.54,5.51-5.29,4.64a11.5,11.5,0,0,0-9.56,1.83,9.78,9.78,0,0,1-3.6,1,36.52,36.52,0,0,1-4.41-.1c-.21,2-1.48,2.9-3.25,3.31a3,3,0,0,0-1.11.72c-5.4,4.38-7,10.61-8,17.06-.31,1.74-.27,3.35-2.25,4.49a9.45,9.45,0,0,0-3.12,3.66c-2,3.48-1.7,5.88,1,8.81a4.32,4.32,0,0,1,2.67,4.28" transform="translate(-70.11 -129.4)"/><circle class="map-people-cls-2" cx="231.11" cy="194.95" r="188.5"/><circle class="map-people-cls-2" cx="231.11" cy="194.95" r="118"/><path class="map-people-cls-3" d="M313.46,329.45H290.53v4.4h22.93Zm0-11.44H290.53v4.43h22.93Z" transform="translate(-70.11 -129.4)"/><path class="map-people-cls-3" d="M105.62,463.93l2.82,2.82-2.82,2.81,1.74,1.74,2.82-2.82L113,471.3l1.74-1.74-2.82-2.81,2.82-2.82L113,462.2,110.18,465l-2.82-2.81ZM109,449.88v2.45h-2.46v2.46H109v2.46h2.45v-2.46h2.46v-2.46H111.4v-2.45Zm-3.51-9.19,3.68,6.14a1.24,1.24,0,0,0,1,.59,1.13,1.13,0,0,0,.32-.05,1.22,1.22,0,0,0,.91-1.17c0-.85,1.33-8.35,2.26-13.51h17.39v-2.45H112.63a1.23,1.23,0,0,0-1.21,1c-.28,1.56-1.34,7.41-2,11.35l-1.89-3.17Zm12.46-2.22,4,4-4,4.05,1.74,1.73,4-4,4,4,1.74-1.73-4-4.05,4-4-1.74-1.74-4,4-4-4Zm.87,29.51h2.69a11.06,11.06,0,0,1,.66-2.46h-3.35Zm7.13-7.37h-2.22v2.18a11.8,11.8,0,0,1,2.22-2.18m5.15-8.28h-7.37v2.46h7.37ZM95.32,481.17h26.39q0-1-.06-2H95.32Zm2-5.94h-1a4.93,4.93,0,0,0-3,1v-29.7a1.87,1.87,0,0,1,1.74-2h.24v-2a4,4,0,0,0-2,.48v-1.47a1.87,1.87,0,0,1,1.74-2h.24v-2a4.14,4.14,0,0,0-2,.48v-5.43a5,5,0,0,1,4-4.85ZM142,460.77v-34a1,1,0,0,0-1-1H98.29a6.92,6.92,0,0,0-6.92,6.92v47.5a4.94,4.94,0,0,0,4.94,4.94h25.53l-.06-2H96.31a3,3,0,1,1,0-5.93h25.27c0-.7,0-1.37-.06-2H99.28V427.74H140v32.87l2,.16" transform="translate(-70.11 -129.4)"/><path class="map-people-cls-3" d="M140.87,441.63a12.5,12.5,0,1,0-12.5-12.5,12.5,12.5,0,0,0,12.5,12.5" transform="translate(-70.11 -129.4)"/><polygon class="map-people-cls-1" points="70.76 292.73 73.03 297.34 78.12 298.08 74.44 301.67 75.31 306.74 70.76 304.35 66.21 306.74 67.08 301.67 63.39 298.08 68.48 297.34 70.76 292.73"/><path class="map-people-cls-3" d="M170.37,491.35v18.12h-41V461.62h41Zm0,22.11h-45v2h45v2h-44a3,3,0,1,1,0-6h44Zm-47-36.4v-1.48a1.87,1.87,0,0,1,1.75-2h.24v-2a4.07,4.07,0,0,0-2,.49v-5.47a5,5,0,0,1,4-4.89v47.75h-1a4.91,4.91,0,0,0-3,1V480.56a1.88,1.88,0,0,1,1.75-2h.24v-2a4.06,4.06,0,0,0-2,.48m48-17.43h-43a7,7,0,0,0-7,7v47.84a5,5,0,0,0,5,5h45a1,1,0,0,0,1-1V460.63a1,1,0,0,0-1-1" transform="translate(-70.11 -129.4)"/><path class="map-people-cls-3" d="M148.49,478.49l3.66,9.57h-7.31Zm-10.61,22.23a2,2,0,0,0,2.55-1.14l2.89-7.56h10.12l.21,0,2.89,7.58a2,2,0,0,0,1.85,1.27,2.27,2.27,0,0,0,.71-.13,2,2,0,0,0,1.14-2.55l-8.72-22.8a3.24,3.24,0,0,0-6.07,0l-8.72,22.8a2,2,0,0,0,1.15,2.55" transform="translate(-70.11 -129.4)"/><path class="map-people-cls-3" d="M171.87,475.63a12.5,12.5,0,1,0-12.5-12.5,12.5,12.5,0,0,0,12.5,12.5" transform="translate(-70.11 -129.4)"/><polygon class="map-people-cls-1" points="101.82 326.33 104.1 330.94 109.19 331.68 105.51 335.27 106.38 340.34 101.82 337.94 97.27 340.34 98.14 335.27 94.46 331.68 99.55 330.94 101.82 326.33"/><path class="map-people-cls-4" d="M489,328.65a190.12,190.12,0,0,0-2.46-30.57" transform="translate(-70.11 -129.4)"/><path class="map-people-cls-5" d="M262.94,294.05a6,6,0,1,0-6,6,6,6,0,0,0,6-6m8.61,14.7h0a6.84,6.84,0,0,0-6.83-6.8H249.19a6.85,6.85,0,0,0-6.83,6.8L242.25,330a2.89,2.89,0,0,0,2.87,2.9h0A2.89,2.89,0,0,0,248,330l.1-21.21h0a.58.58,0,0,1,1.15,0V357.3a3.47,3.47,0,1,0,6.93,0V329.61h1.49V357.3a3.47,3.47,0,1,0,6.93,0c0-45.8-.06-19.61-.06-48.49a.61.61,0,0,1,1.21-.05l0,21.2a2.88,2.88,0,0,0,2.88,2.89h0a2.88,2.88,0,0,0,2.88-2.88Zm12-19.78a.68.68,0,0,0-.44-.91,9.62,9.62,0,0,0-2.33-.7c-1.06-.16-1-.17-1.06-1.23,0-1.49,0-1.49-1.51-1.49h-.65c-.71,0-.83.14-.84.84v.95c0,.95,0,.93-.91,1.26a5,5,0,0,0-3.66,4.64,4.77,4.77,0,0,0,2.69,4.55,29.73,29.73,0,0,0,3.36,1.51,5.22,5.22,0,0,1,1.23.72,1.68,1.68,0,0,1-.4,2.95,4,4,0,0,1-2.16.28,9.42,9.42,0,0,1-3.29-1c-.61-.31-.78-.23-1,.43s-.34,1.14-.5,1.71c-.21.78-.13,1,.6,1.31a10.07,10.07,0,0,0,3,.85c.8.13.82.16.83,1,0,.37,0,.74,0,1.12a.67.67,0,0,0,.72.76c.56,0,1.11,0,1.67,0a.63.63,0,0,0,.69-.71c0-.52,0-1,0-1.55a.81.81,0,0,1,.7-.93,5.69,5.69,0,0,0,2.91-1.86,5.29,5.29,0,0,0-1.66-8,28.51,28.51,0,0,0-2.93-1.32,6.52,6.52,0,0,1-1.61-.9,1.39,1.39,0,0,1,.35-2.48,3,3,0,0,1,1-.2,7.43,7.43,0,0,1,3.69.73c.59.29.79.19,1-.41s.39-1.3.57-1.94" transform="translate(-70.11 -129.4)"/><path class="map-people-cls-5" d="M347.05,294.05a6,6,0,1,0-6,6,6,6,0,0,0,6-6m8.62,14.7h0a6.85,6.85,0,0,0-6.83-6.8H333.31a6.85,6.85,0,0,0-6.84,6.8l-.1,21.21a2.88,2.88,0,0,0,2.87,2.9h0a2.89,2.89,0,0,0,2.89-2.87l.11-21.21h0a.57.57,0,0,1,1.14,0V357.3a3.47,3.47,0,1,0,6.93,0V329.61h1.5V357.3a3.47,3.47,0,1,0,6.93,0c0-45.8-.06-19.61-.06-48.49a.6.6,0,0,1,1.2-.05V330a2.88,2.88,0,0,0,2.88,2.89h0a2.88,2.88,0,0,0,2.89-2.88Zm12-19.78a.69.69,0,0,0-.45-.91,9.49,9.49,0,0,0-2.33-.7c-1.06-.16-1.05-.17-1.06-1.23,0-1.49,0-1.49-1.5-1.49h-.66c-.7,0-.82.14-.84.84v.95c0,.95,0,.93-.91,1.26a5,5,0,0,0-3.66,4.64,4.78,4.78,0,0,0,2.7,4.55,29,29,0,0,0,3.36,1.51,5.22,5.22,0,0,1,1.23.72,1.68,1.68,0,0,1-.41,2.95,4,4,0,0,1-2.16.28,9.55,9.55,0,0,1-3.29-1c-.6-.31-.78-.23-1,.43s-.33,1.14-.49,1.71c-.21.78-.14,1,.59,1.31a10.24,10.24,0,0,0,3,.85c.8.13.83.16.84,1v1.12a.68.68,0,0,0,.73.76c.55,0,1.11,0,1.66,0a.63.63,0,0,0,.69-.71c0-.52,0-1,0-1.55a.82.82,0,0,1,.71-.93,5.73,5.73,0,0,0,2.91-1.86,5.28,5.28,0,0,0-1.67-8,28.35,28.35,0,0,0-2.92-1.32,6.34,6.34,0,0,1-1.61-.9,1.39,1.39,0,0,1,.34-2.48,3.06,3.06,0,0,1,1-.2,7.47,7.47,0,0,1,3.69.73c.59.29.78.19,1-.41s.39-1.3.58-1.94" transform="translate(-70.11 -129.4)"/></svg>
