<svg class="{{ .class }}" data-name="Layer 1" xmlns="http://www.w3.org/2000/svg" viewBox="0 0 83.08 149.69"><defs><style>.cls-3{fill:#455b64}</style></defs><path d="M1002.51 532.15l-9.24-2.72a4 4 0 0 0-5 2.73l-39.64 135.75 16.87 5L1005.18 537a3.94 3.94 0 0 0-2.67-4.85zm-44.63 131.76a2.05 2.05 0 1 1 1.39 2.55 2.05 2.05 0 0 1-1.39-2.55z" transform="translate(-922.26 -529.23)" fill="#42bfb1"/><path d="M948.63 667.91l4.22 1.25L994 529.63l-.82-.24a3.87 3.87 0 0 0-4.82 2.63z" transform="translate(-922.26 -529.23)" fill="#00acc1"/><path class="cls-3" transform="rotate(-73.58 151.15 1011.74)" d="M965.31 656.63h1.6v6.2h-1.6z"/><path class="cls-3" transform="rotate(-73.58 153.4 1009.08)" d="M967.87 655.38h.99v3.37h-.99z"/><path class="cls-3" transform="rotate(-73.58 154.16 1006.45)" d="M968.64 652.76h.99v3.36h-.99z"/><path class="cls-3" transform="rotate(-73.7 153.29 1002.17)" d="M969.41 650.14h.99v3.36h-.99z"/><path class="cls-3" transform="rotate(-73.58 155.7 1001.2)" d="M970.18 647.51h.99v3.35h-.99z"/><path class="cls-3" transform="rotate(-73.58 155.26 997.8)" d="M969.4 642.7h1.6v6.16h-1.6z"/><path class="cls-3" transform="rotate(-73.58 157.48 995.13)" d="M971.96 641.45h.99v3.33h-.99z"/><path class="cls-3" transform="rotate(-73.58 158.25 992.5)" d="M972.73 638.83h.99v3.33h-.99z"/><path class="cls-3" transform="rotate(-73.58 159.02 989.88)" d="M973.5 636.21h.99v3.32h-.99z"/><path class="cls-3" transform="rotate(-73.58 159.8 987.26)" d="M974.27 633.58h.99v3.31h-.99z"/><path class="cls-3" transform="rotate(-73.58 159.33 983.85)" d="M973.49 628.77h1.6v6.13h-1.6z"/><path class="cls-3" transform="rotate(-73.58 161.6 981.18)" d="M976.05 627.52h.99v3.3h-.99z"/><path class="cls-3" transform="rotate(-73.58 162.4 978.56)" d="M976.82 624.9h.99v3.29h-.99z"/><path class="cls-3" transform="rotate(-73.58 163.11 975.94)" d="M977.59 622.28h.99v3.29h-.99z"/><path class="cls-3" transform="rotate(-73.58 163.9 973.3)" d="M978.36 619.65h.99v3.28h-.99z"/><path class="cls-3" transform="rotate(-73.58 163.44 969.9)" d="M977.59 614.84h1.6v6.09h-1.6z"/><path class="cls-3" transform="rotate(-73.58 165.72 967.23)" d="M980.14 613.59h.99v3.27h-.99z"/><path class="cls-3" transform="rotate(-73.58 166.46 964.6)" d="M980.91 610.97h.99v3.26h-.99z"/><path class="cls-3" transform="rotate(-73.58 167.22 961.99)" d="M981.68 608.35h.99v3.25h-.99z"/><path class="cls-3" transform="rotate(-73.58 167.97 959.36)" d="M982.45 605.73h.99v3.25h-.99z"/><path class="cls-3" transform="rotate(-73.58 167.5 955.95)" d="M981.68 600.91h1.6v6.06h-1.6z"/><path class="cls-3" transform="rotate(-73.58 169.73 953.3)" d="M984.23 599.66h.99v3.23h-.99z"/><path class="cls-3" transform="rotate(-73.58 170.55 950.66)" d="M985 597.04h.99v3.22H985z"/><path class="cls-3" transform="rotate(-73.7 169.68 946.51)" d="M985.77 594.42h.99v3.22h-.99z"/><path class="cls-3" transform="rotate(-73.58 172.11 945.42)" d="M986.54 591.8h.99v3.21h-.99z"/><path class="cls-3" transform="rotate(-73.58 171.62 942)" d="M985.77 586.98h1.6V593h-1.6z"/><path class="cls-3" transform="rotate(-73.58 173.9 939.34)" d="M988.33 585.73h.99v3.2h-.99z"/><path class="cls-3" transform="rotate(-73.58 174.74 936.41)" d="M989.18 582.81h.99V586h-.99z"/><path class="cls-3" transform="rotate(-73.58 175.5 933.79)" d="M989.95 580.19h.99v3.18h-.99z"/><path class="cls-3" transform="rotate(-73.58 176.26 931.16)" d="M990.72 577.56h.99v3.18h-.99z"/><path class="cls-3" transform="rotate(-73.58 175.78 927.76)" d="M989.95 572.75h1.6v5.99h-1.6z"/><path class="cls-3" transform="rotate(-73.58 178.06 925.09)" d="M992.51 571.5h.99v3.16h-.99z"/><path class="cls-3" transform="rotate(-73.58 178.77 922.47)" d="M993.28 568.88h.99v3.15h-.99z"/><path class="cls-3" transform="rotate(-73.58 179.6 919.84)" d="M994.05 566.26h.99v3.15h-.99z"/><path class="cls-3" transform="rotate(-73.58 180.36 917.21)" d="M994.82 563.63h.99v3.14h-.99z"/><path class="cls-3" transform="rotate(-73.58 179.87 913.81)" d="M994.04 558.82h1.6v5.95h-1.6z"/><path class="cls-3" transform="rotate(-73.58 182.13 911.15)" d="M996.6 557.57h.99v3.13h-.99z"/><path class="cls-3" transform="rotate(-73.58 182.94 908.51)" d="M997.37 554.95h.99v3.12h-.99z"/><path class="cls-3" transform="rotate(-73.58 183.68 905.9)" d="M998.14 552.33h.99v3.11h-.99z"/><path class="cls-3" transform="rotate(-73.58 184.47 903.26)" d="M998.91 549.71h.99v3.11h-.99z"/><path class="cls-3" transform="rotate(-73.58 183.96 899.86)" d="M998.13 544.89h1.6v5.92h-1.6z"/><path class="cls-3" transform="rotate(-73.58 186.22 897.2)" d="M1000.69 543.64h.99v3.09h-.99z"/><path class="cls-3" transform="rotate(-73.58 187.01 894.57)" d="M1001.46 541.02h.99v3.08h-.99z"/><path class="cls-3" transform="rotate(-73.58 187.78 891.94)" d="M1002.23 538.4h.99v3.08h-.99z"/><path class="cls-3" transform="rotate(-73.58 188.51 889.33)" d="M1003 535.78h.99v3.07h-.99z"/><path d="M938 557l-6.09 1.18a1 1 0 0 1-1.09-1.26l1.41-9.07a.9.9 0 0 1 .69-.79.91.91 0 0 1 .93.47l4.69 7.9A1 1 0 0 1 938 557z" transform="translate(-922.26 -529.23)" fill="#61cbe8"/><path d="M961 661.73l-1.16-6-17.15-88.67-.85-4.4-.57-3-4.27-7.22-3 .56-2.92.56-1.24 8.36.58 3L947.88 655l.34 1.74 1.39 7.18a.67.67 0 0 0 .78.53l6-1.15.82-.16.68-.13 2.57-.5h.21a.46.46 0 0 0 .36-.53z" transform="translate(-922.26 -529.23)" fill="#5462ad"/><path d="M976.65 567.78l-6.23 1.2a1.06 1.06 0 0 1-1.11-1.28l1.44-9.27a.92.92 0 0 1 .7-.81.93.93 0 0 1 1 .48l4.79 8.07a1.06 1.06 0 0 1-.59 1.61z" transform="translate(-922.26 -529.23)" fill="#e61a4a"/><path d="M999.59 672.71l-1.16-6-17.15-88.67-.85-4.4-.57-3-4.27-7.29-2.91.56-2.92.56-1.24 8.36.58 3L986.52 666l.34 1.75 1.39 7.18a.66.66 0 0 0 .78.52l6-1.15.82-.16.68-.13 2.57-.5h.21a.45.45 0 0 0 .36-.52z" transform="translate(-922.26 -529.23)" fill="#1597a7"/><path d="M966.24 559l-6-1.47a1 1 0 0 1-.46-1.6l5.06-7.66a.93.93 0 0 1 1-.43.91.91 0 0 1 .65.82l1 9.13a1 1 0 0 1-1.25 1.21z" transform="translate(-922.26 -529.23)" fill="#f17e29"/><path d="M943.49 663.76l1.43-5.89 21.37-87.75 1.06-4.35.72-2.95-.84-8.4-2.89-.7-2.89-.71-4.6 7.08-.72 2.95-21.71 89.16-.42 1.73-1.73 7.1a.65.65 0 0 0 .49.8l5.9 1.44.81.2.68.16 2.53.62h.21a.45.45 0 0 0 .55-.33z" transform="translate(-922.26 -529.23)" fill="#fff"/><path d="M4.94 55.51h67.6a4.94 4.94 0 0 1 4.94 4.94v89.25H0V60.44a4.94 4.94 0 0 1 4.94-4.93z" fill="#693996"/></svg>
