<svg xmlns="http://www.w3.org/2000/svg" xmlns:xlink="http://www.w3.org/1999/xlink" viewBox="0 0 415.92 493.28"><defs><style>.people-percentage-cls-1{fill:none;}.people-percentage-cls-2{fill:#403c4d;}.people-percentage-cls-3{fill:#fff;}.people-percentage-cls-4{clip-path:url(#clip-path);}.people-percentage-cls-5{fill:#374dde;}.people-percentage-cls-6{fill:#49418c;}</style><clipPath id="clip-path" transform="translate(-39.18)"><rect class="people-percentage-cls-1" y="326.91" width="141.69" height="126.09"/></clipPath></defs><title>Asset 7</title><g id="Layer_2" data-name="Layer 2"><g id="Layer_1-2" data-name="Layer 1"><path class="people-percentage-cls-2" d="M78.17,31.77A15.89,15.89,0,1,0,62.29,15.89,15.88,15.88,0,0,0,78.17,31.77" transform="translate(-39.18)"/><path class="people-percentage-cls-2" d="M98.75,36.84h-10a17.11,17.11,0,0,1,5.77,8.36l.11,0a10.6,10.6,0,0,1,7.19,10.3v55.7a7.67,7.67,0,0,0,15.33,0V54.88a18.31,18.31,0,0,0-18.42-18" transform="translate(-39.18)"/><path class="people-percentage-cls-2" d="M65.1,99.49h0a10.15,10.15,0,0,1-7.27-3.06v87.38a9.18,9.18,0,1,0,18.36,0V110.29h4v73.53a9.18,9.18,0,1,0,18.35,0V96.44a10.14,10.14,0,0,1-7.26,3Z" transform="translate(-39.18)"/><path class="people-percentage-cls-2" d="M61.81,45.17a17.2,17.2,0,0,1,5.77-8.33h-10a18.31,18.31,0,0,0-18.42,18v56.36a7.66,7.66,0,1,0,15.32,0V56.44a10.59,10.59,0,0,1,7.31-11.27" transform="translate(-39.18)"/><path class="people-percentage-cls-2" d="M84,50.3H72.35a5.83,5.83,0,0,1,4.47-5.66h2.71A5.84,5.84,0,0,1,84,50.3m4.11,28.94A3.77,3.77,0,0,1,84.34,83H72a3.78,3.78,0,0,1,0-7.55H84.34a3.77,3.77,0,0,1,3.77,3.78M68.18,44.64a11.4,11.4,0,0,0-1.49,5.66H65.1a4.44,4.44,0,0,0-4.44,4.43V89.4a4.44,4.44,0,0,0,4.44,4.43H91.25a4.43,4.43,0,0,0,4.43-4.43V54.73a4.43,4.43,0,0,0-4.43-4.43H89.66a11.49,11.49,0,0,0-21.48-5.66" transform="translate(-39.18)"/><path class="people-percentage-cls-3" d="M174.37,31.77a15.89,15.89,0,1,0-15.89-15.88,15.88,15.88,0,0,0,15.89,15.88" transform="translate(-39.18)"/><path class="people-percentage-cls-3" d="M194.94,36.84H185a17.19,17.19,0,0,1,5.78,8.36l.1,0A10.57,10.57,0,0,1,198,55.54v55.7a7.67,7.67,0,0,0,15.34,0V54.88a18.32,18.32,0,0,0-18.43-18" transform="translate(-39.18)"/><path class="people-percentage-cls-3" d="M161.29,99.49h0A10.11,10.11,0,0,1,154,96.43v87.38a9.18,9.18,0,1,0,18.35,0V110.29h4v73.53a9.18,9.18,0,1,0,18.36,0V96.44a10.15,10.15,0,0,1-7.27,3Z" transform="translate(-39.18)"/><path class="people-percentage-cls-3" d="M158,45.17a17.2,17.2,0,0,1,5.77-8.33h-10a18.31,18.31,0,0,0-18.42,18v56.36a7.67,7.67,0,0,0,15.33,0V56.44A10.58,10.58,0,0,1,158,45.17" transform="translate(-39.18)"/><path class="people-percentage-cls-3" d="M180.19,50.3H168.54A5.84,5.84,0,0,1,173,44.64h2.72a5.84,5.84,0,0,1,4.46,5.66m4.11,28.94A3.77,3.77,0,0,1,180.53,83H168.2a3.78,3.78,0,0,1,0-7.55h12.33a3.77,3.77,0,0,1,3.77,3.78m-19.92-34.6a11.41,11.41,0,0,0-1.5,5.66h-1.59a4.43,4.43,0,0,0-4.43,4.43V89.4a4.43,4.43,0,0,0,4.43,4.43h26.15a4.44,4.44,0,0,0,4.44-4.43V54.73a4.44,4.44,0,0,0-4.44-4.43h-1.59a11.48,11.48,0,0,0-21.47-5.66" transform="translate(-39.18)"/><path class="people-percentage-cls-3" d="M172.89,291.76A15.89,15.89,0,1,0,157,275.87a15.89,15.89,0,0,0,15.89,15.89" transform="translate(-39.18)"/><path class="people-percentage-cls-3" d="M193.47,296.82h-10a17.22,17.22,0,0,1,5.77,8.36l.11,0a10.61,10.61,0,0,1,7.19,10.3v55.7a7.67,7.67,0,1,0,15.33,0V314.87a18.33,18.33,0,0,0-18.42-18.05" transform="translate(-39.18)"/><path class="people-percentage-cls-3" d="M159.81,359.47h0a10.14,10.14,0,0,1-7.26-3.05V443.8a9.18,9.18,0,1,0,18.36,0V370.28h4V443.8a9.18,9.18,0,1,0,18.35,0V356.42a10.14,10.14,0,0,1-7.26,3.05Z" transform="translate(-39.18)"/><path class="people-percentage-cls-3" d="M156.53,305.16a17.21,17.21,0,0,1,5.76-8.34h-10a18.33,18.33,0,0,0-18.43,18.05v56.35a7.67,7.67,0,1,0,15.33,0V316.43a10.58,10.58,0,0,1,7.31-11.27" transform="translate(-39.18)"/><path class="people-percentage-cls-3" d="M178.72,310.29H167.06a5.82,5.82,0,0,1,4.47-5.66h2.72a5.82,5.82,0,0,1,4.47,5.66m4.11,28.93a3.78,3.78,0,0,1-3.78,3.78H166.73a3.78,3.78,0,1,1,0-7.55h12.32a3.77,3.77,0,0,1,3.78,3.77M162.9,304.63a11.41,11.41,0,0,0-1.5,5.66h-1.59a4.43,4.43,0,0,0-4.43,4.43v34.66a4.43,4.43,0,0,0,4.43,4.43H186a4.43,4.43,0,0,0,4.43-4.43V314.72a4.43,4.43,0,0,0-4.43-4.43h-1.59a11.48,11.48,0,0,0-21.48-5.66" transform="translate(-39.18)"/><g class="people-percentage-cls-4"><path class="people-percentage-cls-2" d="M87.09,406.15a15.89,15.89,0,1,0-15.88-15.89,15.88,15.88,0,0,0,15.88,15.89" transform="translate(-39.18)"/><path class="people-percentage-cls-2" d="M107.67,411.21h-10a17.22,17.22,0,0,1,5.78,8.37l.1,0a10.6,10.6,0,0,1,7.19,10.3v55.69a7.67,7.67,0,1,0,15.33,0V429.26a18.32,18.32,0,0,0-18.42-18.05" transform="translate(-39.18)"/><path class="people-percentage-cls-2" d="M70.73,419.55a17.28,17.28,0,0,1,5.77-8.34h-10A18.32,18.32,0,0,0,48.1,429.26v56.35a7.67,7.67,0,1,0,15.33,0V430.82a10.58,10.58,0,0,1,7.3-11.27" transform="translate(-39.18)"/><path class="people-percentage-cls-2" d="M92.92,424.68H81.27A5.82,5.82,0,0,1,85.74,419h2.71a5.82,5.82,0,0,1,4.47,5.66M97,453.62a3.77,3.77,0,0,1-3.77,3.77H80.93a3.78,3.78,0,0,1,0-7.55H93.26A3.77,3.77,0,0,1,97,453.62M77.11,419a11.31,11.31,0,0,0-1.5,5.66H74a4.43,4.43,0,0,0-4.43,4.43v34.66A4.43,4.43,0,0,0,74,468.21h26.15a4.43,4.43,0,0,0,4.43-4.44V429.11a4.42,4.42,0,0,0-4.43-4.43H98.58A11.48,11.48,0,0,0,77.11,419" transform="translate(-39.18)"/></g><path class="people-percentage-cls-5" d="M371.3,178.71a6.72,6.72,0,0,1-5.73-3q-2.16-3-2.16-9c0-4,.72-6.94,2.16-9a6.7,6.7,0,0,1,5.73-3,6.63,6.63,0,0,1,5.77,3.07q2.12,3.09,2.11,8.91t-2.11,8.91a6.61,6.61,0,0,1-5.77,3.08m0,8.86a17.6,17.6,0,0,0,13.55-5.67q5.23-5.67,5.24-15.18t-5.24-15.17a17.6,17.6,0,0,0-13.55-5.67,18.56,18.56,0,0,0-9.67,2.54,17.17,17.17,0,0,0-6.64,7.29,26.68,26.68,0,0,0,0,22,17.17,17.17,0,0,0,6.64,7.29,18.56,18.56,0,0,0,9.67,2.54M320,143.07a6.67,6.67,0,0,1-5.73-3.08q-2.16-3.08-2.16-8.91t2.16-8.91a7,7,0,0,1,11.5,0c1.41,2,2.11,5,2.11,9s-.7,6.95-2.11,9a6.65,6.65,0,0,1-5.77,3m-6.59,43.63h12.85l51.62-75.6H365ZM320,151.93a17.45,17.45,0,0,0,13.5-5.67q5.17-5.67,5.18-15.18t-5.18-15.17a19,19,0,0,0-27.06,0q-5.24,5.67-5.24,15.17t5.24,15.18A17.61,17.61,0,0,0,320,151.93m-56.38,23.22q-6.48,0-10.26-2.92a9.54,9.54,0,0,1-3.78-8,9.42,9.42,0,0,1,3.78-7.88q3.78-2.93,10.26-2.92T274,156.36a9.37,9.37,0,0,1,3.84,7.88,9.53,9.53,0,0,1-3.84,7.94q-3.82,3-10.42,3m0-52.49a13.64,13.64,0,0,1,8.64,2.54,8.35,8.35,0,0,1,3.24,7,8.11,8.11,0,0,1-3.24,6.81,13.88,13.88,0,0,1-8.64,2.48q-5.4,0-8.53-2.48a8.21,8.21,0,0,1-3.13-6.81,8.42,8.42,0,0,1,3.18-7,13.24,13.24,0,0,1,8.48-2.54M284,147a18.18,18.18,0,0,0,6.59-6.53,17.8,17.8,0,0,0,2.27-9A18.51,18.51,0,0,0,289.22,120a23.47,23.47,0,0,0-10.32-7.51,41.15,41.15,0,0,0-15.28-2.64,40.4,40.4,0,0,0-15.12,2.64A23.51,23.51,0,0,0,238.24,120a18.45,18.45,0,0,0-3.67,11.45,17.8,17.8,0,0,0,2.27,9,18.4,18.4,0,0,0,6.48,6.53,21.57,21.57,0,0,0-8.48,7.34,18.72,18.72,0,0,0-3,10.48A19.81,19.81,0,0,0,235.81,177a25.21,25.21,0,0,0,11.13,8.1A45,45,0,0,0,263.62,188a45.44,45.44,0,0,0,16.74-2.86,25.54,25.54,0,0,0,11.23-8.1,19.61,19.61,0,0,0,4-12.26,18.72,18.72,0,0,0-3-10.48A21.37,21.37,0,0,0,284,147" transform="translate(-39.18)"/><path class="people-percentage-cls-6" d="M436.3,437.71a6.72,6.72,0,0,1-5.72-3c-1.44-2-2.16-5-2.16-9s.72-6.94,2.16-9a6.72,6.72,0,0,1,5.72-3,6.63,6.63,0,0,1,5.78,3.07q2.12,3.09,2.11,8.91t-2.11,8.91a6.62,6.62,0,0,1-5.78,3.08m0,8.86a17.61,17.61,0,0,0,13.56-5.67q5.24-5.67,5.24-15.18t-5.24-15.17a17.61,17.61,0,0,0-13.56-5.67,18.53,18.53,0,0,0-9.66,2.54,17.1,17.1,0,0,0-6.64,7.29,26.68,26.68,0,0,0,0,22,17.1,17.1,0,0,0,6.64,7.29,18.53,18.53,0,0,0,9.66,2.54M385,402.07a6.66,6.66,0,0,1-5.72-3.08q-2.16-3.08-2.16-8.91t2.16-8.91a7,7,0,0,1,11.5-.05c1.41,2,2.11,5,2.11,9s-.7,6.95-2.11,9a6.65,6.65,0,0,1-5.78,3m-6.58,43.63h12.85l51.62-75.6H430ZM385,410.93a17.42,17.42,0,0,0,13.5-5.67q5.19-5.67,5.19-15.18t-5.19-15.17a17.42,17.42,0,0,0-13.5-5.67,17.6,17.6,0,0,0-13.55,5.67q-5.24,5.67-5.24,15.17t5.24,15.18A17.6,17.6,0,0,0,385,410.93m-58.42-6.48q-5.83,0-9.35-3.08a10.43,10.43,0,0,1-3.5-8.26,10.27,10.27,0,0,1,3.5-8.21,13.53,13.53,0,0,1,9.13-3q6.17,0,9.67,3.13a11,11,0,0,1-.11,16.25,13.59,13.59,0,0,1-9.34,3.19m-1.3-35.64a33.5,33.5,0,0,0-14.52,3.08,24.6,24.6,0,0,0-10.32,8.8A23.55,23.55,0,0,0,296.66,394a22.25,22.25,0,0,0,3.46,12.37,23,23,0,0,0,9.39,8.26,29.55,29.55,0,0,0,13.18,2.92q12,0,18.79-6.81-.44,10.69-6.05,16.36t-15.23,5.67c-5.76,0-10.47-1.25-14.14-3.78l-6.48,12.86a31.22,31.22,0,0,0,9.39,3.83A48.48,48.48,0,0,0,320.53,447a41.66,41.66,0,0,0,20.2-4.75,32.72,32.72,0,0,0,13.55-13.93q4.8-9.18,4.81-22,0-18.13-9-27.81t-24.84-9.66M294,415.57H281.65V401.42H265.13v14.15H244.82l33.05-45.47H259.51l-35.64,48v11.77h40.72V445.7h17.06V429.83H294Z" transform="translate(-39.18)"/></g></g></svg>
