<svg xmlns="http://www.w3.org/2000/svg" viewBox="0 0 262.86 48.84"><path d="M59.54 37.82v8.93C39.73 39.5 19.82 54 0 46.75v-8.93c19.79 7.24 39.73-7.25 59.54 0zM0 20v8.93c19.82 7.25 39.73-7.25 59.54 0V20C39.72 12.7 19.81 27.21 0 20zM0 2.09V11c19.82 7.25 39.73-7.26 59.54 0V2.09C39.72-5.16 19.81 9.35 0 2.09zm95.35 12.83a.92.92 0 0 0-.85-.58h-4a.92.92 0 0 0-.86.6l-8 21.81a.58.58 0 0 0 .55.78h3.26a.81.81 0 0 0 .77-.54l1.44-4.1h10L99.13 37a.8.8 0 0 0 .76.54h3.47a.59.59 0 0 0 .55-.8zm.73 13.94a.28.28 0 0 1-.24.13h-6.43a.28.28 0 0 1-.24-.13.29.29 0 0 1 0-.27l3.16-9a.27.27 0 0 1 .25-.18.27.27 0 0 1 .25.17l3.3 9a.29.29 0 0 1-.05.28zm77-17.69V9.8a.59.59 0 0 1 .47-.58l6.3-1.22a.81.81 0 0 1 .91.5l1 2.47a.59.59 0 0 1-.55.8h-7.5a.58.58 0 0 1-.64-.6zm-57.68 3.17h-8a.69.69 0 0 0-.69.7v21.8a.69.69 0 0 0 .69.69h3.19a.69.69 0 0 0 .69-.69v-5.79h4.13a8.36 8.36 0 1 0 0-16.71zm-.92 13h-2.91a.3.3 0 0 1-.3-.29v-8.66a.3.3 0 0 1 .3-.3h2.91a4.61 4.61 0 1 1 0 9.21zM250.92 14a11.94 11.94 0 1 0 11.94 12 11.94 11.94 0 0 0-11.94-12zm0 19.47a7.54 7.54 0 1 1 7.54-7.47 7.55 7.55 0 0 1-7.54 7.5zM203 15.14l-8.34 21.8a.92.92 0 0 1-.86.59h-4a.9.9 0 0 1-.85-.59l-8.34-21.8a.58.58 0 0 1 .54-.8h3.59a.82.82 0 0 1 .77.55l5.87 16.88a.3.3 0 0 0 .3.21h.27a.32.32 0 0 0 .3-.21l5.87-16.88a.81.81 0 0 1 .77-.55h3.58a.59.59 0 0 1 .53.8zM177.64 15v21.8a.69.69 0 0 1-.69.69h-3.19a.69.69 0 0 1-.69-.69V15a.69.69 0 0 1 .69-.7H177a.69.69 0 0 1 .64.7zM218 26a7.53 7.53 0 0 0 14.09 3.7.83.83 0 0 1 .72-.42H236a.7.7 0 0 1 .58.3.72.72 0 0 1 .08.65 11.94 11.94 0 1 1 0-8.44.71.71 0 0 1-.65.95h-3.21a.83.83 0 0 1-.72-.42A7.53 7.53 0 0 0 218 26zm-7.86-11v21.8a.69.69 0 0 1-.7.69h-3.18a.69.69 0 0 1-.7-.69V15a.7.7 0 0 1 .7-.7h3.18a.7.7 0 0 1 .7.7zm-74.26-.7h-8a.69.69 0 0 0-.69.7v21.8a.69.69 0 0 0 .69.69h3.19a.69.69 0 0 0 .69-.69v-5.75h4.13a8.36 8.36 0 0 0 0-16.71zm-.92 13h-2.91a.29.29 0 0 1-.3-.29v-8.62a.29.29 0 0 1 .3-.3H135a4.61 4.61 0 1 1 0 9.21zM150.7 26a7.53 7.53 0 0 0 14.09 3.7.83.83 0 0 1 .72-.42h3.23a.7.7 0 0 1 .58.3.72.72 0 0 1 .08.65 11.94 11.94 0 1 1 0-8.44.71.71 0 0 1-.65.95h-3.23a.83.83 0 0 1-.72-.42A7.53 7.53 0 0 0 150.7 26z" fill="#fff" data-name="Layer 2"/></svg>