<svg version="1.1" xmlns="http://www.w3.org/2000/svg" xmlns:xlink="http://www.w3.org/1999/xlink" x="0px" y="0px"
	 viewBox="0 0 1700.9 2000" style="enable-background:new 0 0 1700.9 2000;" xml:space="preserve">
<style type="text/css">
	.inside-download-button{fill:#6633cc;}
</style>
<g>
	<g>
		<g>
			<path class="inside-download-button" d="M850.2,1535c-18,0-36.1-5.5-51.3-16.7l-614.2-446.9c-39.1-28.4-47.7-83-19.3-121.9
				c28.2-39.1,83.1-47.7,121.9-19.3l562.8,409.5l563-409.5c38.8-28.4,93.6-19.8,121.9,19.3c28.4,39,19.8,93.6-19.2,121.9
				l-614.3,446.9C886.3,1529.5,868.2,1535,850.2,1535L850.2,1535z"/>
		</g>
		<g>
			<path class="inside-download-button" d="M850.2,1535c-48.3,0-87.3-39.1-87.3-87.3V87.3C762.9,39.1,802,0,850.2,0c48.3,0,87.3,39.1,87.3,87.3v1360.3
				C937.5,1495.9,898.5,1535,850.2,1535L850.2,1535z"/>
		</g>
	</g>
	<g>
		<path class="inside-download-button" d="M1613.5,1996.3H87.3c-48.3,0-87.3-39.1-87.3-87.3c0-48.3,39.1-87.3,87.3-87.3h1526.2
			c48.3,0,87.3,39.1,87.3,87.3C1700.9,1957.2,1661.8,1996.3,1613.5,1996.3L1613.5,1996.3z"/>
	</g>
	<g>
		<path class="inside-download-button" d="M1613.5,1996.3c-48.3,0-87.3-39.1-87.3-87.3v-386.1c0-48.3,39.1-87.3,87.3-87.3c48.3,0,87.3,39.1,87.3,87.3
			v386.1C1700.9,1957.2,1661.8,1996.3,1613.5,1996.3L1613.5,1996.3z"/>
	</g>
	<g>
		<path class="inside-download-button" d="M87.3,1996.3c-48.3,0-87.3-39.1-87.3-87.3v-386.1c0-48.3,39.1-87.3,87.3-87.3s87.3,39.1,87.3,87.3v386.1
			C174.6,1957.2,135.6,1996.3,87.3,1996.3L87.3,1996.3z"/>
	</g>
</g>
</svg>
