<svg version="1.1" xmlns="http://www.w3.org/2000/svg" xmlns:xlink="http://www.w3.org/1999/xlink" x="0px" y="0px"
	 viewBox="0 0 1451.1 1444.3" style="enable-background:new 0 0 1451.1 1444.3;" xml:space="preserve">
<style type="text/css">
	.inside-expand-button{fill:#6633cc;}
</style>
<g>
	<g>
		<g>
			<path class="inside-expand-button" d="M60.7,376.6C27.1,376.6,0,349.5,0,316V60.7C0,27.1,27.1,0,60.7,0h255.2c33.5,0,60.7,27.1,60.7,60.7
				c0,33.5-27.1,60.7-60.7,60.7H121.3V316C121.3,349.5,94.2,376.6,60.7,376.6L60.7,376.6z"/>
		</g>
		<g>
			<path class="inside-expand-button" d="M1390.5,376.6c-33.5,0-60.7-27.1-60.7-60.7V121.3h-194.6c-33.5,0-60.7-27.1-60.7-60.7
				c0-33.5,27.1-60.7,60.7-60.7h255.3c33.5,0,60.7,27.1,60.7,60.7V316C1451.1,349.5,1424,376.6,1390.5,376.6L1390.5,376.6z"/>
		</g>
		<g>
			<path class="inside-expand-button" d="M315.9,1444.3H60.7c-33.5,0-60.7-27.1-60.7-60.7v-255.3c0-33.5,27.1-60.7,60.7-60.7s60.7,27.1,60.7,60.7
				V1323h194.6c33.5,0,60.7,27.1,60.7,60.7C376.6,1417.2,349.5,1444.3,315.9,1444.3L315.9,1444.3z"/>
		</g>
		<g>
			<path class="inside-expand-button" d="M1390.5,1444.3h-255.3c-33.5,0-60.7-27.1-60.7-60.7c0-33.5,27.1-60.7,60.7-60.7h194.6v-194.6
				c0-33.5,27.1-60.7,60.7-60.7c33.5,0,60.7,27.1,60.7,60.7v255.3C1451.1,1417.2,1424,1444.3,1390.5,1444.3L1390.5,1444.3z"/>
		</g>
	</g>
	<g>
		<path class="inside-expand-button" d="M1146.2,1203.6H304.8c-33.5,0-60.7-27.1-60.7-60.7V301.4c0-33.5,27.1-60.7,60.7-60.7h841.5
			c33.5,0,60.7,27.1,60.7,60.7v841.5C1206.9,1176.5,1179.8,1203.6,1146.2,1203.6L1146.2,1203.6z M365.4,1082.3h720.1V362.1H365.4
			V1082.3L365.4,1082.3z"/>
	</g>
</g>
</svg>
