<svg version="1.1" xmlns="http://www.w3.org/2000/svg" xmlns:xlink="http://www.w3.org/1999/xlink" x="0px" y="0px"
	 viewBox="0 0 1332.8 1332.8" style="enable-background:new 0 0 1332.8 1332.8;" xml:space="preserve">
<style type="text/css">
	.inside-shrink-button{fill:#6633cc;}
</style>
<g>
	<path class="inside-shrink-button" d="M532.9,259.5c-29,0-52.5,23.5-52.5,52.5v93.3L293.6,218.5c-20.7-20.7-54.3-20.7-75.1,0s-20.7,54.3,0,75.1
		l186.9,186.8H312c-29,0-52.5,23.5-52.5,52.5c0,29,23.5,52.5,52.5,52.5h220.9c29,0,52.5-23.5,52.5-52.5V312
		C585.4,283,561.9,259.5,532.9,259.5z"/>
	<path class="inside-shrink-button" d="M804.8,1074.2c28.6,0,51.7-23.1,51.7-51.7v-92l184.1,184c20.4,20.4,53.5,20.4,73.9,0
		c20.4-20.4,20.4-53.5,0-73.9L930.4,856.5h92c28.6,0,51.7-23.1,51.7-51.7c0-28.6-23.1-51.7-51.7-51.7H804.8
		c-28.6,0-51.7,23.1-51.7,51.7v217.7C753,1051,776.2,1074.2,804.8,1074.2z"/>
	<g>
		<path class="inside-shrink-button" d="M119.9,119L119.9,119L119.9,119 M1212.9,119.9v1093h-1093v-1093H1212.9 M1213.8,0H119.1
			C53.3,0,0,53.3,0,119.1v1094.7c0,65.8,53.3,119.1,119.1,119.1h1094.7c65.8,0,119.1-53.3,119.1-119.1V119.1
			C1332.8,53.3,1279.5,0,1213.8,0L1213.8,0z"/>
	</g>
</g>
</svg>
