<svg xmlns="http://www.w3.org/2000/svg" xmlns:xlink="http://www.w3.org/1999/xlink" viewBox="0 0 720.7 612"><defs><style>.cls-1{fill:url(#linear-gradient);}.cls-2{opacity:0.9;fill:url(#linear-gradient-2);}</style><linearGradient id="linear-gradient" x1="360.35" y1="-15.55" x2="360.35" y2="258.27" gradientUnits="userSpaceOnUse"><stop offset="0" stop-color="#41ba86"/><stop offset="0.71" stop-color="#088259"/></linearGradient><linearGradient id="linear-gradient-2" x1="556.04" y1="52" x2="553.94" y2="163.14" gradientUnits="userSpaceOnUse"><stop offset="0" stop-color="#0f9464"/><stop offset="1" stop-color="#086b49"/></linearGradient></defs><title>Asset 7</title><g id="Layer_2" data-name="Layer 2"><g id="Layer_1-2" data-name="Layer 1"><path class="cls-1" d="M0,58S112,0,263.09,0C379.24,0,440,58,528.87,58c40.69,0,81.27-28,141.45-28a153.08,153.08,0,0,1,50.38,8.44V612H0Z"/><path class="cls-2" d="M720.7,145.39s-27.18-14.47-41.3-12.7-14.12,10.59-6.71,27.88,6.71,70.24-97.41,67.77-187.07-39.18-187.43-81.53,54.36-65.3,53.65-83.3c-.61-15.67-22.83-29.17-48.63-39.26,0,0,22.51,8.2,55.1,19.29,0,0,19.3,9,18.59,28.08S440.09,115.75,451,138s55.42,39.89,116.13,40.24,75.14-11.92,73.73-25.33c-1.09-10.33-14.79-37.85,21.57-34.32s58.24,19.06,58.24,19.06Z"/></g></g></svg>